%TF.GenerationSoftware,KiCad,Pcbnew,7.0.1*%
%TF.CreationDate,2023-05-11T12:11:36+02:00*%
%TF.ProjectId,STM32_F439ZI_Shield,53544d33-325f-4463-9433-395a495f5368,rev?*%
%TF.SameCoordinates,Original*%
%TF.FileFunction,Copper,L1,Top*%
%TF.FilePolarity,Positive*%
%FSLAX46Y46*%
G04 Gerber Fmt 4.6, Leading zero omitted, Abs format (unit mm)*
G04 Created by KiCad (PCBNEW 7.0.1) date 2023-05-11 12:11:36*
%MOMM*%
%LPD*%
G01*
G04 APERTURE LIST*
G04 Aperture macros list*
%AMRoundRect*
0 Rectangle with rounded corners*
0 $1 Rounding radius*
0 $2 $3 $4 $5 $6 $7 $8 $9 X,Y pos of 4 corners*
0 Add a 4 corners polygon primitive as box body*
4,1,4,$2,$3,$4,$5,$6,$7,$8,$9,$2,$3,0*
0 Add four circle primitives for the rounded corners*
1,1,$1+$1,$2,$3*
1,1,$1+$1,$4,$5*
1,1,$1+$1,$6,$7*
1,1,$1+$1,$8,$9*
0 Add four rect primitives between the rounded corners*
20,1,$1+$1,$2,$3,$4,$5,0*
20,1,$1+$1,$4,$5,$6,$7,0*
20,1,$1+$1,$6,$7,$8,$9,0*
20,1,$1+$1,$8,$9,$2,$3,0*%
G04 Aperture macros list end*
%TA.AperFunction,SMDPad,CuDef*%
%ADD10RoundRect,0.250000X-0.625000X0.375000X-0.625000X-0.375000X0.625000X-0.375000X0.625000X0.375000X0*%
%TD*%
%TA.AperFunction,SMDPad,CuDef*%
%ADD11RoundRect,0.250000X0.625000X-0.375000X0.625000X0.375000X-0.625000X0.375000X-0.625000X-0.375000X0*%
%TD*%
%TA.AperFunction,SMDPad,CuDef*%
%ADD12R,1.780000X2.000000*%
%TD*%
%TA.AperFunction,SMDPad,CuDef*%
%ADD13RoundRect,0.250000X0.625000X-0.312500X0.625000X0.312500X-0.625000X0.312500X-0.625000X-0.312500X0*%
%TD*%
%TA.AperFunction,SMDPad,CuDef*%
%ADD14RoundRect,0.250000X-0.625000X0.312500X-0.625000X-0.312500X0.625000X-0.312500X0.625000X0.312500X0*%
%TD*%
%TA.AperFunction,SMDPad,CuDef*%
%ADD15RoundRect,0.225000X-0.375000X0.225000X-0.375000X-0.225000X0.375000X-0.225000X0.375000X0.225000X0*%
%TD*%
%TA.AperFunction,ComponentPad*%
%ADD16R,2.000000X2.000000*%
%TD*%
%TA.AperFunction,ComponentPad*%
%ADD17R,2.100000X2.100000*%
%TD*%
%TA.AperFunction,ComponentPad*%
%ADD18C,2.100000*%
%TD*%
%TA.AperFunction,SMDPad,CuDef*%
%ADD19R,0.950000X2.150000*%
%TD*%
%TA.AperFunction,SMDPad,CuDef*%
%ADD20R,3.250000X2.150000*%
%TD*%
%TA.AperFunction,SMDPad,CuDef*%
%ADD21RoundRect,0.250000X-0.650000X0.325000X-0.650000X-0.325000X0.650000X-0.325000X0.650000X0.325000X0*%
%TD*%
%TA.AperFunction,SMDPad,CuDef*%
%ADD22RoundRect,0.250000X-0.312500X-0.625000X0.312500X-0.625000X0.312500X0.625000X-0.312500X0.625000X0*%
%TD*%
%TA.AperFunction,SMDPad,CuDef*%
%ADD23R,3.150000X1.000000*%
%TD*%
%TA.AperFunction,SMDPad,CuDef*%
%ADD24RoundRect,0.225000X0.225000X0.375000X-0.225000X0.375000X-0.225000X-0.375000X0.225000X-0.375000X0*%
%TD*%
%TA.AperFunction,SMDPad,CuDef*%
%ADD25RoundRect,0.225000X-0.225000X-0.375000X0.225000X-0.375000X0.225000X0.375000X-0.225000X0.375000X0*%
%TD*%
%TA.AperFunction,SMDPad,CuDef*%
%ADD26RoundRect,0.250000X0.312500X0.625000X-0.312500X0.625000X-0.312500X-0.625000X0.312500X-0.625000X0*%
%TD*%
%TA.AperFunction,SMDPad,CuDef*%
%ADD27RoundRect,0.150000X-0.825000X-0.150000X0.825000X-0.150000X0.825000X0.150000X-0.825000X0.150000X0*%
%TD*%
%TA.AperFunction,SMDPad,CuDef*%
%ADD28R,2.200000X1.000000*%
%TD*%
%TA.AperFunction,ComponentPad*%
%ADD29R,2.400000X2.400000*%
%TD*%
%TA.AperFunction,ComponentPad*%
%ADD30C,2.400000*%
%TD*%
%TA.AperFunction,ComponentPad*%
%ADD31R,1.600000X2.300000*%
%TD*%
%TA.AperFunction,ComponentPad*%
%ADD32O,1.600000X2.300000*%
%TD*%
%TA.AperFunction,SMDPad,CuDef*%
%ADD33RoundRect,0.250000X0.650000X-0.325000X0.650000X0.325000X-0.650000X0.325000X-0.650000X-0.325000X0*%
%TD*%
%TA.AperFunction,SMDPad,CuDef*%
%ADD34RoundRect,0.250000X-0.325000X-0.650000X0.325000X-0.650000X0.325000X0.650000X-0.325000X0.650000X0*%
%TD*%
%TA.AperFunction,SMDPad,CuDef*%
%ADD35RoundRect,0.041300X0.253700X-0.778700X0.253700X0.778700X-0.253700X0.778700X-0.253700X-0.778700X0*%
%TD*%
%TA.AperFunction,SMDPad,CuDef*%
%ADD36RoundRect,0.041300X-0.253700X0.943700X-0.253700X-0.943700X0.253700X-0.943700X0.253700X0.943700X0*%
%TD*%
%TA.AperFunction,SMDPad,CuDef*%
%ADD37RoundRect,0.250000X0.325000X0.650000X-0.325000X0.650000X-0.325000X-0.650000X0.325000X-0.650000X0*%
%TD*%
%TA.AperFunction,SMDPad,CuDef*%
%ADD38R,0.635000X1.778000*%
%TD*%
%TA.AperFunction,ComponentPad*%
%ADD39R,1.700000X1.700000*%
%TD*%
%TA.AperFunction,ComponentPad*%
%ADD40O,1.700000X1.700000*%
%TD*%
%TA.AperFunction,ViaPad*%
%ADD41C,1.500000*%
%TD*%
%TA.AperFunction,Conductor*%
%ADD42C,0.250000*%
%TD*%
%TA.AperFunction,Conductor*%
%ADD43C,2.200000*%
%TD*%
G04 APERTURE END LIST*
D10*
%TO.P,F1,1*%
%TO.N,Net-(Spannungsversorgung_1-Pin_1)*%
X109690000Y-34680000D03*
%TO.P,F1,2*%
%TO.N,+24V*%
X109690000Y-37480000D03*
%TD*%
D11*
%TO.P,F2,1*%
%TO.N,Net-(Motor_Spannungsversorgung1-Pin_1)*%
X106130000Y-147610000D03*
%TO.P,F2,2*%
%TO.N,Net-(F2-Pad2)*%
X106130000Y-144810000D03*
%TD*%
D12*
%TO.P,U5,1*%
%TO.N,Net-(R15-Pad2)*%
X129950000Y-49820000D03*
%TO.P,U5,2*%
%TO.N,GND*%
X132490000Y-49820000D03*
%TO.P,U5,3*%
%TO.N,/Motor/IN2_OUT*%
X132490000Y-42200000D03*
%TO.P,U5,4*%
%TO.N,+24V*%
X129950000Y-42200000D03*
%TD*%
D13*
%TO.P,R8,1*%
%TO.N,/Sensoren_Eing\u00E4nge/RS485_RX_TX_POS_1*%
X128660000Y-149422500D03*
%TO.P,R8,2*%
%TO.N,GND*%
X128660000Y-146497500D03*
%TD*%
D14*
%TO.P,R42,1*%
%TO.N,/STM32F439ZI/Kraftmessung_MCU*%
X154880000Y-144607500D03*
%TO.P,R42,2*%
%TO.N,GND*%
X154880000Y-147532500D03*
%TD*%
D13*
%TO.P,R40,1*%
%TO.N,/Buttons_LEDS/MCU_LED_PWR*%
X156100000Y-96582500D03*
%TO.P,R40,2*%
%TO.N,Net-(D10-A)*%
X156100000Y-93657500D03*
%TD*%
D15*
%TO.P,D5,1,K*%
%TO.N,/Motor/OUT2_IN*%
X122300000Y-32070000D03*
%TO.P,D5,2,A*%
%TO.N,GND*%
X122300000Y-35370000D03*
%TD*%
D12*
%TO.P,U9,1*%
%TO.N,Net-(R23-Pad2)*%
X137070000Y-62360000D03*
%TO.P,U9,2*%
%TO.N,GND*%
X134530000Y-62360000D03*
%TO.P,U9,3*%
%TO.N,/Optokoppler/OUT3_MCU*%
X134530000Y-69980000D03*
%TO.P,U9,4*%
%TO.N,+3.3V*%
X137070000Y-69980000D03*
%TD*%
D11*
%TO.P,D14,1,K*%
%TO.N,GND*%
X147100000Y-137310000D03*
%TO.P,D14,2,A*%
%TO.N,Net-(D14-A)*%
X147100000Y-134510000D03*
%TD*%
D16*
%TO.P,TP10,1,1*%
%TO.N,/Tx*%
X128405000Y-128495000D03*
%TD*%
D17*
%TO.P,Endschalter_Hinten1,1,Pin_1*%
%TO.N,+24V*%
X154520000Y-27550000D03*
D18*
%TO.P,Endschalter_Hinten1,2,Pin_2*%
%TO.N,GND*%
X157060000Y-27550000D03*
%TO.P,Endschalter_Hinten1,3,Pin_3*%
%TO.N,/Endschalter/Endschalter_Hinten*%
X159600000Y-27550000D03*
%TD*%
D17*
%TO.P,J3,1,Pin_1*%
%TO.N,/Optokoppler/Ext_Relais1_OUT*%
X169060000Y-153980000D03*
D18*
%TO.P,J3,2,Pin_2*%
%TO.N,/Optokoppler/Ext_Relais2_OUT*%
X166520000Y-153980000D03*
%TD*%
D19*
%TO.P,VR1,1,IN*%
%TO.N,+5V*%
X111830000Y-61400000D03*
%TO.P,VR1,2,GND_2*%
%TO.N,GND*%
X114130000Y-61400000D03*
%TO.P,VR1,3,OUT*%
%TO.N,+3.3V*%
X116430000Y-61400000D03*
D20*
%TO.P,VR1,4,GND_4*%
%TO.N,GND*%
X114130000Y-55600000D03*
%TD*%
D21*
%TO.P,C9,1*%
%TO.N,/Buttons_LEDS/MCU_Kalibrierung*%
X136925000Y-92315000D03*
%TO.P,C9,2*%
%TO.N,GND*%
X136925000Y-95265000D03*
%TD*%
D22*
%TO.P,R21,1*%
%TO.N,/Motor/OUT2_IN*%
X130320000Y-58930000D03*
%TO.P,R21,2*%
%TO.N,Net-(R21-Pad2)*%
X133245000Y-58930000D03*
%TD*%
D12*
%TO.P,U10,1*%
%TO.N,Net-(R33-Pad2)*%
X171020000Y-137950000D03*
%TO.P,U10,2*%
%TO.N,GND*%
X168480000Y-137950000D03*
%TO.P,U10,3*%
%TO.N,/Optokoppler/Ext_Relais1_OUT*%
X168480000Y-145570000D03*
%TO.P,U10,4*%
%TO.N,+24V*%
X171020000Y-145570000D03*
%TD*%
D13*
%TO.P,R27,1*%
%TO.N,/Buttons_LEDS/MCU_LED_Rollen*%
X154520000Y-129855000D03*
%TO.P,R27,2*%
%TO.N,Net-(D15-A)*%
X154520000Y-126930000D03*
%TD*%
D22*
%TO.P,R32,1*%
%TO.N,Net-(J7-Pin_1)*%
X128167500Y-86470000D03*
%TO.P,R32,2*%
%TO.N,/Buttons_LEDS/MCU_Zurueckfahren*%
X131092500Y-86470000D03*
%TD*%
D23*
%TO.P,J6,1,Pin_1*%
%TO.N,Net-(J6-Pin_1)*%
X128155000Y-95260000D03*
%TO.P,J6,2,Pin_2*%
%TO.N,GND*%
X133205000Y-95260000D03*
%TD*%
D24*
%TO.P,D21,1,K*%
%TO.N,/STM32F439ZI/Windrichtung_MCU*%
X125240000Y-149010000D03*
%TO.P,D21,2,A*%
%TO.N,GND*%
X121940000Y-149010000D03*
%TD*%
D14*
%TO.P,R37,1*%
%TO.N,/Buttons_LEDS/MCU_LED_Stoerung*%
X156100000Y-107677500D03*
%TO.P,R37,2*%
%TO.N,Net-(D13-A)*%
X156100000Y-110602500D03*
%TD*%
D17*
%TO.P,Kraftmessung1,1,Pin_1*%
%TO.N,+24V*%
X156110000Y-153980000D03*
D18*
%TO.P,Kraftmessung1,2,Pin_2*%
%TO.N,GND*%
X153570000Y-153980000D03*
%TO.P,Kraftmessung1,3,Pin_3*%
%TO.N,Net-(D19-K)*%
X151030000Y-153980000D03*
%TD*%
D15*
%TO.P,D6,1,K*%
%TO.N,/Motor/OUT1_IN*%
X119580000Y-32080000D03*
%TO.P,D6,2,A*%
%TO.N,GND*%
X119580000Y-35380000D03*
%TD*%
D25*
%TO.P,D22,1,K*%
%TO.N,/STM32F439ZI/Opt_Analog_IN*%
X165670000Y-72390000D03*
%TO.P,D22,2,A*%
%TO.N,GND*%
X168970000Y-72390000D03*
%TD*%
D16*
%TO.P,TP2,1,1*%
%TO.N,/STM32F439ZI/MISO*%
X126660000Y-109970000D03*
%TD*%
D26*
%TO.P,R13,1*%
%TO.N,/Optokoppler/IN3_MCU_IN*%
X125172500Y-53340000D03*
%TO.P,R13,2*%
%TO.N,Net-(R13-Pad2)*%
X122247500Y-53340000D03*
%TD*%
D27*
%TO.P,U15,1,IP+*%
%TO.N,+24V*%
X106115000Y-138775000D03*
%TO.P,U15,2,IP+*%
X106115000Y-140045000D03*
%TO.P,U15,3,IP-*%
%TO.N,Net-(F2-Pad2)*%
X106115000Y-141315000D03*
%TO.P,U15,4,IP-*%
X106115000Y-142585000D03*
%TO.P,U15,5,GND*%
%TO.N,GND*%
X111065000Y-142585000D03*
%TO.P,U15,6,FILTER*%
%TO.N,unconnected-(U15-FILTER-Pad6)*%
X111065000Y-141315000D03*
%TO.P,U15,7,VIOUT*%
%TO.N,/Motor/Stromsensor_MCU*%
X111065000Y-140045000D03*
%TO.P,U15,8,VCC*%
%TO.N,+3.3V*%
X111065000Y-138775000D03*
%TD*%
D11*
%TO.P,D12,1,K*%
%TO.N,GND*%
X147100000Y-106780000D03*
%TO.P,D12,2,A*%
%TO.N,Net-(D12-A)*%
X147100000Y-103980000D03*
%TD*%
D16*
%TO.P,TP6,1,1*%
%TO.N,/STM32F439ZI/Abstandsmessung_MCU*%
X153010000Y-140820000D03*
%TD*%
D26*
%TO.P,R12,1*%
%TO.N,/Motor/IN0_OUT*%
X143702500Y-38780000D03*
%TO.P,R12,2*%
%TO.N,GND*%
X140777500Y-38780000D03*
%TD*%
D22*
%TO.P,R20,1*%
%TO.N,/Optokoppler/OUT1_MCU*%
X122025000Y-72700000D03*
%TO.P,R20,2*%
%TO.N,GND*%
X124950000Y-72700000D03*
%TD*%
D13*
%TO.P,R2,1*%
%TO.N,GND*%
X136885000Y-102765000D03*
%TO.P,R2,2*%
%TO.N,/Buttons_LEDS/MCU_Switch*%
X136885000Y-99840000D03*
%TD*%
D26*
%TO.P,R11,1*%
%TO.N,/Optokoppler/IN0_MCU_IN*%
X144392500Y-53340000D03*
%TO.P,R11,2*%
%TO.N,Net-(R11-Pad2)*%
X141467500Y-53340000D03*
%TD*%
D17*
%TO.P,Anenometer1,1,Pin_1*%
%TO.N,+24V*%
X137940000Y-153990000D03*
D18*
%TO.P,Anenometer1,2,Pin_2*%
%TO.N,GND*%
X135400000Y-153990000D03*
%TO.P,Anenometer1,3,Pin_3*%
%TO.N,/Sensoren_Eing\u00E4nge/RS485_RX_TX_NEG_1*%
X132860000Y-153990000D03*
%TO.P,Anenometer1,4,Pin_4*%
%TO.N,/Sensoren_Eing\u00E4nge/RS485_RX_TX_POS_1*%
X130320000Y-153990000D03*
%TO.P,Anenometer1,5,Pin_5*%
%TO.N,GND*%
X127780000Y-153990000D03*
%TO.P,Anenometer1,6,Pin_6*%
%TO.N,/STM32F439ZI/Windrichtung_MCU*%
X125240000Y-153990000D03*
%TO.P,Anenometer1,7,Pin_7*%
%TO.N,/STM32F439ZI/Windgeschwindigkeit_MCU*%
X122700000Y-153990000D03*
%TD*%
D16*
%TO.P,TP5,1,1*%
%TO.N,/STM32F439ZI/Kraftmessung_MCU*%
X156340000Y-140810000D03*
%TD*%
D22*
%TO.P,R10,1*%
%TO.N,Net-(U1A-+)*%
X154837500Y-77340000D03*
%TO.P,R10,2*%
%TO.N,/STM32F439ZI/Drehzahl_Analog_OUT*%
X157762500Y-77340000D03*
%TD*%
D26*
%TO.P,R18,1*%
%TO.N,/Motor/IN2_OUT*%
X132490000Y-38790000D03*
%TO.P,R18,2*%
%TO.N,GND*%
X129565000Y-38790000D03*
%TD*%
D15*
%TO.P,D3,1,K*%
%TO.N,/Motor/IN3_OUT*%
X129570000Y-32082500D03*
%TO.P,D3,2,A*%
%TO.N,GND*%
X129570000Y-35382500D03*
%TD*%
D23*
%TO.P,J1,1,Pin_1*%
%TO.N,+3.3V*%
X128160000Y-99840000D03*
%TO.P,J1,2,Pin_2*%
%TO.N,/Buttons_LEDS/MCU_Switch*%
X133210000Y-99840000D03*
%TD*%
D17*
%TO.P,J5,1,Pin_1*%
%TO.N,/STM32F439ZI/Opt_Analog_IN*%
X170477500Y-75590000D03*
D18*
%TO.P,J5,2,Pin_2*%
%TO.N,GND*%
X170477500Y-78130000D03*
%TD*%
D26*
%TO.P,R16,1*%
%TO.N,/Motor/IN3_OUT*%
X126890000Y-38790000D03*
%TO.P,R16,2*%
%TO.N,GND*%
X123965000Y-38790000D03*
%TD*%
D12*
%TO.P,U6,1*%
%TO.N,Net-(R13-Pad2)*%
X124350000Y-49820000D03*
%TO.P,U6,2*%
%TO.N,GND*%
X126890000Y-49820000D03*
%TO.P,U6,3*%
%TO.N,/Motor/IN3_OUT*%
X126890000Y-42200000D03*
%TO.P,U6,4*%
%TO.N,+24V*%
X124350000Y-42200000D03*
%TD*%
D15*
%TO.P,D17,2,A*%
%TO.N,GND*%
X170630000Y-70370000D03*
%TO.P,D17,1,K*%
%TO.N,/STM32F439ZI/Opt_Temperaturmessung*%
X170630000Y-67070000D03*
%TD*%
D17*
%TO.P,J4,1,Pin_1*%
%TO.N,GND*%
X170470000Y-61780000D03*
D18*
%TO.P,J4,2,Pin_2*%
%TO.N,/STM32F439ZI/Opt_Temperaturmessung*%
X170470000Y-64320000D03*
%TD*%
D15*
%TO.P,D8,1,K*%
%TO.N,/Motor/IN1_OUT*%
X137430000Y-32080000D03*
%TO.P,D8,2,A*%
%TO.N,GND*%
X137430000Y-35380000D03*
%TD*%
D28*
%TO.P,K2,1*%
%TO.N,/Endschalter/Endschalter_Vorne*%
X164550000Y-35140000D03*
%TO.P,K2,3*%
%TO.N,/Optokoppler/IN0_MCU_IN*%
X164550000Y-40220000D03*
%TO.P,K2,4*%
%TO.N,/STM32F439ZI/IN0_MCU*%
X164550000Y-42760000D03*
%TO.P,K2,5*%
%TO.N,/STM32F439ZI/Endschalter_Vorne_MCU*%
X164550000Y-45300000D03*
%TO.P,K2,8*%
%TO.N,unconnected-(K2-Pad8)*%
X172550000Y-45300000D03*
%TO.P,K2,9*%
%TO.N,unconnected-(K2-Pad9)*%
X172550000Y-42760000D03*
%TO.P,K2,10*%
%TO.N,unconnected-(K2-Pad10)*%
X172550000Y-40220000D03*
%TO.P,K2,12*%
%TO.N,GND*%
X172550000Y-35140000D03*
%TD*%
D25*
%TO.P,D18,1,K*%
%TO.N,/STM32F439ZI/Abstandsmessung_MCU*%
X141950000Y-149030000D03*
%TO.P,D18,2,A*%
%TO.N,GND*%
X145250000Y-149030000D03*
%TD*%
D23*
%TO.P,J7,1,Pin_1*%
%TO.N,Net-(J7-Pin_1)*%
X128150000Y-89410000D03*
%TO.P,J7,2,Pin_2*%
%TO.N,GND*%
X133200000Y-89410000D03*
%TD*%
D21*
%TO.P,C7,1*%
%TO.N,/Buttons_LEDS/MCU_Vorfahren*%
X136900000Y-80585000D03*
%TO.P,C7,2*%
%TO.N,GND*%
X136900000Y-83535000D03*
%TD*%
D14*
%TO.P,R33,1*%
%TO.N,/Optokoppler/Ext_Relais1_MCU*%
X171020000Y-131967500D03*
%TO.P,R33,2*%
%TO.N,Net-(R33-Pad2)*%
X171020000Y-134892500D03*
%TD*%
D12*
%TO.P,U4,1*%
%TO.N,Net-(R17-Pad2)*%
X135550000Y-49820000D03*
%TO.P,U4,2*%
%TO.N,GND*%
X138090000Y-49820000D03*
%TO.P,U4,3*%
%TO.N,/Motor/IN1_OUT*%
X138090000Y-42200000D03*
%TO.P,U4,4*%
%TO.N,+24V*%
X135550000Y-42200000D03*
%TD*%
D15*
%TO.P,D4,1,K*%
%TO.N,/Motor/OUT3_IN*%
X125140000Y-32080000D03*
%TO.P,D4,2,A*%
%TO.N,GND*%
X125140000Y-35380000D03*
%TD*%
D29*
%TO.P,Spannungsversorgung_1,1,Pin_1*%
%TO.N,Net-(Spannungsversorgung_1-Pin_1)*%
X109690000Y-28960000D03*
D30*
%TO.P,Spannungsversorgung_1,2,Pin_2*%
%TO.N,GND*%
X106190000Y-28960000D03*
%TD*%
D22*
%TO.P,R22,1*%
%TO.N,/Optokoppler/OUT2_MCU*%
X128307500Y-73370000D03*
%TO.P,R22,2*%
%TO.N,GND*%
X131232500Y-73370000D03*
%TD*%
D31*
%TO.P,U13,1,IN*%
%TO.N,+24V*%
X107673000Y-46830000D03*
D32*
%TO.P,U13,2,GND*%
%TO.N,GND*%
X110213000Y-46830000D03*
%TO.P,U13,3,OUT*%
%TO.N,+5V*%
X112753000Y-46830000D03*
%TD*%
D14*
%TO.P,R39,1*%
%TO.N,/Buttons_LEDS/MCU_LED_Betrieb*%
X156100000Y-98315000D03*
%TO.P,R39,2*%
%TO.N,Net-(D11-A)*%
X156100000Y-101240000D03*
%TD*%
D16*
%TO.P,TP1,1,1*%
%TO.N,/Motor/Drehzahl_Analog_OUT*%
X154550000Y-67620000D03*
%TD*%
D21*
%TO.P,C12,1*%
%TO.N,+5V*%
X110330000Y-51070000D03*
%TO.P,C12,2*%
%TO.N,GND*%
X110330000Y-54020000D03*
%TD*%
D26*
%TO.P,R4,1*%
%TO.N,/STM32F439ZI/Windgeschwindigkeit_MCU*%
X120802500Y-133120000D03*
%TO.P,R4,2*%
%TO.N,GND*%
X117877500Y-133120000D03*
%TD*%
D15*
%TO.P,D7,1,K*%
%TO.N,/Motor/IN0_OUT*%
X141620000Y-32082500D03*
%TO.P,D7,2,A*%
%TO.N,GND*%
X141620000Y-35382500D03*
%TD*%
D21*
%TO.P,C11,1*%
%TO.N,+3.3V*%
X120350000Y-63395000D03*
%TO.P,C11,2*%
%TO.N,GND*%
X120350000Y-66345000D03*
%TD*%
D17*
%TO.P,Endschalter_Vorne1,1,Pin_1*%
%TO.N,+24V*%
X165200000Y-27540000D03*
D18*
%TO.P,Endschalter_Vorne1,2,Pin_2*%
%TO.N,GND*%
X167740000Y-27540000D03*
%TO.P,Endschalter_Vorne1,3,Pin_3*%
%TO.N,/Endschalter/Endschalter_Vorne*%
X170280000Y-27540000D03*
%TD*%
D33*
%TO.P,C1,1*%
%TO.N,Net-(U1A-+)*%
X146980000Y-77345000D03*
%TO.P,C1,2*%
%TO.N,GND*%
X146980000Y-74395000D03*
%TD*%
D21*
%TO.P,C8,1*%
%TO.N,/Buttons_LEDS/MCU_Zurueckfahren*%
X136910000Y-86480000D03*
%TO.P,C8,2*%
%TO.N,GND*%
X136910000Y-89430000D03*
%TD*%
D11*
%TO.P,D11,1,K*%
%TO.N,GND*%
X147100000Y-99290000D03*
%TO.P,D11,2,A*%
%TO.N,Net-(D11-A)*%
X147100000Y-96490000D03*
%TD*%
D12*
%TO.P,U7,1*%
%TO.N,Net-(R19-Pad2)*%
X125790000Y-62340000D03*
%TO.P,U7,2*%
%TO.N,GND*%
X123250000Y-62340000D03*
%TO.P,U7,3*%
%TO.N,/Optokoppler/OUT1_MCU*%
X123250000Y-69960000D03*
%TO.P,U7,4*%
%TO.N,+3.3V*%
X125790000Y-69960000D03*
%TD*%
D22*
%TO.P,R5,1*%
%TO.N,/STM32F439ZI/Windrichtung_MCU*%
X125270000Y-140070000D03*
%TO.P,R5,2*%
%TO.N,GND*%
X128195000Y-140070000D03*
%TD*%
D34*
%TO.P,C6,1*%
%TO.N,/Motor/Stromsensor_MCU*%
X112375000Y-131970000D03*
%TO.P,C6,2*%
%TO.N,GND*%
X115325000Y-131970000D03*
%TD*%
D15*
%TO.P,D9,1,K*%
%TO.N,/Motor/IN2_OUT*%
X134230000Y-32072500D03*
%TO.P,D9,2,A*%
%TO.N,GND*%
X134230000Y-35372500D03*
%TD*%
D26*
%TO.P,R36,1*%
%TO.N,/Optokoppler/Ext_Relais2_OUT*%
X165805000Y-148935000D03*
%TO.P,R36,2*%
%TO.N,GND*%
X162880000Y-148935000D03*
%TD*%
D13*
%TO.P,R1,1*%
%TO.N,/STM32F439ZI/Abstandsmessung_MCU*%
X142360000Y-147022500D03*
%TO.P,R1,2*%
%TO.N,GND*%
X142360000Y-144097500D03*
%TD*%
D11*
%TO.P,D15,1,K*%
%TO.N,GND*%
X147100000Y-129730000D03*
%TO.P,D15,2,A*%
%TO.N,Net-(D15-A)*%
X147100000Y-126930000D03*
%TD*%
D17*
%TO.P,Motor_Logik1,1,Pin_1*%
%TO.N,+24V*%
X119650000Y-27540000D03*
D18*
%TO.P,Motor_Logik1,2,Pin_2*%
%TO.N,GND*%
X122190000Y-27540000D03*
%TO.P,Motor_Logik1,3,Pin_3*%
%TO.N,/Motor/OUT1_IN*%
X124730000Y-27540000D03*
%TO.P,Motor_Logik1,4,Pin_4*%
%TO.N,/Motor/OUT2_IN*%
X127270000Y-27540000D03*
%TO.P,Motor_Logik1,5,Pin_5*%
%TO.N,/Motor/OUT3_IN*%
X129810000Y-27540000D03*
%TO.P,Motor_Logik1,6,Pin_6*%
%TO.N,/Motor/IN3_OUT*%
X132350000Y-27540000D03*
%TO.P,Motor_Logik1,7,Pin_7*%
%TO.N,/Motor/IN2_OUT*%
X134890000Y-27540000D03*
%TO.P,Motor_Logik1,8,Pin_8*%
%TO.N,/Motor/IN1_OUT*%
X137430000Y-27540000D03*
%TO.P,Motor_Logik1,9,Pin_9*%
%TO.N,/Motor/IN0_OUT*%
X139970000Y-27540000D03*
%TO.P,Motor_Logik1,10,Pin_10*%
%TO.N,/Motor/Drehzahl_Analog_OUT*%
X142510000Y-27540000D03*
%TD*%
D13*
%TO.P,R29,1*%
%TO.N,+3.3V*%
X124460000Y-85472500D03*
%TO.P,R29,2*%
%TO.N,Net-(J8-Pin_1)*%
X124460000Y-82547500D03*
%TD*%
D22*
%TO.P,R25,1*%
%TO.N,Net-(J6-Pin_1)*%
X128155000Y-92340000D03*
%TO.P,R25,2*%
%TO.N,/Buttons_LEDS/MCU_Kalibrierung*%
X131080000Y-92340000D03*
%TD*%
%TO.P,R24,1*%
%TO.N,/Optokoppler/OUT3_MCU*%
X134517500Y-73360000D03*
%TO.P,R24,2*%
%TO.N,GND*%
X137442500Y-73360000D03*
%TD*%
D14*
%TO.P,R7,1*%
%TO.N,+3.3V*%
X135590000Y-146497500D03*
%TO.P,R7,2*%
%TO.N,/Sensoren_Eing\u00E4nge/RS485_RX_TX_NEG_1*%
X135590000Y-149422500D03*
%TD*%
D16*
%TO.P,TP7,1,1*%
%TO.N,/STM32F439ZI/Windgeschwindigkeit_MCU*%
X119550000Y-129510000D03*
%TD*%
D35*
%TO.P,U12,1,~{CS}*%
%TO.N,/STM32F439ZI/CS*%
X120025000Y-110725000D03*
%TO.P,U12,2,SO*%
%TO.N,/STM32F439ZI/MOSI*%
X121295000Y-110725000D03*
%TO.P,U12,3,~{WP}*%
%TO.N,GND*%
X122565000Y-110725000D03*
%TO.P,U12,4,GND*%
X123835000Y-110725000D03*
%TO.P,U12,5,SI*%
%TO.N,/STM32F439ZI/MISO*%
X123835000Y-105455000D03*
%TO.P,U12,6,SCK*%
%TO.N,/STM32F439ZI/SCK*%
X122565000Y-105455000D03*
%TO.P,U12,7,~{HOLD}*%
%TO.N,/STM32F439ZI/HOLD*%
X121295000Y-105455000D03*
%TO.P,U12,8,VDD*%
%TO.N,+3.3V*%
X120025000Y-105455000D03*
%TD*%
D16*
%TO.P,TP9,1,1*%
%TO.N,/Rx*%
X135930000Y-128340000D03*
%TD*%
D26*
%TO.P,R6,1*%
%TO.N,/Sensoren_Eing\u00E4nge/RS485_RX_TX_NEG_1*%
X133592500Y-146790000D03*
%TO.P,R6,2*%
%TO.N,/Sensoren_Eing\u00E4nge/RS485_RX_TX_POS_1*%
X130667500Y-146790000D03*
%TD*%
D11*
%TO.P,D16,1,K*%
%TO.N,GND*%
X147110000Y-122050000D03*
%TO.P,D16,2,A*%
%TO.N,Net-(D16-A)*%
X147110000Y-119250000D03*
%TD*%
D14*
%TO.P,R35,1*%
%TO.N,/Optokoppler/Ext_Relais2_MCU*%
X165420000Y-131967500D03*
%TO.P,R35,2*%
%TO.N,Net-(R35-Pad2)*%
X165420000Y-134892500D03*
%TD*%
D13*
%TO.P,R26,1*%
%TO.N,/Buttons_LEDS/MCU_LED_Trimmen*%
X154460000Y-136130000D03*
%TO.P,R26,2*%
%TO.N,Net-(D14-A)*%
X154460000Y-133205000D03*
%TD*%
D26*
%TO.P,R44,1*%
%TO.N,/Motor/Drehzahl_Analog_OUT*%
X154552500Y-71430000D03*
%TO.P,R44,2*%
%TO.N,Net-(U1A--)*%
X151627500Y-71430000D03*
%TD*%
D22*
%TO.P,R19,1*%
%TO.N,/Motor/OUT1_IN*%
X122537500Y-58910000D03*
%TO.P,R19,2*%
%TO.N,Net-(R19-Pad2)*%
X125462500Y-58910000D03*
%TD*%
D12*
%TO.P,U11,4*%
%TO.N,+24V*%
X165420000Y-145570000D03*
%TO.P,U11,3*%
%TO.N,/Optokoppler/Ext_Relais2_OUT*%
X162880000Y-145570000D03*
%TO.P,U11,2*%
%TO.N,GND*%
X162880000Y-137950000D03*
%TO.P,U11,1*%
%TO.N,Net-(R35-Pad2)*%
X165420000Y-137950000D03*
%TD*%
D26*
%TO.P,R41,1*%
%TO.N,/STM32F439ZI/Kraftmessung_MCU*%
X152652500Y-146700000D03*
%TO.P,R41,2*%
%TO.N,Net-(D19-K)*%
X149727500Y-146700000D03*
%TD*%
%TO.P,R15,1*%
%TO.N,/Optokoppler/IN2_MCU_IN*%
X131712500Y-53340000D03*
%TO.P,R15,2*%
%TO.N,Net-(R15-Pad2)*%
X128787500Y-53340000D03*
%TD*%
D29*
%TO.P,Motor_Spannungsversorgung1,1,Pin_1*%
%TO.N,Net-(Motor_Spannungsversorgung1-Pin_1)*%
X106260000Y-152540000D03*
D30*
%TO.P,Motor_Spannungsversorgung1,2,Pin_2*%
%TO.N,GND*%
X109760000Y-152540000D03*
%TD*%
D22*
%TO.P,R34,1*%
%TO.N,/Optokoppler/Ext_Relais1_OUT*%
X168477500Y-148935000D03*
%TO.P,R34,2*%
%TO.N,GND*%
X171402500Y-148935000D03*
%TD*%
D14*
%TO.P,R23,1*%
%TO.N,/Motor/OUT3_IN*%
X139780000Y-60937500D03*
%TO.P,R23,2*%
%TO.N,Net-(R23-Pad2)*%
X139780000Y-63862500D03*
%TD*%
D13*
%TO.P,R3,1*%
%TO.N,+3.3V*%
X124480000Y-97202500D03*
%TO.P,R3,2*%
%TO.N,Net-(J6-Pin_1)*%
X124480000Y-94277500D03*
%TD*%
D11*
%TO.P,D13,1,K*%
%TO.N,GND*%
X147120000Y-114550000D03*
%TO.P,D13,2,A*%
%TO.N,Net-(D13-A)*%
X147120000Y-111750000D03*
%TD*%
D23*
%TO.P,J8,1,Pin_1*%
%TO.N,Net-(J8-Pin_1)*%
X128140000Y-83530000D03*
%TO.P,J8,2,Pin_2*%
%TO.N,GND*%
X133190000Y-83530000D03*
%TD*%
D17*
%TO.P,Abstandssensor1,1,Pin_1*%
%TO.N,+24V*%
X147030000Y-153990000D03*
D18*
%TO.P,Abstandssensor1,2,Pin_2*%
%TO.N,GND*%
X144490000Y-153990000D03*
%TO.P,Abstandssensor1,3,Pin_3*%
%TO.N,/STM32F439ZI/Abstandsmessung_MCU*%
X141950000Y-153990000D03*
%TD*%
D21*
%TO.P,C2,1*%
%TO.N,/STM32F439ZI/Kraftmessung_MCU*%
X157220000Y-144615000D03*
%TO.P,C2,2*%
%TO.N,GND*%
X157220000Y-147565000D03*
%TD*%
D25*
%TO.P,D19,1,K*%
%TO.N,Net-(D19-K)*%
X149722500Y-149020000D03*
%TO.P,D19,2,A*%
%TO.N,GND*%
X153022500Y-149020000D03*
%TD*%
D24*
%TO.P,D1,1,K*%
%TO.N,/Endschalter/Endschalter_Vorne*%
X168527500Y-32550000D03*
%TO.P,D1,2,A*%
%TO.N,GND*%
X165227500Y-32550000D03*
%TD*%
D22*
%TO.P,R30,1*%
%TO.N,Net-(J8-Pin_1)*%
X128150000Y-80590000D03*
%TO.P,R30,2*%
%TO.N,/Buttons_LEDS/MCU_Vorfahren*%
X131075000Y-80590000D03*
%TD*%
D11*
%TO.P,D10,1,K*%
%TO.N,GND*%
X147110000Y-91840000D03*
%TO.P,D10,2,A*%
%TO.N,Net-(D10-A)*%
X147110000Y-89040000D03*
%TD*%
D12*
%TO.P,U3,4*%
%TO.N,+24V*%
X141160000Y-42190000D03*
%TO.P,U3,3*%
%TO.N,/Motor/IN0_OUT*%
X143700000Y-42190000D03*
%TO.P,U3,2*%
%TO.N,GND*%
X143700000Y-49810000D03*
%TO.P,U3,1*%
%TO.N,Net-(R11-Pad2)*%
X141160000Y-49810000D03*
%TD*%
D25*
%TO.P,D20,1,K*%
%TO.N,/STM32F439ZI/Windgeschwindigkeit_MCU*%
X119030000Y-144010000D03*
%TO.P,D20,2,A*%
%TO.N,GND*%
X122330000Y-144010000D03*
%TD*%
D14*
%TO.P,R28,1*%
%TO.N,/Buttons_LEDS/MCU_LED_Kalibrierung*%
X156100000Y-112367500D03*
%TO.P,R28,2*%
%TO.N,Net-(D16-A)*%
X156100000Y-115292500D03*
%TD*%
D25*
%TO.P,D2,1,K*%
%TO.N,/Endschalter/Endschalter_Hinten*%
X157672500Y-32550000D03*
%TO.P,D2,2,A*%
%TO.N,GND*%
X160972500Y-32550000D03*
%TD*%
D26*
%TO.P,R14,1*%
%TO.N,/Motor/IN1_OUT*%
X138092500Y-38790000D03*
%TO.P,R14,2*%
%TO.N,GND*%
X135167500Y-38790000D03*
%TD*%
D34*
%TO.P,C5,1*%
%TO.N,/STM32F439ZI/Windrichtung_MCU*%
X125270000Y-142410000D03*
%TO.P,C5,2*%
%TO.N,GND*%
X128220000Y-142410000D03*
%TD*%
D13*
%TO.P,R38,1*%
%TO.N,/Buttons_LEDS/MCU_LED_Manuell*%
X156100000Y-105910000D03*
%TO.P,R38,2*%
%TO.N,Net-(D12-A)*%
X156100000Y-102985000D03*
%TD*%
D28*
%TO.P,K1,1*%
%TO.N,/Endschalter/Endschalter_Hinten*%
X153000000Y-35150000D03*
%TO.P,K1,3*%
%TO.N,/Optokoppler/IN1_MCU_IN*%
X153000000Y-40230000D03*
%TO.P,K1,4*%
%TO.N,/STM32F439ZI/IN1_MCU*%
X153000000Y-42770000D03*
%TO.P,K1,5*%
%TO.N,/STM32F439ZI/Endschalter_Hinten_MCU*%
X153000000Y-45310000D03*
%TO.P,K1,8*%
%TO.N,unconnected-(K1-Pad8)*%
X161000000Y-45310000D03*
%TO.P,K1,9*%
%TO.N,unconnected-(K1-Pad9)*%
X161000000Y-42770000D03*
%TO.P,K1,10*%
%TO.N,unconnected-(K1-Pad10)*%
X161000000Y-40230000D03*
%TO.P,K1,12*%
%TO.N,GND*%
X161000000Y-35150000D03*
%TD*%
D26*
%TO.P,R17,1*%
%TO.N,/Optokoppler/IN1_MCU_IN*%
X138062500Y-53340000D03*
%TO.P,R17,2*%
%TO.N,Net-(R17-Pad2)*%
X135137500Y-53340000D03*
%TD*%
D36*
%TO.P,U2,1,RO*%
%TO.N,/Rx*%
X134115000Y-139425000D03*
%TO.P,U2,2,~{RE}*%
%TO.N,/Enable*%
X132845000Y-139425000D03*
%TO.P,U2,3,DE*%
X131575000Y-139425000D03*
%TO.P,U2,4,DI*%
%TO.N,/Tx*%
X130305000Y-139425000D03*
%TO.P,U2,5,GND*%
%TO.N,GND*%
X130305000Y-144375000D03*
%TO.P,U2,6,A*%
%TO.N,/Sensoren_Eing\u00E4nge/RS485_RX_TX_POS_1*%
X131575000Y-144375000D03*
%TO.P,U2,7,B*%
%TO.N,/Sensoren_Eing\u00E4nge/RS485_RX_TX_NEG_1*%
X132845000Y-144375000D03*
%TO.P,U2,8,VCC*%
%TO.N,+3.3V*%
X134115000Y-144375000D03*
%TD*%
D37*
%TO.P,C4,1*%
%TO.N,/STM32F439ZI/Windgeschwindigkeit_MCU*%
X120795000Y-135450000D03*
%TO.P,C4,2*%
%TO.N,GND*%
X117845000Y-135450000D03*
%TD*%
D13*
%TO.P,R31,1*%
%TO.N,+3.3V*%
X124470000Y-91352500D03*
%TO.P,R31,2*%
%TO.N,Net-(J7-Pin_1)*%
X124470000Y-88427500D03*
%TD*%
D26*
%TO.P,R9,1*%
%TO.N,Net-(U1A--)*%
X149922500Y-71430000D03*
%TO.P,R9,2*%
%TO.N,GND*%
X146997500Y-71430000D03*
%TD*%
D12*
%TO.P,U8,1*%
%TO.N,Net-(R21-Pad2)*%
X131420000Y-62340000D03*
%TO.P,U8,2*%
%TO.N,GND*%
X128880000Y-62340000D03*
%TO.P,U8,3*%
%TO.N,/Optokoppler/OUT2_MCU*%
X128880000Y-69960000D03*
%TO.P,U8,4*%
%TO.N,+3.3V*%
X131420000Y-69960000D03*
%TD*%
D21*
%TO.P,C10,1*%
%TO.N,/STM32F439ZI/Opt_Temperaturmessung*%
X168280000Y-67155000D03*
%TO.P,C10,2*%
%TO.N,GND*%
X168280000Y-70105000D03*
%TD*%
D38*
%TO.P,U1,8,V+*%
%TO.N,+3.3V*%
X153115000Y-80237500D03*
%TO.P,U1,7*%
%TO.N,N/C*%
X151845000Y-80237500D03*
%TO.P,U1,6*%
X150575000Y-80237500D03*
%TO.P,U1,5*%
X149305000Y-80237500D03*
%TO.P,U1,4,V-*%
%TO.N,GND*%
X149305000Y-74522500D03*
%TO.P,U1,3,+*%
%TO.N,Net-(U1A-+)*%
X150575000Y-74522500D03*
%TO.P,U1,2,-*%
%TO.N,Net-(U1A--)*%
X151845000Y-74522500D03*
%TO.P,U1,1*%
%TO.N,/Motor/Drehzahl_Analog_OUT*%
X153115000Y-74522500D03*
%TD*%
D14*
%TO.P,R43,1*%
%TO.N,/STM32F439ZI/Opt_Temperaturmessung*%
X165970000Y-67177500D03*
%TO.P,R43,2*%
%TO.N,GND*%
X165970000Y-70102500D03*
%TD*%
D16*
%TO.P,TP8,1,1*%
%TO.N,/STM32F439ZI/Windrichtung_MCU*%
X125110000Y-135310000D03*
%TD*%
D33*
%TO.P,C3,1*%
%TO.N,/STM32F439ZI/Abstandsmessung_MCU*%
X144690000Y-147017500D03*
%TO.P,C3,2*%
%TO.N,GND*%
X144690000Y-144067500D03*
%TD*%
D39*
%TO.P,CN7,1,Pin_1*%
%TO.N,/STM32F439ZI/Endschalter_Vorne_MCU*%
X163000000Y-57020000D03*
D40*
%TO.P,CN7,2,Pin_2*%
%TO.N,/STM32F439ZI/IN1_MCU*%
X160460000Y-57020000D03*
%TO.P,CN7,3,Pin_3*%
%TO.N,/STM32F439ZI/IN0_MCU*%
X163000000Y-59560000D03*
%TO.P,CN7,4,Pin_4*%
%TO.N,/STM32F439ZI/Endschalter_Hinten_MCU*%
X160460000Y-59560000D03*
%TO.P,CN7,5,Pin_5*%
%TO.N,unconnected-(CN7-Pin_5-Pad5)*%
X163000000Y-62100000D03*
%TO.P,CN7,6,Pin_6*%
%TO.N,unconnected-(CN7-Pin_6-Pad6)*%
X160460000Y-62100000D03*
%TO.P,CN7,7,Pin_7*%
%TO.N,unconnected-(CN7-Pin_7-Pad7)*%
X163000000Y-64640000D03*
%TO.P,CN7,8,Pin_8*%
%TO.N,unconnected-(CN7-Pin_8-Pad8)*%
X160460000Y-64640000D03*
%TO.P,CN7,9,Pin_9*%
%TO.N,/STM32F439ZI/Opt_Temperaturmessung*%
X163000000Y-67180000D03*
%TO.P,CN7,10,Pin_10*%
%TO.N,unconnected-(CN7-Pin_10-Pad10)*%
X160460000Y-67180000D03*
%TO.P,CN7,11,Pin_11*%
%TO.N,/STM32F439ZI/Opt_Analog_IN*%
X163000000Y-69720000D03*
%TO.P,CN7,12,Pin_12*%
%TO.N,unconnected-(CN7-Pin_12-Pad12)*%
X160460000Y-69720000D03*
%TO.P,CN7,13,Pin_13*%
%TO.N,unconnected-(CN7-Pin_13-Pad13)*%
X163000000Y-72260000D03*
%TO.P,CN7,14,Pin_14*%
%TO.N,unconnected-(CN7-Pin_14-Pad14)*%
X160460000Y-72260000D03*
%TO.P,CN7,15,Pin_15*%
%TO.N,unconnected-(CN7-Pin_15-Pad15)*%
X163000000Y-74800000D03*
%TO.P,CN7,16,Pin_16*%
%TO.N,unconnected-(CN7-Pin_16-Pad16)*%
X160460000Y-74800000D03*
%TO.P,CN7,17,Pin_17*%
%TO.N,unconnected-(CN7-Pin_17-Pad17)*%
X163000000Y-77340000D03*
%TO.P,CN7,18,Pin_18*%
%TO.N,/STM32F439ZI/Drehzahl_Analog_OUT*%
X160460000Y-77340000D03*
%TO.P,CN7,19,Pin_19*%
%TO.N,unconnected-(CN7-Pin_19-Pad19)*%
X163000000Y-79880000D03*
%TO.P,CN7,20,Pin_20*%
%TO.N,/Buttons_LEDS/MCU_Vorfahren*%
X160460000Y-79880000D03*
%TD*%
D39*
%TO.P,CN10,1,Pin_1*%
%TO.N,unconnected-(CN10-Pin_1-Pad1)*%
X163010000Y-83750000D03*
D40*
%TO.P,CN10,2,Pin_2*%
%TO.N,unconnected-(CN10-Pin_2-Pad2)*%
X160470000Y-83750000D03*
%TO.P,CN10,3,Pin_3*%
%TO.N,unconnected-(CN10-Pin_3-Pad3)*%
X163010000Y-86290000D03*
%TO.P,CN10,4,Pin_4*%
%TO.N,unconnected-(CN10-Pin_4-Pad4)*%
X160470000Y-86290000D03*
%TO.P,CN10,5,Pin_5*%
%TO.N,unconnected-(CN10-Pin_5-Pad5)*%
X163010000Y-88830000D03*
%TO.P,CN10,6,Pin_6*%
%TO.N,unconnected-(CN10-Pin_6-Pad6)*%
X160470000Y-88830000D03*
%TO.P,CN10,7,Pin_7*%
%TO.N,unconnected-(CN10-Pin_7-Pad7)*%
X163010000Y-91370000D03*
%TO.P,CN10,8,Pin_8*%
%TO.N,/Buttons_LEDS/MCU_Zurueckfahren*%
X160470000Y-91370000D03*
%TO.P,CN10,9,Pin_9*%
%TO.N,unconnected-(CN10-Pin_9-Pad9)*%
X163010000Y-93910000D03*
%TO.P,CN10,10,Pin_10*%
%TO.N,/Buttons_LEDS/MCU_Kalibrierung*%
X160470000Y-93910000D03*
%TO.P,CN10,11,Pin_11*%
%TO.N,unconnected-(CN10-Pin_11-Pad11)*%
X163010000Y-96450000D03*
%TO.P,CN10,12,Pin_12*%
%TO.N,/Buttons_LEDS/MCU_Switch*%
X160470000Y-96450000D03*
%TO.P,CN10,13,Pin_13*%
%TO.N,unconnected-(CN10-Pin_13-Pad13)*%
X163010000Y-98990000D03*
%TO.P,CN10,14,Pin_14*%
%TO.N,/Buttons_LEDS/MCU_LED_PWR*%
X160470000Y-98990000D03*
%TO.P,CN10,15,Pin_15*%
%TO.N,unconnected-(CN10-Pin_15-Pad15)*%
X163010000Y-101530000D03*
%TO.P,CN10,16,Pin_16*%
%TO.N,/Buttons_LEDS/MCU_LED_Betrieb*%
X160470000Y-101530000D03*
%TO.P,CN10,17,Pin_17*%
%TO.N,unconnected-(CN10-Pin_17-Pad17)*%
X163010000Y-104070000D03*
%TO.P,CN10,18,Pin_18*%
%TO.N,unconnected-(CN10-Pin_18-Pad18)*%
X160470000Y-104070000D03*
%TO.P,CN10,19,Pin_19*%
%TO.N,unconnected-(CN10-Pin_19-Pad19)*%
X163010000Y-106610000D03*
%TO.P,CN10,20,Pin_20*%
%TO.N,/Buttons_LEDS/MCU_LED_Manuell*%
X160470000Y-106610000D03*
%TO.P,CN10,21,Pin_21*%
%TO.N,unconnected-(CN10-Pin_21-Pad21)*%
X163010000Y-109150000D03*
%TO.P,CN10,22,Pin_22*%
%TO.N,/Buttons_LEDS/MCU_LED_Stoerung*%
X160470000Y-109150000D03*
%TO.P,CN10,23,Pin_23*%
%TO.N,unconnected-(CN10-Pin_23-Pad23)*%
X163010000Y-111690000D03*
%TO.P,CN10,24,Pin_24*%
%TO.N,/Buttons_LEDS/MCU_LED_Kalibrierung*%
X160470000Y-111690000D03*
%TO.P,CN10,25,Pin_25*%
%TO.N,unconnected-(CN10-Pin_25-Pad25)*%
X163010000Y-114230000D03*
%TO.P,CN10,26,Pin_26*%
%TO.N,unconnected-(CN10-Pin_26-Pad26)*%
X160470000Y-114230000D03*
%TO.P,CN10,27,Pin_27*%
%TO.N,unconnected-(CN10-Pin_27-Pad27)*%
X163010000Y-116770000D03*
%TO.P,CN10,28,Pin_28*%
%TO.N,unconnected-(CN10-Pin_28-Pad28)*%
X160470000Y-116770000D03*
%TO.P,CN10,29,Pin_29*%
%TO.N,/Optokoppler/Ext_Relais1_MCU*%
X163010000Y-119310000D03*
%TO.P,CN10,30,Pin_30*%
%TO.N,/STM32F439ZI/Abstandsmessung_MCU*%
X160470000Y-119310000D03*
%TO.P,CN10,31,Pin_31*%
%TO.N,/Optokoppler/Ext_Relais2_MCU*%
X163010000Y-121850000D03*
%TO.P,CN10,32,Pin_32*%
%TO.N,/STM32F439ZI/Kraftmessung_MCU*%
X160470000Y-121850000D03*
%TO.P,CN10,33,Pin_33*%
%TO.N,/Buttons_LEDS/MCU_LED_Trimmen*%
X163010000Y-124390000D03*
%TO.P,CN10,34,Pin_34*%
%TO.N,/Buttons_LEDS/MCU_LED_Rollen*%
X160470000Y-124390000D03*
%TD*%
D39*
%TO.P,CN8,1,Pin_1*%
%TO.N,unconnected-(CN8-Pin_1-Pad1)*%
X117380000Y-65960000D03*
D40*
%TO.P,CN8,2,Pin_2*%
%TO.N,unconnected-(CN8-Pin_2-Pad2)*%
X114840000Y-65960000D03*
%TO.P,CN8,3,Pin_3*%
%TO.N,/Optokoppler/OUT1_MCU*%
X117380000Y-68500000D03*
%TO.P,CN8,4,Pin_4*%
%TO.N,unconnected-(CN8-Pin_4-Pad4)*%
X114840000Y-68500000D03*
%TO.P,CN8,5,Pin_5*%
%TO.N,/Optokoppler/OUT2_MCU*%
X117380000Y-71040000D03*
%TO.P,CN8,6,Pin_6*%
%TO.N,unconnected-(CN8-Pin_6-Pad6)*%
X114840000Y-71040000D03*
%TO.P,CN8,7,Pin_7*%
%TO.N,/Optokoppler/OUT3_MCU*%
X117380000Y-73580000D03*
%TO.P,CN8,8,Pin_8*%
%TO.N,unconnected-(CN8-Pin_8-Pad8)*%
X114840000Y-73580000D03*
%TO.P,CN8,9,Pin_9*%
%TO.N,/Optokoppler/IN3_MCU_IN*%
X117380000Y-76120000D03*
%TO.P,CN8,10,Pin_10*%
%TO.N,+5V*%
X114840000Y-76120000D03*
%TO.P,CN8,11,Pin_11*%
%TO.N,/Optokoppler/IN2_MCU_IN*%
X117380000Y-78660000D03*
%TO.P,CN8,12,Pin_12*%
%TO.N,GND*%
X114840000Y-78660000D03*
%TO.P,CN8,13,Pin_13*%
%TO.N,unconnected-(CN8-Pin_13-Pad13)*%
X117380000Y-81200000D03*
%TO.P,CN8,14,Pin_14*%
%TO.N,unconnected-(CN8-Pin_14-Pad14)*%
X114840000Y-81200000D03*
%TO.P,CN8,15,Pin_15*%
%TO.N,unconnected-(CN8-Pin_15-Pad15)*%
X117380000Y-83740000D03*
%TO.P,CN8,16,Pin_16*%
%TO.N,unconnected-(CN8-Pin_16-Pad16)*%
X114840000Y-83740000D03*
%TD*%
D39*
%TO.P,CN9,1,Pin_1*%
%TO.N,unconnected-(CN9-Pin_1-Pad1)*%
X117380000Y-88830000D03*
D40*
%TO.P,CN9,2,Pin_2*%
%TO.N,/Rx*%
X114840000Y-88830000D03*
%TO.P,CN9,3,Pin_3*%
%TO.N,/Enable*%
X117380000Y-91370000D03*
%TO.P,CN9,4,Pin_4*%
%TO.N,unconnected-(CN9-Pin_4-Pad4)*%
X114840000Y-91370000D03*
%TO.P,CN9,5,Pin_5*%
%TO.N,/Tx*%
X117380000Y-93910000D03*
%TO.P,CN9,6,Pin_6*%
%TO.N,unconnected-(CN9-Pin_6-Pad6)*%
X114840000Y-93910000D03*
%TO.P,CN9,7,Pin_7*%
%TO.N,unconnected-(CN9-Pin_7-Pad7)*%
X117380000Y-96450000D03*
%TO.P,CN9,8,Pin_8*%
%TO.N,unconnected-(CN9-Pin_8-Pad8)*%
X114840000Y-96450000D03*
%TO.P,CN9,9,Pin_9*%
%TO.N,/STM32F439ZI/HOLD*%
X117380000Y-98990000D03*
%TO.P,CN9,10,Pin_10*%
%TO.N,unconnected-(CN9-Pin_10-Pad10)*%
X114840000Y-98990000D03*
%TO.P,CN9,11,Pin_11*%
%TO.N,unconnected-(CN9-Pin_11-Pad11)*%
X117380000Y-101530000D03*
%TO.P,CN9,12,Pin_12*%
%TO.N,/Motor/Stromsensor_MCU*%
X114840000Y-101530000D03*
%TO.P,CN9,13,Pin_13*%
%TO.N,/STM32F439ZI/SCK*%
X117380000Y-104070000D03*
%TO.P,CN9,14,Pin_14*%
%TO.N,unconnected-(CN9-Pin_14-Pad14)*%
X114840000Y-104070000D03*
%TO.P,CN9,15,Pin_15*%
%TO.N,unconnected-(CN9-Pin_15-Pad15)*%
X117380000Y-106610000D03*
%TO.P,CN9,16,Pin_16*%
%TO.N,unconnected-(CN9-Pin_16-Pad16)*%
X114840000Y-106610000D03*
%TO.P,CN9,17,Pin_17*%
%TO.N,/STM32F439ZI/MISO*%
X117380000Y-109150000D03*
%TO.P,CN9,18,Pin_18*%
%TO.N,unconnected-(CN9-Pin_18-Pad18)*%
X114840000Y-109150000D03*
%TO.P,CN9,19,Pin_19*%
%TO.N,/STM32F439ZI/MOSI*%
X117380000Y-111690000D03*
%TO.P,CN9,20,Pin_20*%
%TO.N,unconnected-(CN9-Pin_20-Pad20)*%
X114840000Y-111690000D03*
%TO.P,CN9,21,Pin_21*%
%TO.N,/STM32F439ZI/CS*%
X117380000Y-114230000D03*
%TO.P,CN9,22,Pin_22*%
%TO.N,unconnected-(CN9-Pin_22-Pad22)*%
X114840000Y-114230000D03*
%TO.P,CN9,23,Pin_23*%
%TO.N,unconnected-(CN9-Pin_23-Pad23)*%
X117380000Y-116770000D03*
%TO.P,CN9,24,Pin_24*%
%TO.N,unconnected-(CN9-Pin_24-Pad24)*%
X114840000Y-116770000D03*
%TO.P,CN9,25,Pin_25*%
%TO.N,/STM32F439ZI/Windrichtung_MCU*%
X117380000Y-119310000D03*
%TO.P,CN9,26,Pin_26*%
%TO.N,unconnected-(CN9-Pin_26-Pad26)*%
X114840000Y-119310000D03*
%TO.P,CN9,27,Pin_27*%
%TO.N,/STM32F439ZI/Windgeschwindigkeit_MCU*%
X117380000Y-121850000D03*
%TO.P,CN9,28,Pin_28*%
%TO.N,unconnected-(CN9-Pin_28-Pad28)*%
X114840000Y-121850000D03*
%TO.P,CN9,29,Pin_29*%
%TO.N,unconnected-(CN9-Pin_29-Pad29)*%
X117380000Y-124390000D03*
%TO.P,CN9,30,Pin_30*%
%TO.N,unconnected-(CN9-Pin_30-Pad30)*%
X114840000Y-124390000D03*
%TD*%
D41*
%TO.N,+24V*%
X116360000Y-46040000D03*
X124730000Y-46040000D03*
X116460000Y-138160000D03*
X109900000Y-134940000D03*
%TO.N,GND*%
X168480000Y-135510000D03*
X147110000Y-93740000D03*
X147120000Y-116490000D03*
X147100000Y-139360000D03*
X133450000Y-53030000D03*
X111870000Y-78660000D03*
X128200000Y-36920000D03*
X120650000Y-61400000D03*
X170630000Y-72390000D03*
X161140000Y-148930000D03*
X155980000Y-149320000D03*
X147100000Y-108640000D03*
X132880000Y-73380000D03*
X173080000Y-148930000D03*
X146280000Y-50760000D03*
X143510000Y-142242500D03*
X147120000Y-124380000D03*
X135830000Y-36830000D03*
X139220000Y-73360000D03*
X126597500Y-72700000D03*
X138870000Y-95270000D03*
X162960000Y-32540000D03*
X135190000Y-60050000D03*
X110330000Y-55700000D03*
X147100000Y-132040000D03*
X172560000Y-32910000D03*
X139780000Y-53030000D03*
X113230000Y-142580000D03*
X162880000Y-135540000D03*
X140560000Y-36840000D03*
X120350000Y-68180000D03*
X145370000Y-72830000D03*
X122030353Y-36920353D03*
X138890000Y-89430000D03*
X126960000Y-52980000D03*
X119580000Y-37000000D03*
X128640000Y-144540000D03*
X115970000Y-134170000D03*
X134940000Y-102770000D03*
X122137500Y-146550000D03*
X138930000Y-83530000D03*
X147100000Y-101200000D03*
X125140000Y-36860000D03*
X128400000Y-60000000D03*
X123200000Y-112740000D03*
%TO.N,/Buttons_LEDS/MCU_LED_Trimmen*%
X159750000Y-133510000D03*
X156785500Y-133510000D03*
%TO.N,/Buttons_LEDS/MCU_LED_Rollen*%
X159720000Y-130650000D03*
X156575000Y-129855000D03*
%TO.N,/Optokoppler/IN1_MCU_IN*%
X146290000Y-55089503D03*
X148910000Y-55089503D03*
%TO.N,/Optokoppler/IN0_MCU_IN*%
X148910000Y-53390000D03*
X146290000Y-53390000D03*
%TO.N,+3.3V*%
X141090000Y-70920000D03*
X124440000Y-99820000D03*
X120030000Y-103430000D03*
X142530000Y-75150000D03*
%TD*%
D42*
%TO.N,+24V*%
X159830000Y-150260000D02*
X159830000Y-145970000D01*
X110310000Y-37480000D02*
X115060000Y-32730000D01*
X171020000Y-145570000D02*
X169550000Y-144100000D01*
X115060000Y-32730000D02*
X115060000Y-28480000D01*
X116460000Y-152740000D02*
X119970000Y-156250000D01*
X165420000Y-145000000D02*
X164520000Y-144100000D01*
X156110000Y-153980000D02*
X159830000Y-150260000D01*
X159830000Y-145970000D02*
X161700000Y-144100000D01*
D43*
X107673000Y-40117000D02*
X107673000Y-46830000D01*
D42*
X109900000Y-134940000D02*
X107693000Y-134940000D01*
X131710000Y-46040000D02*
X135550000Y-42200000D01*
X165200000Y-27540000D02*
X162920000Y-25260000D01*
X161700000Y-144100000D02*
X164520000Y-144100000D01*
X119970000Y-156250000D02*
X135680000Y-156250000D01*
X153850000Y-156250000D02*
X156110000Y-153990000D01*
X109690000Y-37480000D02*
X111510000Y-37480000D01*
X156110000Y-153990000D02*
X156110000Y-153980000D01*
X115060000Y-28480000D02*
X116000000Y-27540000D01*
X131710000Y-46040000D02*
X137310000Y-46040000D01*
X152230000Y-25260000D02*
X154520000Y-27550000D01*
X119650000Y-27540000D02*
X116000000Y-27540000D01*
X135680000Y-156250000D02*
X137940000Y-153990000D01*
X126110000Y-46040000D02*
X131710000Y-46040000D01*
X118280000Y-25260000D02*
X152230000Y-25260000D01*
X144770000Y-156250000D02*
X147030000Y-153990000D01*
D43*
X106115000Y-138775000D02*
X106890000Y-138000000D01*
D42*
X116460000Y-138160000D02*
X116460000Y-152740000D01*
X116360000Y-42330000D02*
X116360000Y-46040000D01*
X111510000Y-37480000D02*
X116360000Y-42330000D01*
D43*
X109690000Y-38100000D02*
X107673000Y-40117000D01*
D42*
X116000000Y-27540000D02*
X118280000Y-25260000D01*
X107693000Y-134940000D02*
X107673000Y-134920000D01*
D43*
X107673000Y-134920000D02*
X107673000Y-46830000D01*
D42*
X126110000Y-46040000D02*
X129950000Y-42200000D01*
X137310000Y-46040000D02*
X141160000Y-42190000D01*
X162920000Y-25260000D02*
X152230000Y-25260000D01*
X124350000Y-45660000D02*
X124350000Y-42200000D01*
X144770000Y-156250000D02*
X153850000Y-156250000D01*
X124730000Y-46040000D02*
X126110000Y-46040000D01*
X109690000Y-37480000D02*
X110310000Y-37480000D01*
X124730000Y-46040000D02*
X124350000Y-45660000D01*
X169550000Y-144100000D02*
X164520000Y-144100000D01*
D43*
X107673000Y-137217000D02*
X107673000Y-134920000D01*
X106115000Y-138775000D02*
X107673000Y-137217000D01*
D42*
X165420000Y-145570000D02*
X165420000Y-145000000D01*
D43*
X109690000Y-37480000D02*
X109690000Y-38100000D01*
D42*
X135680000Y-156250000D02*
X144770000Y-156250000D01*
%TO.N,GND*%
X147100000Y-108640000D02*
X147100000Y-106780000D01*
X134940000Y-102770000D02*
X136880000Y-102770000D01*
X145260000Y-153220000D02*
X145260000Y-149040000D01*
X147100000Y-101200000D02*
X147100000Y-99290000D01*
X138090000Y-50780000D02*
X139780000Y-52470000D01*
X146997500Y-71430000D02*
X146770000Y-71430000D01*
X146980000Y-74395000D02*
X149177500Y-74395000D01*
X124950000Y-72700000D02*
X126597500Y-72700000D01*
X110330000Y-54020000D02*
X110330000Y-55700000D01*
X122030353Y-35639647D02*
X122300000Y-35370000D01*
X135830000Y-38127500D02*
X135167500Y-38790000D01*
X168480000Y-137950000D02*
X168480000Y-135510000D01*
X120650000Y-61400000D02*
X122310000Y-61400000D01*
X146980000Y-74395000D02*
X146935000Y-74395000D01*
X121930000Y-146757500D02*
X122137500Y-146550000D01*
X165217500Y-32540000D02*
X165227500Y-32550000D01*
X160982500Y-32540000D02*
X160972500Y-32550000D01*
X134372500Y-35372500D02*
X135830000Y-36830000D01*
X121940000Y-149010000D02*
X121930000Y-149000000D01*
X140560000Y-36840000D02*
X140560000Y-36442500D01*
X136930000Y-95270000D02*
X136925000Y-95265000D01*
X145330000Y-49810000D02*
X143700000Y-49810000D01*
X137280000Y-35380000D02*
X135830000Y-36830000D01*
X162960000Y-32540000D02*
X162960000Y-33190000D01*
X119580000Y-37000000D02*
X119580000Y-35380000D01*
X128640000Y-144540000D02*
X130140000Y-144540000D01*
X136920000Y-95260000D02*
X136925000Y-95265000D01*
X136895000Y-83530000D02*
X136900000Y-83535000D01*
X146770000Y-71430000D02*
X145370000Y-72830000D01*
X136905000Y-83530000D02*
X136900000Y-83535000D01*
X114130000Y-58750000D02*
X118000000Y-58750000D01*
X126890000Y-52910000D02*
X126960000Y-52980000D01*
X128220000Y-140095000D02*
X128195000Y-140070000D01*
X136880000Y-102770000D02*
X136885000Y-102765000D01*
X122137500Y-146550000D02*
X122330000Y-146357500D01*
X149177500Y-74395000D02*
X149305000Y-74522500D01*
X117230000Y-135450000D02*
X117845000Y-135450000D01*
X114130000Y-58750000D02*
X114130000Y-55600000D01*
X125140000Y-37615000D02*
X123965000Y-38790000D01*
X165970000Y-70102500D02*
X168277500Y-70102500D01*
X147100000Y-132040000D02*
X147100000Y-129730000D01*
X135830000Y-36830000D02*
X135830000Y-38127500D01*
X128640000Y-144540000D02*
X128640000Y-146477500D01*
X147120000Y-116490000D02*
X147120000Y-114550000D01*
X111070000Y-142580000D02*
X111065000Y-142585000D01*
X134530000Y-60710000D02*
X135190000Y-60050000D01*
X113230000Y-142580000D02*
X111070000Y-142580000D01*
X122310000Y-61400000D02*
X123250000Y-62340000D01*
X161140000Y-148930000D02*
X162875000Y-148930000D01*
X128640000Y-146477500D02*
X128660000Y-146497500D01*
X168277500Y-70102500D02*
X168280000Y-70105000D01*
X157220000Y-148080000D02*
X155980000Y-149320000D01*
X139780000Y-52470000D02*
X139780000Y-53030000D01*
X131232500Y-73370000D02*
X132870000Y-73370000D01*
X121930000Y-149000000D02*
X121930000Y-146757500D01*
X122137500Y-146550000D02*
X121915000Y-146772500D01*
X142360000Y-143392500D02*
X143510000Y-142242500D01*
X144490000Y-153990000D02*
X145260000Y-153220000D01*
X162875000Y-148930000D02*
X162880000Y-148935000D01*
X140560000Y-36840000D02*
X140560000Y-38562500D01*
X128640000Y-144540000D02*
X128640000Y-142830000D01*
X123200000Y-111360000D02*
X122565000Y-110725000D01*
X153570000Y-149567500D02*
X153570000Y-153980000D01*
X114840000Y-78660000D02*
X111870000Y-78660000D01*
X123835000Y-110725000D02*
X123200000Y-111360000D01*
X114130000Y-61400000D02*
X114130000Y-58750000D01*
X168280000Y-70105000D02*
X170365000Y-70105000D01*
X162880000Y-137950000D02*
X162880000Y-135540000D01*
X130140000Y-144540000D02*
X130305000Y-144375000D01*
X147110000Y-93740000D02*
X147110000Y-91840000D01*
X139220000Y-73360000D02*
X137442500Y-73360000D01*
X146280000Y-50760000D02*
X145330000Y-49810000D01*
X154880000Y-147532500D02*
X154880000Y-148220000D01*
X126890000Y-49820000D02*
X126890000Y-52910000D01*
X128200000Y-37425000D02*
X129565000Y-38790000D01*
X132490000Y-52070000D02*
X132490000Y-49820000D01*
X147100000Y-139360000D02*
X147100000Y-137310000D01*
X128220000Y-142410000D02*
X128220000Y-140095000D01*
X172560000Y-32910000D02*
X172560000Y-35130000D01*
X122330000Y-146357500D02*
X122330000Y-144010000D01*
X128880000Y-62340000D02*
X128880000Y-60480000D01*
X136890000Y-89410000D02*
X136910000Y-89430000D01*
X153022500Y-149020000D02*
X153570000Y-149567500D01*
X120350000Y-68180000D02*
X120350000Y-66345000D01*
X138930000Y-83530000D02*
X136905000Y-83530000D01*
X173080000Y-148930000D02*
X171407500Y-148930000D01*
X129570000Y-35550000D02*
X128200000Y-36920000D01*
X120650000Y-61400000D02*
X118000000Y-58750000D01*
X117020000Y-133120000D02*
X117877500Y-133120000D01*
X129570000Y-35382500D02*
X129570000Y-35550000D01*
X154880000Y-148220000D02*
X155980000Y-149320000D01*
X115970000Y-134170000D02*
X115970000Y-134190000D01*
X123200000Y-112740000D02*
X123200000Y-111360000D01*
X162960000Y-32540000D02*
X160982500Y-32540000D01*
X138090000Y-49820000D02*
X138090000Y-50780000D01*
X133450000Y-53030000D02*
X132490000Y-52070000D01*
X142360000Y-144097500D02*
X142360000Y-143392500D01*
X132870000Y-73370000D02*
X132880000Y-73380000D01*
X170365000Y-70105000D02*
X170630000Y-70370000D01*
X115970000Y-134190000D02*
X117230000Y-135450000D01*
X170630000Y-72390000D02*
X170630000Y-70370000D01*
X128640000Y-142830000D02*
X128220000Y-142410000D01*
X157220000Y-147565000D02*
X157220000Y-148080000D01*
X146935000Y-74395000D02*
X145370000Y-72830000D01*
X134230000Y-35372500D02*
X134372500Y-35372500D01*
X128880000Y-60480000D02*
X128400000Y-60000000D01*
X145260000Y-149040000D02*
X145250000Y-149030000D01*
X172560000Y-35130000D02*
X172550000Y-35140000D01*
X171407500Y-148930000D02*
X171402500Y-148935000D01*
X115970000Y-134170000D02*
X115970000Y-132615000D01*
X144690000Y-144067500D02*
X144690000Y-143422500D01*
X162960000Y-32540000D02*
X165217500Y-32540000D01*
X144690000Y-143422500D02*
X143510000Y-142242500D01*
X133190000Y-83530000D02*
X136895000Y-83530000D01*
X147120000Y-124380000D02*
X147120000Y-122060000D01*
X133200000Y-89410000D02*
X136890000Y-89410000D01*
X147120000Y-122060000D02*
X147110000Y-122050000D01*
X115970000Y-134170000D02*
X117020000Y-133120000D01*
X133205000Y-95260000D02*
X136920000Y-95260000D01*
X138890000Y-89430000D02*
X136910000Y-89430000D01*
X115970000Y-132615000D02*
X115325000Y-131970000D01*
X125140000Y-36860000D02*
X125140000Y-35380000D01*
X137430000Y-35380000D02*
X137280000Y-35380000D01*
X134530000Y-62360000D02*
X134530000Y-60710000D01*
X170630000Y-72390000D02*
X168970000Y-72390000D01*
X140560000Y-38562500D02*
X140777500Y-38780000D01*
X140560000Y-36442500D02*
X141620000Y-35382500D01*
X122030353Y-36920353D02*
X122030353Y-35639647D01*
X162960000Y-33190000D02*
X161000000Y-35150000D01*
X138870000Y-95270000D02*
X136930000Y-95270000D01*
X125140000Y-36860000D02*
X125140000Y-37615000D01*
X128200000Y-36920000D02*
X128200000Y-37425000D01*
%TO.N,/STM32F439ZI/Abstandsmessung_MCU*%
X142360000Y-147022500D02*
X144685000Y-147022500D01*
X141950000Y-153990000D02*
X141950000Y-149030000D01*
X157860000Y-121920000D02*
X160470000Y-119310000D01*
X151630000Y-138230000D02*
X156190000Y-138230000D01*
X144685000Y-147022500D02*
X144690000Y-147017500D01*
X157860000Y-136560000D02*
X157860000Y-121920000D01*
X150800000Y-142220000D02*
X150870000Y-142150000D01*
X141950000Y-149030000D02*
X141950000Y-147432500D01*
X152200000Y-140820000D02*
X153010000Y-140820000D01*
X141950000Y-147432500D02*
X142360000Y-147022500D01*
X156190000Y-138230000D02*
X157860000Y-136560000D01*
X150870000Y-142150000D02*
X150870000Y-138990000D01*
X150870000Y-138990000D02*
X151630000Y-138230000D01*
X144690000Y-147017500D02*
X146002500Y-147017500D01*
X146002500Y-147017500D02*
X150800000Y-142220000D01*
X150800000Y-142220000D02*
X152200000Y-140820000D01*
%TO.N,/STM32F439ZI/Windrichtung_MCU*%
X123030000Y-137830000D02*
X123030000Y-137390000D01*
X125240000Y-142440000D02*
X125270000Y-142410000D01*
X123030000Y-124960000D02*
X117380000Y-119310000D01*
X125270000Y-142410000D02*
X125270000Y-140070000D01*
X123030000Y-137390000D02*
X125110000Y-135310000D01*
X125240000Y-149010000D02*
X125240000Y-142440000D01*
X125270000Y-140070000D02*
X123030000Y-137830000D01*
X123030000Y-137830000D02*
X123030000Y-124960000D01*
X125240000Y-153990000D02*
X125240000Y-149010000D01*
%TO.N,/Sensoren_Eing\u00E4nge/RS485_RX_TX_NEG_1*%
X132890000Y-154070000D02*
X132890000Y-147492500D01*
X132845000Y-146042500D02*
X132845000Y-144375000D01*
X135590000Y-149422500D02*
X135590000Y-148787500D01*
X133592500Y-146790000D02*
X132845000Y-146042500D01*
X132890000Y-147492500D02*
X133592500Y-146790000D01*
X135590000Y-148787500D02*
X133592500Y-146790000D01*
%TO.N,/STM32F439ZI/Windgeschwindigkeit_MCU*%
X121562500Y-132360000D02*
X121562500Y-126032500D01*
X120800000Y-135455000D02*
X120795000Y-135450000D01*
X119030000Y-144010000D02*
X120800000Y-142240000D01*
X120795000Y-135450000D02*
X120795000Y-133127500D01*
X120795000Y-133127500D02*
X120802500Y-133120000D01*
X119030000Y-150370000D02*
X119030000Y-144010000D01*
X121562500Y-126032500D02*
X117380000Y-121850000D01*
X120800000Y-142240000D02*
X120800000Y-135455000D01*
X122730000Y-154070000D02*
X119030000Y-150370000D01*
X120802500Y-133120000D02*
X119550000Y-131867500D01*
X119550000Y-131867500D02*
X119550000Y-129510000D01*
X120802500Y-133120000D02*
X121562500Y-132360000D01*
%TO.N,/Sensoren_Eing\u00E4nge/RS485_RX_TX_POS_1*%
X128660000Y-149422500D02*
X128660000Y-148797500D01*
X130350000Y-147107500D02*
X130667500Y-146790000D01*
X130350000Y-154070000D02*
X130350000Y-147107500D01*
X128660000Y-148797500D02*
X130667500Y-146790000D01*
X131575000Y-145882500D02*
X131575000Y-144375000D01*
X130667500Y-146790000D02*
X131575000Y-145882500D01*
%TO.N,Net-(U1A-+)*%
X150575000Y-75094000D02*
X150575000Y-74522500D01*
X146985000Y-77340000D02*
X146980000Y-77345000D01*
X152821000Y-77340000D02*
X146985000Y-77340000D01*
X152821000Y-77340000D02*
X150575000Y-75094000D01*
X154837500Y-77340000D02*
X152821000Y-77340000D01*
%TO.N,/Motor/Stromsensor_MCU*%
X113570000Y-133165000D02*
X112375000Y-131970000D01*
X111065000Y-140045000D02*
X112295000Y-140045000D01*
X112375000Y-131970000D02*
X112375000Y-103995000D01*
X112375000Y-103995000D02*
X114840000Y-101530000D01*
X113570000Y-138770000D02*
X113570000Y-133165000D01*
X112295000Y-140045000D02*
X113570000Y-138770000D01*
%TO.N,/STM32F439ZI/Kraftmessung_MCU*%
X153852500Y-144607500D02*
X154880000Y-144607500D01*
X154880000Y-144607500D02*
X157212500Y-144607500D01*
X158260000Y-140810000D02*
X158310000Y-140760000D01*
X158310000Y-124010000D02*
X160470000Y-121850000D01*
X157220000Y-144615000D02*
X158310000Y-143525000D01*
X158310000Y-140760000D02*
X158310000Y-124010000D01*
X156340000Y-140810000D02*
X158260000Y-140810000D01*
X158310000Y-143525000D02*
X158310000Y-140760000D01*
X152652500Y-145807500D02*
X153852500Y-144607500D01*
X157212500Y-144607500D02*
X157220000Y-144615000D01*
X152652500Y-146700000D02*
X152652500Y-145807500D01*
%TO.N,/Buttons_LEDS/MCU_Vorfahren*%
X140695000Y-80585000D02*
X143860000Y-83750000D01*
X131080000Y-80585000D02*
X136900000Y-80585000D01*
X136900000Y-80585000D02*
X140695000Y-80585000D01*
X156590000Y-83750000D02*
X160460000Y-79880000D01*
X131075000Y-80590000D02*
X131080000Y-80585000D01*
X143860000Y-83750000D02*
X156590000Y-83750000D01*
%TO.N,/Buttons_LEDS/MCU_Zurueckfahren*%
X136910000Y-86480000D02*
X139130000Y-86480000D01*
X141400000Y-84210000D02*
X153310000Y-84210000D01*
X153310000Y-84210000D02*
X160470000Y-91370000D01*
X136900000Y-86470000D02*
X136910000Y-86480000D01*
X131092500Y-86470000D02*
X136900000Y-86470000D01*
X139130000Y-86480000D02*
X141400000Y-84210000D01*
%TO.N,/Buttons_LEDS/MCU_Kalibrierung*%
X136900000Y-92340000D02*
X136925000Y-92315000D01*
X140520000Y-87180000D02*
X142540000Y-85160000D01*
X142540000Y-85160000D02*
X151720000Y-85160000D01*
X136925000Y-92315000D02*
X138545000Y-92315000D01*
X131080000Y-92340000D02*
X136900000Y-92340000D01*
X151720000Y-85160000D02*
X160470000Y-93910000D01*
X140520000Y-90340000D02*
X140520000Y-87180000D01*
X138545000Y-92315000D02*
X140520000Y-90340000D01*
%TO.N,/STM32F439ZI/Opt_Temperaturmessung*%
X163000000Y-67180000D02*
X165967500Y-67180000D01*
X170770000Y-64620000D02*
X170770000Y-66930000D01*
X170545000Y-67155000D02*
X170630000Y-67070000D01*
X168257500Y-67177500D02*
X168280000Y-67155000D01*
X168280000Y-67155000D02*
X170545000Y-67155000D01*
X165967500Y-67180000D02*
X165970000Y-67177500D01*
X170770000Y-66930000D02*
X170630000Y-67070000D01*
X165970000Y-67177500D02*
X168257500Y-67177500D01*
X170470000Y-64320000D02*
X170770000Y-64620000D01*
%TO.N,/STM32F439ZI/HOLD*%
X122460000Y-103460000D02*
X122410000Y-103510000D01*
X118983604Y-98990000D02*
X117380000Y-98990000D01*
X122610000Y-103310000D02*
X122610000Y-102616396D01*
X122610000Y-102616396D02*
X118983604Y-98990000D01*
X122410000Y-103510000D02*
X121295000Y-104625000D01*
X121295000Y-104625000D02*
X121295000Y-105455000D01*
X122410000Y-103510000D02*
X122610000Y-103310000D01*
%TO.N,/STM32F439ZI/SCK*%
X117380000Y-104730000D02*
X119720000Y-107070000D01*
X119720000Y-107070000D02*
X121790000Y-107070000D01*
X122565000Y-106295000D02*
X122565000Y-105455000D01*
X121790000Y-107070000D02*
X122565000Y-106295000D01*
X117380000Y-104070000D02*
X117380000Y-104730000D01*
%TO.N,/STM32F439ZI/CS*%
X120025000Y-111585000D02*
X120025000Y-110725000D01*
X117380000Y-114230000D02*
X120025000Y-111585000D01*
%TO.N,/STM32F439ZI/Opt_Analog_IN*%
X168760000Y-75480000D02*
X170460000Y-75480000D01*
X163000000Y-69720000D02*
X165670000Y-72390000D01*
X165670000Y-72390000D02*
X168760000Y-75480000D01*
%TO.N,/Optokoppler/Ext_Relais1_MCU*%
X171020000Y-131967500D02*
X171020000Y-127320000D01*
X171020000Y-127320000D02*
X163010000Y-119310000D01*
%TO.N,/Optokoppler/Ext_Relais2_MCU*%
X165420000Y-131967500D02*
X167040000Y-130347500D01*
X167040000Y-130347500D02*
X167040000Y-125880000D01*
X167040000Y-125880000D02*
X163010000Y-121850000D01*
%TO.N,/Buttons_LEDS/MCU_LED_Trimmen*%
X154460000Y-136130000D02*
X155570000Y-136130000D01*
X159750000Y-133510000D02*
X160600000Y-133510000D01*
X165090000Y-126470000D02*
X163010000Y-124390000D01*
X160600000Y-133510000D02*
X165090000Y-129020000D01*
X165090000Y-129020000D02*
X165090000Y-126470000D01*
X156785500Y-134914500D02*
X156785500Y-133510000D01*
X155570000Y-136130000D02*
X156785500Y-134914500D01*
%TO.N,/Buttons_LEDS/MCU_LED_Rollen*%
X159570000Y-130500000D02*
X159570000Y-125290000D01*
X159720000Y-130650000D02*
X159570000Y-130500000D01*
X156575000Y-129855000D02*
X154520000Y-129855000D01*
X159570000Y-125290000D02*
X160470000Y-124390000D01*
%TO.N,/Buttons_LEDS/MCU_LED_Kalibrierung*%
X160470000Y-111690000D02*
X156777500Y-111690000D01*
X156777500Y-111690000D02*
X156100000Y-112367500D01*
%TO.N,/Buttons_LEDS/MCU_LED_Stoerung*%
X157572500Y-109150000D02*
X156100000Y-107677500D01*
X160470000Y-109150000D02*
X157572500Y-109150000D01*
%TO.N,/Motor/IN0_OUT*%
X143702500Y-38780000D02*
X143702500Y-41070000D01*
X143700000Y-41072500D02*
X143702500Y-41070000D01*
X139970000Y-27540000D02*
X139970000Y-30432500D01*
X143702500Y-41232500D02*
X143700000Y-41235000D01*
X139970000Y-30432500D02*
X141620000Y-32082500D01*
X141620000Y-32082500D02*
X143702500Y-34165000D01*
X143702500Y-34165000D02*
X143702500Y-38780000D01*
X143702500Y-41070000D02*
X143702500Y-41232500D01*
X143700000Y-42190000D02*
X143700000Y-41072500D01*
%TO.N,/Motor/IN1_OUT*%
X138920000Y-33570000D02*
X138920000Y-37962500D01*
X137430000Y-32080000D02*
X138920000Y-33570000D01*
X138920000Y-37962500D02*
X138092500Y-38790000D01*
X137430000Y-27540000D02*
X137430000Y-32080000D01*
X138090000Y-42200000D02*
X138090000Y-41245000D01*
X138090000Y-41245000D02*
X138092500Y-41242500D01*
X138092500Y-38790000D02*
X138092500Y-41242500D01*
%TO.N,/Motor/IN2_OUT*%
X134890000Y-27540000D02*
X134890000Y-31412500D01*
X132490000Y-33812500D02*
X132490000Y-38790000D01*
X132490000Y-42200000D02*
X132490000Y-38790000D01*
X134890000Y-31412500D02*
X134230000Y-32072500D01*
X134230000Y-32072500D02*
X132490000Y-33812500D01*
%TO.N,/Motor/IN3_OUT*%
X132350000Y-29302500D02*
X129570000Y-32082500D01*
X126890000Y-34762500D02*
X126890000Y-38790000D01*
X132350000Y-27540000D02*
X132350000Y-29302500D01*
X126890000Y-42200000D02*
X126890000Y-38790000D01*
X129570000Y-32082500D02*
X126890000Y-34762500D01*
%TO.N,/Motor/OUT3_IN*%
X121190000Y-39350000D02*
X121190000Y-55440000D01*
X123730000Y-36810000D02*
X121190000Y-39350000D01*
X129810000Y-27540000D02*
X125270000Y-32080000D01*
X125140000Y-32080000D02*
X123730000Y-33490000D01*
X135632500Y-56790000D02*
X139780000Y-60937500D01*
X122540000Y-56790000D02*
X135632500Y-56790000D01*
X121190000Y-55440000D02*
X122540000Y-56790000D01*
X125270000Y-32080000D02*
X125140000Y-32080000D01*
X123730000Y-33490000D02*
X123730000Y-36810000D01*
%TO.N,/Motor/OUT2_IN*%
X119260000Y-40513604D02*
X119260000Y-54146396D01*
X128630000Y-57240000D02*
X130320000Y-58930000D01*
X122353604Y-57240000D02*
X128630000Y-57240000D01*
X122740000Y-32070000D02*
X122300000Y-32070000D01*
X120850000Y-38923604D02*
X119260000Y-40513604D01*
X120850000Y-33520000D02*
X120850000Y-38923604D01*
X127270000Y-27540000D02*
X122740000Y-32070000D01*
X122300000Y-32070000D02*
X120850000Y-33520000D01*
X119260000Y-54146396D02*
X122353604Y-57240000D01*
%TO.N,/Motor/OUT1_IN*%
X119580000Y-32080000D02*
X118000000Y-33660000D01*
X118000000Y-55220000D02*
X121690000Y-58910000D01*
X124490000Y-27540000D02*
X119950000Y-32080000D01*
X118000000Y-33660000D02*
X118000000Y-55220000D01*
X119950000Y-32080000D02*
X119580000Y-32080000D01*
X124730000Y-27540000D02*
X124490000Y-27540000D01*
X121690000Y-58910000D02*
X122537500Y-58910000D01*
%TO.N,Net-(D10-A)*%
X148070000Y-88080000D02*
X147110000Y-89040000D01*
X156100000Y-93657500D02*
X156100000Y-90812792D01*
X153367208Y-88080000D02*
X148070000Y-88080000D01*
X156100000Y-90812792D02*
X153367208Y-88080000D01*
%TO.N,Net-(D11-A)*%
X153890000Y-99860000D02*
X153890000Y-96960000D01*
X152390000Y-95460000D02*
X148130000Y-95460000D01*
X156100000Y-101240000D02*
X155270000Y-101240000D01*
X155270000Y-101240000D02*
X153890000Y-99860000D01*
X148130000Y-95460000D02*
X147100000Y-96490000D01*
X153890000Y-96960000D02*
X152390000Y-95460000D01*
%TO.N,Net-(D12-A)*%
X148095000Y-102985000D02*
X147100000Y-103980000D01*
X156100000Y-102985000D02*
X148095000Y-102985000D01*
%TO.N,Net-(D13-A)*%
X156100000Y-110602500D02*
X148267500Y-110602500D01*
X148267500Y-110602500D02*
X147120000Y-111750000D01*
D43*
%TO.N,Net-(Spannungsversorgung_1-Pin_1)*%
X109690000Y-34680000D02*
X109690000Y-28960000D01*
%TO.N,Net-(F2-Pad2)*%
X106130000Y-144810000D02*
X106130000Y-142600000D01*
X106130000Y-142600000D02*
X106115000Y-142585000D01*
D42*
%TO.N,/STM32F439ZI/IN1_MCU*%
X153000000Y-42770000D02*
X160460000Y-50230000D01*
X160460000Y-50230000D02*
X160460000Y-57020000D01*
%TO.N,/Optokoppler/IN1_MCU_IN*%
X146290000Y-55089503D02*
X146279503Y-55100000D01*
X148910000Y-55089503D02*
X151330000Y-52669503D01*
X138062500Y-53340000D02*
X138415000Y-53340000D01*
X146279503Y-55100000D02*
X140175000Y-55100000D01*
X151330000Y-41900000D02*
X153000000Y-40230000D01*
X138415000Y-53340000D02*
X140175000Y-55100000D01*
X151330000Y-52669503D02*
X151330000Y-41900000D01*
%TO.N,/STM32F439ZI/Endschalter_Vorne_MCU*%
X165730000Y-54290000D02*
X163000000Y-57020000D01*
X164550000Y-45300000D02*
X165730000Y-46480000D01*
X165730000Y-46480000D02*
X165730000Y-54290000D01*
%TO.N,/STM32F439ZI/IN0_MCU*%
X164550000Y-42760000D02*
X167960000Y-46170000D01*
X167960000Y-46170000D02*
X167960000Y-54600000D01*
X167960000Y-54600000D02*
X163000000Y-59560000D01*
%TO.N,/Optokoppler/IN0_MCU_IN*%
X150790000Y-40190000D02*
X153180000Y-37800000D01*
X162130000Y-37800000D02*
X164550000Y-40220000D01*
X153180000Y-37800000D02*
X162130000Y-37800000D01*
X144092500Y-53390000D02*
X146290000Y-53390000D01*
X148910000Y-53390000D02*
X150790000Y-51510000D01*
X150790000Y-51510000D02*
X150790000Y-40190000D01*
%TO.N,/STM32F439ZI/Endschalter_Hinten_MCU*%
X153000000Y-45310000D02*
X158130000Y-50440000D01*
X158130000Y-57200000D02*
X160460000Y-59530000D01*
X160460000Y-59530000D02*
X160460000Y-59560000D01*
X158130000Y-50440000D02*
X158130000Y-57200000D01*
%TO.N,/Motor/Drehzahl_Analog_OUT*%
X154552500Y-71430000D02*
X154550000Y-71427500D01*
X153115000Y-74522500D02*
X153127500Y-74522500D01*
X147380000Y-64257500D02*
X154552500Y-71430000D01*
X147380000Y-32410000D02*
X147380000Y-64257500D01*
X153127500Y-74522500D02*
X154552500Y-73097500D01*
X154550000Y-71427500D02*
X154550000Y-67620000D01*
X142510000Y-27540000D02*
X147380000Y-32410000D01*
X154552500Y-73097500D02*
X154552500Y-71430000D01*
%TO.N,+3.3V*%
X134810000Y-67720000D02*
X137070000Y-69980000D01*
X125145000Y-67115000D02*
X125790000Y-67760000D01*
X130180000Y-68715000D02*
X129185000Y-67720000D01*
X116430000Y-61400000D02*
X118355000Y-61400000D01*
X142530000Y-75150000D02*
X142530000Y-77640000D01*
X129185000Y-67720000D02*
X129070000Y-67720000D01*
X134115000Y-144375000D02*
X135590000Y-145850000D01*
X123610000Y-78550000D02*
X143440000Y-78550000D01*
X137680000Y-113200000D02*
X124350000Y-99870000D01*
X143440000Y-78550000D02*
X146770000Y-81880000D01*
X142530000Y-77640000D02*
X143440000Y-78550000D01*
X129070000Y-67720000D02*
X134810000Y-67720000D01*
X140150000Y-69980000D02*
X141090000Y-70920000D01*
X111065000Y-138775000D02*
X111065000Y-87495000D01*
X124480000Y-97202500D02*
X123492500Y-97202500D01*
X153115000Y-81375000D02*
X153115000Y-80237500D01*
X125790000Y-69960000D02*
X125790000Y-68715000D01*
X121690000Y-83390000D02*
X121690000Y-80470000D01*
X124042500Y-85890000D02*
X124460000Y-85472500D01*
X152610000Y-81880000D02*
X153115000Y-81375000D01*
X120025000Y-105455000D02*
X120025000Y-103435000D01*
X146770000Y-81880000D02*
X152610000Y-81880000D01*
X128160000Y-99840000D02*
X124350000Y-99840000D01*
X137680000Y-146240000D02*
X137680000Y-113200000D01*
X124350000Y-99870000D02*
X124350000Y-99840000D01*
X137422500Y-146497500D02*
X137680000Y-146240000D01*
X119190000Y-85890000D02*
X124042500Y-85890000D01*
X124470000Y-91352500D02*
X124442500Y-91352500D01*
X137070000Y-69980000D02*
X140150000Y-69980000D01*
X118980000Y-85890000D02*
X121480000Y-88390000D01*
X125790000Y-67760000D02*
X125790000Y-68715000D01*
X124442500Y-91352500D02*
X121480000Y-88390000D01*
X112670000Y-85890000D02*
X118980000Y-85890000D01*
X121480000Y-95190000D02*
X121480000Y-96970000D01*
X121425000Y-63395000D02*
X125145000Y-67115000D01*
X120350000Y-63395000D02*
X121425000Y-63395000D01*
X118355000Y-61400000D02*
X120350000Y-63395000D01*
X130180000Y-68720000D02*
X130180000Y-68715000D01*
X121690000Y-80470000D02*
X123610000Y-78550000D01*
X111065000Y-87495000D02*
X112670000Y-85890000D01*
X129070000Y-67720000D02*
X125750000Y-67720000D01*
X118980000Y-85890000D02*
X119190000Y-85890000D01*
X123492500Y-97202500D02*
X121480000Y-95190000D01*
X125750000Y-67720000D02*
X125145000Y-67115000D01*
X119190000Y-85890000D02*
X121690000Y-83390000D01*
X135590000Y-145850000D02*
X135590000Y-146497500D01*
X131420000Y-69960000D02*
X130180000Y-68720000D01*
X121480000Y-88390000D02*
X121480000Y-95190000D01*
X135590000Y-146497500D02*
X137422500Y-146497500D01*
X120025000Y-103435000D02*
X120030000Y-103430000D01*
X124350000Y-99840000D02*
X121480000Y-96970000D01*
%TO.N,/STM32F439ZI/Drehzahl_Analog_OUT*%
X160460000Y-77340000D02*
X157762500Y-77340000D01*
%TO.N,Net-(R11-Pad2)*%
X141160000Y-53032500D02*
X141467500Y-53340000D01*
X141160000Y-50765000D02*
X141160000Y-53032500D01*
%TO.N,/Optokoppler/IN3_MCU_IN*%
X138390000Y-56340000D02*
X142500000Y-60450000D01*
X142500000Y-60450000D02*
X142500000Y-71970000D01*
X142500000Y-71970000D02*
X138360000Y-76110000D01*
X138360000Y-76110000D02*
X117390000Y-76110000D01*
X125172500Y-53340000D02*
X128172500Y-56340000D01*
X128172500Y-56340000D02*
X138390000Y-56340000D01*
X117390000Y-76110000D02*
X117380000Y-76120000D01*
%TO.N,Net-(R13-Pad2)*%
X124350000Y-51237500D02*
X124350000Y-49820000D01*
X122247500Y-53340000D02*
X124350000Y-51237500D01*
%TO.N,/Optokoppler/IN2_MCU_IN*%
X138396396Y-76710000D02*
X119330000Y-76710000D01*
X142950000Y-72156396D02*
X138396396Y-76710000D01*
X131712500Y-53340000D02*
X134262500Y-55890000D01*
X138576396Y-55890000D02*
X142950000Y-60263604D01*
X119330000Y-76710000D02*
X117380000Y-78660000D01*
X134262500Y-55890000D02*
X138576396Y-55890000D01*
X142950000Y-60263604D02*
X142950000Y-72156396D01*
%TO.N,Net-(R15-Pad2)*%
X129950000Y-50775000D02*
X129950000Y-52177500D01*
X129950000Y-52177500D02*
X128787500Y-53340000D01*
%TO.N,Net-(R17-Pad2)*%
X135550000Y-49820000D02*
X135550000Y-52927500D01*
X135550000Y-52927500D02*
X135137500Y-53340000D01*
%TO.N,Net-(R19-Pad2)*%
X125790000Y-59237500D02*
X125790000Y-62340000D01*
X125462500Y-58910000D02*
X125790000Y-59237500D01*
%TO.N,/Optokoppler/OUT1_MCU*%
X122025000Y-72700000D02*
X121580000Y-72700000D01*
X123250000Y-69960000D02*
X123250000Y-71475000D01*
X121580000Y-72700000D02*
X117380000Y-68500000D01*
X123250000Y-71475000D02*
X122025000Y-72700000D01*
%TO.N,Net-(R21-Pad2)*%
X131420000Y-62340000D02*
X131420000Y-60755000D01*
X131420000Y-60755000D02*
X133245000Y-58930000D01*
%TO.N,/Optokoppler/OUT2_MCU*%
X128307500Y-73370000D02*
X128880000Y-72797500D01*
X128307500Y-73370000D02*
X126807500Y-74870000D01*
X128880000Y-72797500D02*
X128880000Y-69960000D01*
X126807500Y-74870000D02*
X121210000Y-74870000D01*
X121210000Y-74870000D02*
X117380000Y-71040000D01*
%TO.N,Net-(R23-Pad2)*%
X138277500Y-62360000D02*
X139780000Y-63862500D01*
X137070000Y-62360000D02*
X138277500Y-62360000D01*
%TO.N,/Optokoppler/OUT3_MCU*%
X134517500Y-73360000D02*
X132557500Y-75320000D01*
X134530000Y-73347500D02*
X134517500Y-73360000D01*
X132557500Y-75320000D02*
X119120000Y-75320000D01*
X134530000Y-69980000D02*
X134530000Y-73347500D01*
X119120000Y-75320000D02*
X117380000Y-73580000D01*
%TO.N,/Buttons_LEDS/MCU_LED_Manuell*%
X159770000Y-105910000D02*
X156100000Y-105910000D01*
X160470000Y-106610000D02*
X159770000Y-105910000D01*
%TO.N,/Buttons_LEDS/MCU_LED_Betrieb*%
X160470000Y-101530000D02*
X157255000Y-98315000D01*
X157255000Y-98315000D02*
X156100000Y-98315000D01*
%TO.N,/Buttons_LEDS/MCU_LED_PWR*%
X160470000Y-98990000D02*
X158062500Y-96582500D01*
X158062500Y-96582500D02*
X156100000Y-96582500D01*
%TO.N,/Buttons_LEDS/MCU_Switch*%
X160470000Y-96450000D02*
X159720000Y-96450000D01*
X142726396Y-85610000D02*
X140970000Y-87366396D01*
X133210000Y-99840000D02*
X136885000Y-99840000D01*
X140970000Y-87366396D02*
X140970000Y-95755000D01*
X157740000Y-91816396D02*
X151533604Y-85610000D01*
X157740000Y-94470000D02*
X157740000Y-91816396D01*
X140970000Y-95755000D02*
X136885000Y-99840000D01*
X151533604Y-85610000D02*
X142726396Y-85610000D01*
X159720000Y-96450000D02*
X157740000Y-94470000D01*
%TO.N,/Rx*%
X134120000Y-130150000D02*
X134115000Y-130150000D01*
X119573604Y-87120000D02*
X115450000Y-87120000D01*
X120540000Y-98637208D02*
X120540000Y-88086396D01*
X115450000Y-87120000D02*
X114840000Y-87730000D01*
X134115000Y-112212208D02*
X120540000Y-98637208D01*
X120540000Y-88086396D02*
X119573604Y-87120000D01*
X134115000Y-130150000D02*
X134115000Y-112212208D01*
X134115000Y-139425000D02*
X134115000Y-130150000D01*
X135930000Y-128340000D02*
X134120000Y-130150000D01*
X114840000Y-87730000D02*
X114840000Y-88830000D01*
%TO.N,/Enable*%
X131575000Y-110308604D02*
X120080000Y-98813604D01*
X120080000Y-94070000D02*
X117380000Y-91370000D01*
X131575000Y-139425000D02*
X131575000Y-110308604D01*
X131575000Y-139425000D02*
X132845000Y-139425000D01*
X120080000Y-98813604D02*
X120080000Y-94070000D01*
%TO.N,/Tx*%
X128405000Y-128495000D02*
X130295000Y-130385000D01*
X130305000Y-130160000D02*
X130305000Y-109675000D01*
X119630000Y-99000000D02*
X119630000Y-96160000D01*
X119630000Y-96160000D02*
X117380000Y-93910000D01*
X130305000Y-139425000D02*
X130305000Y-130160000D01*
X130305000Y-109675000D02*
X119630000Y-99000000D01*
X130300000Y-130160000D02*
X130305000Y-130160000D01*
D43*
%TO.N,Net-(Motor_Spannungsversorgung1-Pin_1)*%
X106130000Y-147610000D02*
X106260000Y-147740000D01*
X106260000Y-147740000D02*
X106260000Y-152260000D01*
D42*
%TO.N,/Endschalter/Endschalter_Vorne*%
X170280000Y-30797500D02*
X168527500Y-32550000D01*
X168527500Y-32550000D02*
X165937500Y-35140000D01*
X170280000Y-27540000D02*
X170280000Y-30797500D01*
X165937500Y-35140000D02*
X164550000Y-35140000D01*
%TO.N,/STM32F439ZI/MISO*%
X124820000Y-108130000D02*
X126660000Y-109970000D01*
X122690000Y-108130000D02*
X123835000Y-106985000D01*
X117380000Y-109150000D02*
X118400000Y-108130000D01*
X118400000Y-108130000D02*
X122690000Y-108130000D01*
X123835000Y-106985000D02*
X123835000Y-105455000D01*
X122690000Y-108130000D02*
X124820000Y-108130000D01*
%TO.N,/STM32F439ZI/MOSI*%
X120730000Y-109230000D02*
X120910000Y-109230000D01*
X119340000Y-109230000D02*
X120730000Y-109230000D01*
X117380000Y-111690000D02*
X117380000Y-111190000D01*
X120910000Y-109230000D02*
X121295000Y-109615000D01*
X117380000Y-111190000D02*
X119340000Y-109230000D01*
X121295000Y-109615000D02*
X121295000Y-110725000D01*
%TO.N,/Endschalter/Endschalter_Hinten*%
X157672500Y-32550000D02*
X155072500Y-35150000D01*
X159600000Y-30622500D02*
X157672500Y-32550000D01*
X155072500Y-35150000D02*
X153000000Y-35150000D01*
X159600000Y-27550000D02*
X159600000Y-30622500D01*
%TO.N,Net-(D14-A)*%
X148410000Y-133200000D02*
X154455000Y-133200000D01*
X154455000Y-133200000D02*
X154460000Y-133205000D01*
X148410000Y-133200000D02*
X147100000Y-134510000D01*
%TO.N,Net-(D15-A)*%
X147940000Y-126090000D02*
X153680000Y-126090000D01*
X153680000Y-126090000D02*
X154520000Y-126930000D01*
X147100000Y-126930000D02*
X147940000Y-126090000D01*
%TO.N,Net-(D16-A)*%
X156100000Y-115292500D02*
X151067500Y-115292500D01*
X151067500Y-115292500D02*
X147110000Y-119250000D01*
%TO.N,/Optokoppler/Ext_Relais1_OUT*%
X169060000Y-149517500D02*
X169060000Y-154030000D01*
X168477500Y-148935000D02*
X169060000Y-149517500D01*
X168480000Y-145570000D02*
X168480000Y-148932500D01*
X168480000Y-148932500D02*
X168477500Y-148935000D01*
%TO.N,/Optokoppler/Ext_Relais2_OUT*%
X162880000Y-146525000D02*
X162880000Y-145570000D01*
X165290000Y-148935000D02*
X162880000Y-146525000D01*
X166520000Y-149650000D02*
X166520000Y-153980000D01*
X165805000Y-148935000D02*
X166520000Y-149650000D01*
X165805000Y-148935000D02*
X165290000Y-148935000D01*
%TO.N,Net-(R33-Pad2)*%
X171020000Y-137950000D02*
X171020000Y-134892500D01*
%TO.N,Net-(R35-Pad2)*%
X165420000Y-137950000D02*
X165420000Y-134892500D01*
%TO.N,Net-(J6-Pin_1)*%
X128155000Y-95260000D02*
X128155000Y-92340000D01*
X124480000Y-94277500D02*
X125462500Y-95260000D01*
X125462500Y-95260000D02*
X128155000Y-95260000D01*
%TO.N,Net-(J7-Pin_1)*%
X128150000Y-86487500D02*
X128167500Y-86470000D01*
X124470000Y-88427500D02*
X125452500Y-89410000D01*
X125452500Y-89410000D02*
X128150000Y-89410000D01*
X128150000Y-89410000D02*
X128150000Y-86487500D01*
%TO.N,Net-(J8-Pin_1)*%
X128140000Y-80600000D02*
X128150000Y-80590000D01*
X124460000Y-82547500D02*
X125442500Y-83530000D01*
X128140000Y-83530000D02*
X128140000Y-80600000D01*
X125442500Y-83530000D02*
X128140000Y-83530000D01*
%TO.N,+5V*%
X112753000Y-46830000D02*
X110330000Y-49253000D01*
X111830000Y-52570000D02*
X111830000Y-61400000D01*
X110330000Y-49253000D02*
X110330000Y-51070000D01*
X111830000Y-73110000D02*
X114840000Y-76120000D01*
X110330000Y-51070000D02*
X111830000Y-52570000D01*
X111830000Y-72675000D02*
X111830000Y-73110000D01*
X111830000Y-72675000D02*
X111830000Y-61400000D01*
%TO.N,Net-(U1A--)*%
X151627500Y-71430000D02*
X151845000Y-71647500D01*
X151845000Y-71647500D02*
X151845000Y-74522500D01*
X149922500Y-71430000D02*
X151627500Y-71430000D01*
%TO.N,Net-(D19-K)*%
X151030000Y-153980000D02*
X151030000Y-150327500D01*
X151030000Y-150327500D02*
X149722500Y-149020000D01*
X149722500Y-149020000D02*
X149722500Y-146705000D01*
X149722500Y-146705000D02*
X149727500Y-146700000D01*
%TD*%
M02*
