%TF.GenerationSoftware,KiCad,Pcbnew,7.0.1*%
%TF.CreationDate,2023-05-11T12:12:18+02:00*%
%TF.ProjectId,STM32_F439ZI_Shield,53544d33-325f-4463-9433-395a495f5368,rev?*%
%TF.SameCoordinates,Original*%
%TF.FileFunction,Drillmap*%
%TF.FilePolarity,Positive*%
%FSLAX45Y45*%
G04 Gerber Fmt 4.5, Leading zero omitted, Abs format (unit mm)*
G04 Created by KiCad (PCBNEW 7.0.1) date 2023-05-11 12:12:18*
%MOMM*%
%LPD*%
G01*
G04 APERTURE LIST*
%ADD10C,0.100000*%
%ADD11C,0.200000*%
%ADD12C,0.300000*%
G04 APERTURE END LIST*
D10*
X14456000Y-9044000D02*
G75*
G03*
X14456000Y-9044000I-120000J0D01*
G01*
X15207000Y-11315000D02*
G75*
G03*
X15207000Y-11315000I-120000J0D01*
G01*
X17364000Y-2406000D02*
X10425000Y-2406000D01*
X14455000Y-9789000D02*
G75*
G03*
X14455000Y-9789000I-120000J0D01*
G01*
X15206000Y-12065000D02*
G75*
G03*
X15206000Y-12065000I-120000J0D01*
G01*
X17395000Y-15715000D02*
X17395000Y-2436000D01*
X14455000Y-12833000D02*
G75*
G03*
X14455000Y-12833000I-120000J0D01*
G01*
X15206000Y-9044000D02*
G75*
G03*
X15206000Y-9044000I-120000J0D01*
G01*
X17394997Y-2435983D02*
G75*
G03*
X17364000Y-2406000I-29997J3D01*
G01*
X14457000Y-11315000D02*
G75*
G03*
X14457000Y-11315000I-120000J0D01*
G01*
X10426000Y-15746000D02*
X17365000Y-15746000D01*
X14455000Y-13591000D02*
G75*
G03*
X14455000Y-13591000I-120000J0D01*
G01*
X14455000Y-10538000D02*
G75*
G03*
X14455000Y-10538000I-120000J0D01*
G01*
X10395000Y-15716000D02*
X10395000Y-2436000D01*
X10395012Y-15716089D02*
G75*
G03*
X10426000Y-15746000I27998J-2001D01*
G01*
X15205000Y-10538000D02*
G75*
G03*
X15205000Y-10538000I-120000J0D01*
G01*
X15205000Y-12833000D02*
G75*
G03*
X15205000Y-12833000I-120000J0D01*
G01*
X14456000Y-12065000D02*
G75*
G03*
X14456000Y-12065000I-120000J0D01*
G01*
X17365000Y-15746016D02*
G75*
G03*
X17395000Y-15715000I0J30017D01*
G01*
X15205000Y-9789000D02*
G75*
G03*
X15205000Y-9789000I-120000J0D01*
G01*
X10425017Y-2406279D02*
G75*
G03*
X10395000Y-2436000I2013J-32051D01*
G01*
X15205000Y-13591000D02*
G75*
G03*
X15205000Y-13591000I-120000J0D01*
G01*
D11*
D12*
X11332000Y-5049000D02*
X11632000Y-5349000D01*
X11632000Y-5049000D02*
X11332000Y-5349000D01*
X11459000Y-12669000D02*
X11759000Y-12969000D01*
X11759000Y-12669000D02*
X11459000Y-12969000D01*
X16030000Y-12670000D02*
X16330000Y-12970000D01*
X16330000Y-12670000D02*
X16030000Y-12970000D01*
X16160000Y-5180000D02*
X16460000Y-5480000D01*
X16460000Y-5180000D02*
X16160000Y-5480000D01*
D11*
X10637559Y-16063683D02*
X10637559Y-15863683D01*
X10637559Y-15863683D02*
X10685178Y-15863683D01*
X10685178Y-15863683D02*
X10713750Y-15873207D01*
X10713750Y-15873207D02*
X10732797Y-15892255D01*
X10732797Y-15892255D02*
X10742321Y-15911302D01*
X10742321Y-15911302D02*
X10751845Y-15949398D01*
X10751845Y-15949398D02*
X10751845Y-15977969D01*
X10751845Y-15977969D02*
X10742321Y-16016064D01*
X10742321Y-16016064D02*
X10732797Y-16035112D01*
X10732797Y-16035112D02*
X10713750Y-16054160D01*
X10713750Y-16054160D02*
X10685178Y-16063683D01*
X10685178Y-16063683D02*
X10637559Y-16063683D01*
X10837559Y-16063683D02*
X10837559Y-15930350D01*
X10837559Y-15968445D02*
X10847083Y-15949398D01*
X10847083Y-15949398D02*
X10856607Y-15939874D01*
X10856607Y-15939874D02*
X10875655Y-15930350D01*
X10875655Y-15930350D02*
X10894702Y-15930350D01*
X10961369Y-16063683D02*
X10961369Y-15930350D01*
X10961369Y-15863683D02*
X10951845Y-15873207D01*
X10951845Y-15873207D02*
X10961369Y-15882731D01*
X10961369Y-15882731D02*
X10970893Y-15873207D01*
X10970893Y-15873207D02*
X10961369Y-15863683D01*
X10961369Y-15863683D02*
X10961369Y-15882731D01*
X11085178Y-16063683D02*
X11066131Y-16054160D01*
X11066131Y-16054160D02*
X11056607Y-16035112D01*
X11056607Y-16035112D02*
X11056607Y-15863683D01*
X11189940Y-16063683D02*
X11170893Y-16054160D01*
X11170893Y-16054160D02*
X11161369Y-16035112D01*
X11161369Y-16035112D02*
X11161369Y-15863683D01*
X11418512Y-16063683D02*
X11418512Y-15863683D01*
X11418512Y-15863683D02*
X11485178Y-16006541D01*
X11485178Y-16006541D02*
X11551845Y-15863683D01*
X11551845Y-15863683D02*
X11551845Y-16063683D01*
X11732797Y-16063683D02*
X11732797Y-15958922D01*
X11732797Y-15958922D02*
X11723274Y-15939874D01*
X11723274Y-15939874D02*
X11704226Y-15930350D01*
X11704226Y-15930350D02*
X11666131Y-15930350D01*
X11666131Y-15930350D02*
X11647083Y-15939874D01*
X11732797Y-16054160D02*
X11713750Y-16063683D01*
X11713750Y-16063683D02*
X11666131Y-16063683D01*
X11666131Y-16063683D02*
X11647083Y-16054160D01*
X11647083Y-16054160D02*
X11637559Y-16035112D01*
X11637559Y-16035112D02*
X11637559Y-16016064D01*
X11637559Y-16016064D02*
X11647083Y-15997017D01*
X11647083Y-15997017D02*
X11666131Y-15987493D01*
X11666131Y-15987493D02*
X11713750Y-15987493D01*
X11713750Y-15987493D02*
X11732797Y-15977969D01*
X11828035Y-15930350D02*
X11828035Y-16130350D01*
X11828035Y-15939874D02*
X11847083Y-15930350D01*
X11847083Y-15930350D02*
X11885178Y-15930350D01*
X11885178Y-15930350D02*
X11904226Y-15939874D01*
X11904226Y-15939874D02*
X11913750Y-15949398D01*
X11913750Y-15949398D02*
X11923274Y-15968445D01*
X11923274Y-15968445D02*
X11923274Y-16025588D01*
X11923274Y-16025588D02*
X11913750Y-16044636D01*
X11913750Y-16044636D02*
X11904226Y-16054160D01*
X11904226Y-16054160D02*
X11885178Y-16063683D01*
X11885178Y-16063683D02*
X11847083Y-16063683D01*
X11847083Y-16063683D02*
X11828035Y-16054160D01*
X12008988Y-16044636D02*
X12018512Y-16054160D01*
X12018512Y-16054160D02*
X12008988Y-16063683D01*
X12008988Y-16063683D02*
X11999464Y-16054160D01*
X11999464Y-16054160D02*
X12008988Y-16044636D01*
X12008988Y-16044636D02*
X12008988Y-16063683D01*
X12008988Y-15939874D02*
X12018512Y-15949398D01*
X12018512Y-15949398D02*
X12008988Y-15958922D01*
X12008988Y-15958922D02*
X11999464Y-15949398D01*
X11999464Y-15949398D02*
X12008988Y-15939874D01*
X12008988Y-15939874D02*
X12008988Y-15958922D01*
X10189940Y-16291160D02*
X10389940Y-16491160D01*
X10389940Y-16291160D02*
X10189940Y-16491160D01*
X10618512Y-16283683D02*
X10742321Y-16283683D01*
X10742321Y-16283683D02*
X10675655Y-16359874D01*
X10675655Y-16359874D02*
X10704226Y-16359874D01*
X10704226Y-16359874D02*
X10723274Y-16369398D01*
X10723274Y-16369398D02*
X10732797Y-16378922D01*
X10732797Y-16378922D02*
X10742321Y-16397969D01*
X10742321Y-16397969D02*
X10742321Y-16445588D01*
X10742321Y-16445588D02*
X10732797Y-16464636D01*
X10732797Y-16464636D02*
X10723274Y-16474160D01*
X10723274Y-16474160D02*
X10704226Y-16483683D01*
X10704226Y-16483683D02*
X10647083Y-16483683D01*
X10647083Y-16483683D02*
X10628036Y-16474160D01*
X10628036Y-16474160D02*
X10618512Y-16464636D01*
X10828036Y-16464636D02*
X10837559Y-16474160D01*
X10837559Y-16474160D02*
X10828036Y-16483683D01*
X10828036Y-16483683D02*
X10818512Y-16474160D01*
X10818512Y-16474160D02*
X10828036Y-16464636D01*
X10828036Y-16464636D02*
X10828036Y-16483683D01*
X10961369Y-16283683D02*
X10980417Y-16283683D01*
X10980417Y-16283683D02*
X10999464Y-16293207D01*
X10999464Y-16293207D02*
X11008988Y-16302731D01*
X11008988Y-16302731D02*
X11018512Y-16321779D01*
X11018512Y-16321779D02*
X11028036Y-16359874D01*
X11028036Y-16359874D02*
X11028036Y-16407493D01*
X11028036Y-16407493D02*
X11018512Y-16445588D01*
X11018512Y-16445588D02*
X11008988Y-16464636D01*
X11008988Y-16464636D02*
X10999464Y-16474160D01*
X10999464Y-16474160D02*
X10980417Y-16483683D01*
X10980417Y-16483683D02*
X10961369Y-16483683D01*
X10961369Y-16483683D02*
X10942321Y-16474160D01*
X10942321Y-16474160D02*
X10932797Y-16464636D01*
X10932797Y-16464636D02*
X10923274Y-16445588D01*
X10923274Y-16445588D02*
X10913750Y-16407493D01*
X10913750Y-16407493D02*
X10913750Y-16359874D01*
X10913750Y-16359874D02*
X10923274Y-16321779D01*
X10923274Y-16321779D02*
X10932797Y-16302731D01*
X10932797Y-16302731D02*
X10942321Y-16293207D01*
X10942321Y-16293207D02*
X10961369Y-16283683D01*
X11151845Y-16283683D02*
X11170893Y-16283683D01*
X11170893Y-16283683D02*
X11189940Y-16293207D01*
X11189940Y-16293207D02*
X11199464Y-16302731D01*
X11199464Y-16302731D02*
X11208988Y-16321779D01*
X11208988Y-16321779D02*
X11218512Y-16359874D01*
X11218512Y-16359874D02*
X11218512Y-16407493D01*
X11218512Y-16407493D02*
X11208988Y-16445588D01*
X11208988Y-16445588D02*
X11199464Y-16464636D01*
X11199464Y-16464636D02*
X11189940Y-16474160D01*
X11189940Y-16474160D02*
X11170893Y-16483683D01*
X11170893Y-16483683D02*
X11151845Y-16483683D01*
X11151845Y-16483683D02*
X11132797Y-16474160D01*
X11132797Y-16474160D02*
X11123274Y-16464636D01*
X11123274Y-16464636D02*
X11113750Y-16445588D01*
X11113750Y-16445588D02*
X11104226Y-16407493D01*
X11104226Y-16407493D02*
X11104226Y-16359874D01*
X11104226Y-16359874D02*
X11113750Y-16321779D01*
X11113750Y-16321779D02*
X11123274Y-16302731D01*
X11123274Y-16302731D02*
X11132797Y-16293207D01*
X11132797Y-16293207D02*
X11151845Y-16283683D01*
X11342321Y-16283683D02*
X11361369Y-16283683D01*
X11361369Y-16283683D02*
X11380416Y-16293207D01*
X11380416Y-16293207D02*
X11389940Y-16302731D01*
X11389940Y-16302731D02*
X11399464Y-16321779D01*
X11399464Y-16321779D02*
X11408988Y-16359874D01*
X11408988Y-16359874D02*
X11408988Y-16407493D01*
X11408988Y-16407493D02*
X11399464Y-16445588D01*
X11399464Y-16445588D02*
X11389940Y-16464636D01*
X11389940Y-16464636D02*
X11380416Y-16474160D01*
X11380416Y-16474160D02*
X11361369Y-16483683D01*
X11361369Y-16483683D02*
X11342321Y-16483683D01*
X11342321Y-16483683D02*
X11323274Y-16474160D01*
X11323274Y-16474160D02*
X11313750Y-16464636D01*
X11313750Y-16464636D02*
X11304226Y-16445588D01*
X11304226Y-16445588D02*
X11294702Y-16407493D01*
X11294702Y-16407493D02*
X11294702Y-16359874D01*
X11294702Y-16359874D02*
X11304226Y-16321779D01*
X11304226Y-16321779D02*
X11313750Y-16302731D01*
X11313750Y-16302731D02*
X11323274Y-16293207D01*
X11323274Y-16293207D02*
X11342321Y-16283683D01*
X11494702Y-16483683D02*
X11494702Y-16350350D01*
X11494702Y-16369398D02*
X11504226Y-16359874D01*
X11504226Y-16359874D02*
X11523274Y-16350350D01*
X11523274Y-16350350D02*
X11551845Y-16350350D01*
X11551845Y-16350350D02*
X11570893Y-16359874D01*
X11570893Y-16359874D02*
X11580416Y-16378922D01*
X11580416Y-16378922D02*
X11580416Y-16483683D01*
X11580416Y-16378922D02*
X11589940Y-16359874D01*
X11589940Y-16359874D02*
X11608988Y-16350350D01*
X11608988Y-16350350D02*
X11637559Y-16350350D01*
X11637559Y-16350350D02*
X11656607Y-16359874D01*
X11656607Y-16359874D02*
X11666131Y-16378922D01*
X11666131Y-16378922D02*
X11666131Y-16483683D01*
X11761369Y-16483683D02*
X11761369Y-16350350D01*
X11761369Y-16369398D02*
X11770893Y-16359874D01*
X11770893Y-16359874D02*
X11789940Y-16350350D01*
X11789940Y-16350350D02*
X11818512Y-16350350D01*
X11818512Y-16350350D02*
X11837559Y-16359874D01*
X11837559Y-16359874D02*
X11847083Y-16378922D01*
X11847083Y-16378922D02*
X11847083Y-16483683D01*
X11847083Y-16378922D02*
X11856607Y-16359874D01*
X11856607Y-16359874D02*
X11875655Y-16350350D01*
X11875655Y-16350350D02*
X11904226Y-16350350D01*
X11904226Y-16350350D02*
X11923274Y-16359874D01*
X11923274Y-16359874D02*
X11932797Y-16378922D01*
X11932797Y-16378922D02*
X11932797Y-16483683D01*
X12323274Y-16274160D02*
X12151845Y-16531302D01*
X12580417Y-16283683D02*
X12599464Y-16283683D01*
X12599464Y-16283683D02*
X12618512Y-16293207D01*
X12618512Y-16293207D02*
X12628036Y-16302731D01*
X12628036Y-16302731D02*
X12637559Y-16321779D01*
X12637559Y-16321779D02*
X12647083Y-16359874D01*
X12647083Y-16359874D02*
X12647083Y-16407493D01*
X12647083Y-16407493D02*
X12637559Y-16445588D01*
X12637559Y-16445588D02*
X12628036Y-16464636D01*
X12628036Y-16464636D02*
X12618512Y-16474160D01*
X12618512Y-16474160D02*
X12599464Y-16483683D01*
X12599464Y-16483683D02*
X12580417Y-16483683D01*
X12580417Y-16483683D02*
X12561369Y-16474160D01*
X12561369Y-16474160D02*
X12551845Y-16464636D01*
X12551845Y-16464636D02*
X12542321Y-16445588D01*
X12542321Y-16445588D02*
X12532798Y-16407493D01*
X12532798Y-16407493D02*
X12532798Y-16359874D01*
X12532798Y-16359874D02*
X12542321Y-16321779D01*
X12542321Y-16321779D02*
X12551845Y-16302731D01*
X12551845Y-16302731D02*
X12561369Y-16293207D01*
X12561369Y-16293207D02*
X12580417Y-16283683D01*
X12732798Y-16464636D02*
X12742321Y-16474160D01*
X12742321Y-16474160D02*
X12732798Y-16483683D01*
X12732798Y-16483683D02*
X12723274Y-16474160D01*
X12723274Y-16474160D02*
X12732798Y-16464636D01*
X12732798Y-16464636D02*
X12732798Y-16483683D01*
X12932798Y-16483683D02*
X12818512Y-16483683D01*
X12875655Y-16483683D02*
X12875655Y-16283683D01*
X12875655Y-16283683D02*
X12856607Y-16312255D01*
X12856607Y-16312255D02*
X12837559Y-16331302D01*
X12837559Y-16331302D02*
X12818512Y-16340826D01*
X13123274Y-16483683D02*
X13008988Y-16483683D01*
X13066131Y-16483683D02*
X13066131Y-16283683D01*
X13066131Y-16283683D02*
X13047083Y-16312255D01*
X13047083Y-16312255D02*
X13028036Y-16331302D01*
X13028036Y-16331302D02*
X13008988Y-16340826D01*
X13237559Y-16369398D02*
X13218512Y-16359874D01*
X13218512Y-16359874D02*
X13208988Y-16350350D01*
X13208988Y-16350350D02*
X13199464Y-16331302D01*
X13199464Y-16331302D02*
X13199464Y-16321779D01*
X13199464Y-16321779D02*
X13208988Y-16302731D01*
X13208988Y-16302731D02*
X13218512Y-16293207D01*
X13218512Y-16293207D02*
X13237559Y-16283683D01*
X13237559Y-16283683D02*
X13275655Y-16283683D01*
X13275655Y-16283683D02*
X13294702Y-16293207D01*
X13294702Y-16293207D02*
X13304226Y-16302731D01*
X13304226Y-16302731D02*
X13313750Y-16321779D01*
X13313750Y-16321779D02*
X13313750Y-16331302D01*
X13313750Y-16331302D02*
X13304226Y-16350350D01*
X13304226Y-16350350D02*
X13294702Y-16359874D01*
X13294702Y-16359874D02*
X13275655Y-16369398D01*
X13275655Y-16369398D02*
X13237559Y-16369398D01*
X13237559Y-16369398D02*
X13218512Y-16378922D01*
X13218512Y-16378922D02*
X13208988Y-16388445D01*
X13208988Y-16388445D02*
X13199464Y-16407493D01*
X13199464Y-16407493D02*
X13199464Y-16445588D01*
X13199464Y-16445588D02*
X13208988Y-16464636D01*
X13208988Y-16464636D02*
X13218512Y-16474160D01*
X13218512Y-16474160D02*
X13237559Y-16483683D01*
X13237559Y-16483683D02*
X13275655Y-16483683D01*
X13275655Y-16483683D02*
X13294702Y-16474160D01*
X13294702Y-16474160D02*
X13304226Y-16464636D01*
X13304226Y-16464636D02*
X13313750Y-16445588D01*
X13313750Y-16445588D02*
X13313750Y-16407493D01*
X13313750Y-16407493D02*
X13304226Y-16388445D01*
X13304226Y-16388445D02*
X13294702Y-16378922D01*
X13294702Y-16378922D02*
X13275655Y-16369398D01*
X13504226Y-16483683D02*
X13389940Y-16483683D01*
X13447083Y-16483683D02*
X13447083Y-16283683D01*
X13447083Y-16283683D02*
X13428036Y-16312255D01*
X13428036Y-16312255D02*
X13408988Y-16331302D01*
X13408988Y-16331302D02*
X13389940Y-16340826D01*
X13580417Y-16283683D02*
X13580417Y-16321779D01*
X13656607Y-16283683D02*
X13656607Y-16321779D01*
X13951845Y-16559874D02*
X13942321Y-16550350D01*
X13942321Y-16550350D02*
X13923274Y-16521779D01*
X13923274Y-16521779D02*
X13913750Y-16502731D01*
X13913750Y-16502731D02*
X13904226Y-16474160D01*
X13904226Y-16474160D02*
X13894702Y-16426541D01*
X13894702Y-16426541D02*
X13894702Y-16388445D01*
X13894702Y-16388445D02*
X13904226Y-16340826D01*
X13904226Y-16340826D02*
X13913750Y-16312255D01*
X13913750Y-16312255D02*
X13923274Y-16293207D01*
X13923274Y-16293207D02*
X13942321Y-16264636D01*
X13942321Y-16264636D02*
X13951845Y-16255112D01*
X14113750Y-16350350D02*
X14113750Y-16483683D01*
X14066131Y-16274160D02*
X14018512Y-16417017D01*
X14018512Y-16417017D02*
X14142321Y-16417017D01*
X14370893Y-16483683D02*
X14370893Y-16283683D01*
X14456607Y-16483683D02*
X14456607Y-16378922D01*
X14456607Y-16378922D02*
X14447083Y-16359874D01*
X14447083Y-16359874D02*
X14428036Y-16350350D01*
X14428036Y-16350350D02*
X14399464Y-16350350D01*
X14399464Y-16350350D02*
X14380417Y-16359874D01*
X14380417Y-16359874D02*
X14370893Y-16369398D01*
X14580417Y-16483683D02*
X14561369Y-16474160D01*
X14561369Y-16474160D02*
X14551845Y-16464636D01*
X14551845Y-16464636D02*
X14542322Y-16445588D01*
X14542322Y-16445588D02*
X14542322Y-16388445D01*
X14542322Y-16388445D02*
X14551845Y-16369398D01*
X14551845Y-16369398D02*
X14561369Y-16359874D01*
X14561369Y-16359874D02*
X14580417Y-16350350D01*
X14580417Y-16350350D02*
X14608988Y-16350350D01*
X14608988Y-16350350D02*
X14628036Y-16359874D01*
X14628036Y-16359874D02*
X14637560Y-16369398D01*
X14637560Y-16369398D02*
X14647083Y-16388445D01*
X14647083Y-16388445D02*
X14647083Y-16445588D01*
X14647083Y-16445588D02*
X14637560Y-16464636D01*
X14637560Y-16464636D02*
X14628036Y-16474160D01*
X14628036Y-16474160D02*
X14608988Y-16483683D01*
X14608988Y-16483683D02*
X14580417Y-16483683D01*
X14761369Y-16483683D02*
X14742322Y-16474160D01*
X14742322Y-16474160D02*
X14732798Y-16455112D01*
X14732798Y-16455112D02*
X14732798Y-16283683D01*
X14913750Y-16474160D02*
X14894703Y-16483683D01*
X14894703Y-16483683D02*
X14856607Y-16483683D01*
X14856607Y-16483683D02*
X14837560Y-16474160D01*
X14837560Y-16474160D02*
X14828036Y-16455112D01*
X14828036Y-16455112D02*
X14828036Y-16378922D01*
X14828036Y-16378922D02*
X14837560Y-16359874D01*
X14837560Y-16359874D02*
X14856607Y-16350350D01*
X14856607Y-16350350D02*
X14894703Y-16350350D01*
X14894703Y-16350350D02*
X14913750Y-16359874D01*
X14913750Y-16359874D02*
X14923274Y-16378922D01*
X14923274Y-16378922D02*
X14923274Y-16397969D01*
X14923274Y-16397969D02*
X14828036Y-16417017D01*
X14999464Y-16474160D02*
X15018512Y-16483683D01*
X15018512Y-16483683D02*
X15056607Y-16483683D01*
X15056607Y-16483683D02*
X15075655Y-16474160D01*
X15075655Y-16474160D02*
X15085179Y-16455112D01*
X15085179Y-16455112D02*
X15085179Y-16445588D01*
X15085179Y-16445588D02*
X15075655Y-16426541D01*
X15075655Y-16426541D02*
X15056607Y-16417017D01*
X15056607Y-16417017D02*
X15028036Y-16417017D01*
X15028036Y-16417017D02*
X15008988Y-16407493D01*
X15008988Y-16407493D02*
X14999464Y-16388445D01*
X14999464Y-16388445D02*
X14999464Y-16378922D01*
X14999464Y-16378922D02*
X15008988Y-16359874D01*
X15008988Y-16359874D02*
X15028036Y-16350350D01*
X15028036Y-16350350D02*
X15056607Y-16350350D01*
X15056607Y-16350350D02*
X15075655Y-16359874D01*
X15151845Y-16559874D02*
X15161369Y-16550350D01*
X15161369Y-16550350D02*
X15180417Y-16521779D01*
X15180417Y-16521779D02*
X15189941Y-16502731D01*
X15189941Y-16502731D02*
X15199464Y-16474160D01*
X15199464Y-16474160D02*
X15208988Y-16426541D01*
X15208988Y-16426541D02*
X15208988Y-16388445D01*
X15208988Y-16388445D02*
X15199464Y-16340826D01*
X15199464Y-16340826D02*
X15189941Y-16312255D01*
X15189941Y-16312255D02*
X15180417Y-16293207D01*
X15180417Y-16293207D02*
X15161369Y-16264636D01*
X15161369Y-16264636D02*
X15151845Y-16255112D01*
X15513750Y-16559874D02*
X15504226Y-16550350D01*
X15504226Y-16550350D02*
X15485179Y-16521779D01*
X15485179Y-16521779D02*
X15475655Y-16502731D01*
X15475655Y-16502731D02*
X15466131Y-16474160D01*
X15466131Y-16474160D02*
X15456607Y-16426541D01*
X15456607Y-16426541D02*
X15456607Y-16388445D01*
X15456607Y-16388445D02*
X15466131Y-16340826D01*
X15466131Y-16340826D02*
X15475655Y-16312255D01*
X15475655Y-16312255D02*
X15485179Y-16293207D01*
X15485179Y-16293207D02*
X15504226Y-16264636D01*
X15504226Y-16264636D02*
X15513750Y-16255112D01*
X15589941Y-16350350D02*
X15589941Y-16483683D01*
X15589941Y-16369398D02*
X15599464Y-16359874D01*
X15599464Y-16359874D02*
X15618512Y-16350350D01*
X15618512Y-16350350D02*
X15647084Y-16350350D01*
X15647084Y-16350350D02*
X15666131Y-16359874D01*
X15666131Y-16359874D02*
X15675655Y-16378922D01*
X15675655Y-16378922D02*
X15675655Y-16483683D01*
X15799464Y-16483683D02*
X15780417Y-16474160D01*
X15780417Y-16474160D02*
X15770893Y-16464636D01*
X15770893Y-16464636D02*
X15761369Y-16445588D01*
X15761369Y-16445588D02*
X15761369Y-16388445D01*
X15761369Y-16388445D02*
X15770893Y-16369398D01*
X15770893Y-16369398D02*
X15780417Y-16359874D01*
X15780417Y-16359874D02*
X15799464Y-16350350D01*
X15799464Y-16350350D02*
X15828036Y-16350350D01*
X15828036Y-16350350D02*
X15847084Y-16359874D01*
X15847084Y-16359874D02*
X15856607Y-16369398D01*
X15856607Y-16369398D02*
X15866131Y-16388445D01*
X15866131Y-16388445D02*
X15866131Y-16445588D01*
X15866131Y-16445588D02*
X15856607Y-16464636D01*
X15856607Y-16464636D02*
X15847084Y-16474160D01*
X15847084Y-16474160D02*
X15828036Y-16483683D01*
X15828036Y-16483683D02*
X15799464Y-16483683D01*
X15923274Y-16350350D02*
X15999464Y-16350350D01*
X15951845Y-16283683D02*
X15951845Y-16455112D01*
X15951845Y-16455112D02*
X15961369Y-16474160D01*
X15961369Y-16474160D02*
X15980417Y-16483683D01*
X15980417Y-16483683D02*
X15999464Y-16483683D01*
X16218512Y-16350350D02*
X16218512Y-16550350D01*
X16218512Y-16359874D02*
X16237560Y-16350350D01*
X16237560Y-16350350D02*
X16275655Y-16350350D01*
X16275655Y-16350350D02*
X16294703Y-16359874D01*
X16294703Y-16359874D02*
X16304226Y-16369398D01*
X16304226Y-16369398D02*
X16313750Y-16388445D01*
X16313750Y-16388445D02*
X16313750Y-16445588D01*
X16313750Y-16445588D02*
X16304226Y-16464636D01*
X16304226Y-16464636D02*
X16294703Y-16474160D01*
X16294703Y-16474160D02*
X16275655Y-16483683D01*
X16275655Y-16483683D02*
X16237560Y-16483683D01*
X16237560Y-16483683D02*
X16218512Y-16474160D01*
X16428036Y-16483683D02*
X16408988Y-16474160D01*
X16408988Y-16474160D02*
X16399465Y-16455112D01*
X16399465Y-16455112D02*
X16399465Y-16283683D01*
X16589941Y-16483683D02*
X16589941Y-16378922D01*
X16589941Y-16378922D02*
X16580417Y-16359874D01*
X16580417Y-16359874D02*
X16561369Y-16350350D01*
X16561369Y-16350350D02*
X16523274Y-16350350D01*
X16523274Y-16350350D02*
X16504226Y-16359874D01*
X16589941Y-16474160D02*
X16570893Y-16483683D01*
X16570893Y-16483683D02*
X16523274Y-16483683D01*
X16523274Y-16483683D02*
X16504226Y-16474160D01*
X16504226Y-16474160D02*
X16494703Y-16455112D01*
X16494703Y-16455112D02*
X16494703Y-16436064D01*
X16494703Y-16436064D02*
X16504226Y-16417017D01*
X16504226Y-16417017D02*
X16523274Y-16407493D01*
X16523274Y-16407493D02*
X16570893Y-16407493D01*
X16570893Y-16407493D02*
X16589941Y-16397969D01*
X16656607Y-16350350D02*
X16732798Y-16350350D01*
X16685179Y-16283683D02*
X16685179Y-16455112D01*
X16685179Y-16455112D02*
X16694703Y-16474160D01*
X16694703Y-16474160D02*
X16713750Y-16483683D01*
X16713750Y-16483683D02*
X16732798Y-16483683D01*
X16875655Y-16474160D02*
X16856608Y-16483683D01*
X16856608Y-16483683D02*
X16818512Y-16483683D01*
X16818512Y-16483683D02*
X16799465Y-16474160D01*
X16799465Y-16474160D02*
X16789941Y-16455112D01*
X16789941Y-16455112D02*
X16789941Y-16378922D01*
X16789941Y-16378922D02*
X16799465Y-16359874D01*
X16799465Y-16359874D02*
X16818512Y-16350350D01*
X16818512Y-16350350D02*
X16856608Y-16350350D01*
X16856608Y-16350350D02*
X16875655Y-16359874D01*
X16875655Y-16359874D02*
X16885179Y-16378922D01*
X16885179Y-16378922D02*
X16885179Y-16397969D01*
X16885179Y-16397969D02*
X16789941Y-16417017D01*
X17056608Y-16483683D02*
X17056608Y-16283683D01*
X17056608Y-16474160D02*
X17037560Y-16483683D01*
X17037560Y-16483683D02*
X16999465Y-16483683D01*
X16999465Y-16483683D02*
X16980417Y-16474160D01*
X16980417Y-16474160D02*
X16970893Y-16464636D01*
X16970893Y-16464636D02*
X16961369Y-16445588D01*
X16961369Y-16445588D02*
X16961369Y-16388445D01*
X16961369Y-16388445D02*
X16970893Y-16369398D01*
X16970893Y-16369398D02*
X16980417Y-16359874D01*
X16980417Y-16359874D02*
X16999465Y-16350350D01*
X16999465Y-16350350D02*
X17037560Y-16350350D01*
X17037560Y-16350350D02*
X17056608Y-16359874D01*
X17132798Y-16559874D02*
X17142322Y-16550350D01*
X17142322Y-16550350D02*
X17161369Y-16521779D01*
X17161369Y-16521779D02*
X17170893Y-16502731D01*
X17170893Y-16502731D02*
X17180417Y-16474160D01*
X17180417Y-16474160D02*
X17189941Y-16426541D01*
X17189941Y-16426541D02*
X17189941Y-16388445D01*
X17189941Y-16388445D02*
X17180417Y-16340826D01*
X17180417Y-16340826D02*
X17170893Y-16312255D01*
X17170893Y-16312255D02*
X17161369Y-16293207D01*
X17161369Y-16293207D02*
X17142322Y-16264636D01*
X17142322Y-16264636D02*
X17132798Y-16255112D01*
M02*
