%TF.GenerationSoftware,KiCad,Pcbnew,7.0.1*%
%TF.CreationDate,2023-05-11T12:11:36+02:00*%
%TF.ProjectId,STM32_F439ZI_Shield,53544d33-325f-4463-9433-395a495f5368,rev?*%
%TF.SameCoordinates,Original*%
%TF.FileFunction,Soldermask,Bot*%
%TF.FilePolarity,Negative*%
%FSLAX46Y46*%
G04 Gerber Fmt 4.6, Leading zero omitted, Abs format (unit mm)*
G04 Created by KiCad (PCBNEW 7.0.1) date 2023-05-11 12:11:36*
%MOMM*%
%LPD*%
G01*
G04 APERTURE LIST*
%ADD10R,2.000000X2.000000*%
%ADD11R,2.100000X2.100000*%
%ADD12C,2.100000*%
%ADD13C,3.000000*%
%ADD14R,2.400000X2.400000*%
%ADD15C,2.400000*%
%ADD16R,1.600000X2.300000*%
%ADD17O,1.600000X2.300000*%
%ADD18R,1.700000X1.700000*%
%ADD19O,1.700000X1.700000*%
G04 APERTURE END LIST*
D10*
%TO.C,TP10*%
X128405000Y-128495000D03*
%TD*%
D11*
%TO.C,Endschalter_Hinten1*%
X154520000Y-27550000D03*
D12*
X157060000Y-27550000D03*
X159600000Y-27550000D03*
%TD*%
D11*
%TO.C,J3*%
X169060000Y-153980000D03*
D12*
X166520000Y-153980000D03*
%TD*%
D11*
%TO.C,Kraftmessung1*%
X156110000Y-153980000D03*
D12*
X153570000Y-153980000D03*
X151030000Y-153980000D03*
%TD*%
D10*
%TO.C,TP2*%
X126660000Y-109970000D03*
%TD*%
%TO.C,TP6*%
X153010000Y-140820000D03*
%TD*%
D11*
%TO.C,Anenometer1*%
X137940000Y-153990000D03*
D12*
X135400000Y-153990000D03*
X132860000Y-153990000D03*
X130320000Y-153990000D03*
X127780000Y-153990000D03*
X125240000Y-153990000D03*
X122700000Y-153990000D03*
%TD*%
D10*
%TO.C,TP5*%
X156340000Y-140810000D03*
%TD*%
D11*
%TO.C,J5*%
X170477500Y-75590000D03*
D12*
X170477500Y-78130000D03*
%TD*%
D11*
%TO.C,J4*%
X170470000Y-61780000D03*
D12*
X170470000Y-64320000D03*
%TD*%
D13*
%TO.C,*%
X114820000Y-51990000D03*
%TD*%
D14*
%TO.C,Spannungsversorgung_1*%
X109690000Y-28960000D03*
D15*
X106190000Y-28960000D03*
%TD*%
D16*
%TO.C,U13*%
X107673000Y-46830000D03*
D17*
X110213000Y-46830000D03*
X112753000Y-46830000D03*
%TD*%
D10*
%TO.C,TP1*%
X154550000Y-67620000D03*
%TD*%
D13*
%TO.C,*%
X163100000Y-53300000D03*
%TD*%
D11*
%TO.C,Endschalter_Vorne1*%
X165200000Y-27540000D03*
D12*
X167740000Y-27540000D03*
X170280000Y-27540000D03*
%TD*%
D11*
%TO.C,Motor_Logik1*%
X119650000Y-27540000D03*
D12*
X122190000Y-27540000D03*
X124730000Y-27540000D03*
X127270000Y-27540000D03*
X129810000Y-27540000D03*
X132350000Y-27540000D03*
X134890000Y-27540000D03*
X137430000Y-27540000D03*
X139970000Y-27540000D03*
X142510000Y-27540000D03*
%TD*%
D13*
%TO.C,*%
X116090000Y-128190000D03*
%TD*%
D10*
%TO.C,TP7*%
X119550000Y-129510000D03*
%TD*%
%TO.C,TP9*%
X135930000Y-128340000D03*
%TD*%
D14*
%TO.C,Motor_Spannungsversorgung1*%
X106260000Y-152540000D03*
D15*
X109760000Y-152540000D03*
%TD*%
D11*
%TO.C,Abstandssensor1*%
X147030000Y-153990000D03*
D12*
X144490000Y-153990000D03*
X141950000Y-153990000D03*
%TD*%
D13*
%TO.C,*%
X161800000Y-128200000D03*
%TD*%
D10*
%TO.C,TP8*%
X125110000Y-135310000D03*
%TD*%
D18*
%TO.C,CN7*%
X163000000Y-57020000D03*
D19*
X160460000Y-57020000D03*
X163000000Y-59560000D03*
X160460000Y-59560000D03*
X163000000Y-62100000D03*
X160460000Y-62100000D03*
X163000000Y-64640000D03*
X160460000Y-64640000D03*
X163000000Y-67180000D03*
X160460000Y-67180000D03*
X163000000Y-69720000D03*
X160460000Y-69720000D03*
X163000000Y-72260000D03*
X160460000Y-72260000D03*
X163000000Y-74800000D03*
X160460000Y-74800000D03*
X163000000Y-77340000D03*
X160460000Y-77340000D03*
X163000000Y-79880000D03*
X160460000Y-79880000D03*
%TD*%
D18*
%TO.C,CN10*%
X163010000Y-83750000D03*
D19*
X160470000Y-83750000D03*
X163010000Y-86290000D03*
X160470000Y-86290000D03*
X163010000Y-88830000D03*
X160470000Y-88830000D03*
X163010000Y-91370000D03*
X160470000Y-91370000D03*
X163010000Y-93910000D03*
X160470000Y-93910000D03*
X163010000Y-96450000D03*
X160470000Y-96450000D03*
X163010000Y-98990000D03*
X160470000Y-98990000D03*
X163010000Y-101530000D03*
X160470000Y-101530000D03*
X163010000Y-104070000D03*
X160470000Y-104070000D03*
X163010000Y-106610000D03*
X160470000Y-106610000D03*
X163010000Y-109150000D03*
X160470000Y-109150000D03*
X163010000Y-111690000D03*
X160470000Y-111690000D03*
X163010000Y-114230000D03*
X160470000Y-114230000D03*
X163010000Y-116770000D03*
X160470000Y-116770000D03*
X163010000Y-119310000D03*
X160470000Y-119310000D03*
X163010000Y-121850000D03*
X160470000Y-121850000D03*
X163010000Y-124390000D03*
X160470000Y-124390000D03*
%TD*%
D18*
%TO.C,CN8*%
X117380000Y-65960000D03*
D19*
X114840000Y-65960000D03*
X117380000Y-68500000D03*
X114840000Y-68500000D03*
X117380000Y-71040000D03*
X114840000Y-71040000D03*
X117380000Y-73580000D03*
X114840000Y-73580000D03*
X117380000Y-76120000D03*
X114840000Y-76120000D03*
X117380000Y-78660000D03*
X114840000Y-78660000D03*
X117380000Y-81200000D03*
X114840000Y-81200000D03*
X117380000Y-83740000D03*
X114840000Y-83740000D03*
%TD*%
D18*
%TO.C,CN9*%
X117380000Y-88830000D03*
D19*
X114840000Y-88830000D03*
X117380000Y-91370000D03*
X114840000Y-91370000D03*
X117380000Y-93910000D03*
X114840000Y-93910000D03*
X117380000Y-96450000D03*
X114840000Y-96450000D03*
X117380000Y-98990000D03*
X114840000Y-98990000D03*
X117380000Y-101530000D03*
X114840000Y-101530000D03*
X117380000Y-104070000D03*
X114840000Y-104070000D03*
X117380000Y-106610000D03*
X114840000Y-106610000D03*
X117380000Y-109150000D03*
X114840000Y-109150000D03*
X117380000Y-111690000D03*
X114840000Y-111690000D03*
X117380000Y-114230000D03*
X114840000Y-114230000D03*
X117380000Y-116770000D03*
X114840000Y-116770000D03*
X117380000Y-119310000D03*
X114840000Y-119310000D03*
X117380000Y-121850000D03*
X114840000Y-121850000D03*
X117380000Y-124390000D03*
X114840000Y-124390000D03*
%TD*%
M02*
