%TF.GenerationSoftware,KiCad,Pcbnew,7.0.1*%
%TF.CreationDate,2023-05-11T12:12:14+02:00*%
%TF.ProjectId,STM32_F439ZI_Shield,53544d33-325f-4463-9433-395a495f5368,rev?*%
%TF.SameCoordinates,Original*%
%TF.FileFunction,Plated,1,2,PTH,Drill*%
%TF.FilePolarity,Positive*%
%FSLAX46Y46*%
G04 Gerber Fmt 4.6, Leading zero omitted, Abs format (unit mm)*
G04 Created by KiCad (PCBNEW 7.0.1) date 2023-05-11 12:12:14*
%MOMM*%
%LPD*%
G01*
G04 APERTURE LIST*
%TA.AperFunction,ViaDrill*%
%ADD10C,0.900000*%
%TD*%
%TA.AperFunction,ComponentDrill*%
%ADD11C,1.000000*%
%TD*%
%TA.AperFunction,ComponentDrill*%
%ADD12C,1.100000*%
%TD*%
%TA.AperFunction,ComponentDrill*%
%ADD13C,1.200000*%
%TD*%
%TA.AperFunction,ComponentDrill*%
%ADD14C,1.300000*%
%TD*%
G04 APERTURE END LIST*
D10*
X109900000Y-134940000D03*
X110330000Y-55700000D03*
X111870000Y-78660000D03*
X113230000Y-142580000D03*
X115970000Y-134170000D03*
X116360000Y-46040000D03*
X116460000Y-138160000D03*
X119580000Y-37000000D03*
X120030000Y-103430000D03*
X120350000Y-68180000D03*
X120650000Y-61400000D03*
X122030353Y-36920353D03*
X122137500Y-146550000D03*
X123200000Y-112740000D03*
X124440000Y-99820000D03*
X124730000Y-46040000D03*
X125140000Y-36860000D03*
X126597500Y-72700000D03*
X126960000Y-52980000D03*
X128200000Y-36920000D03*
X128400000Y-60000000D03*
X128640000Y-144540000D03*
X132880000Y-73380000D03*
X133450000Y-53030000D03*
X134940000Y-102770000D03*
X135190000Y-60050000D03*
X135830000Y-36830000D03*
X138870000Y-95270000D03*
X138890000Y-89430000D03*
X138930000Y-83530000D03*
X139220000Y-73360000D03*
X139780000Y-53030000D03*
X140560000Y-36840000D03*
X141090000Y-70920000D03*
X142530000Y-75150000D03*
X143510000Y-142242500D03*
X145370000Y-72830000D03*
X146280000Y-50760000D03*
X146290000Y-53390000D03*
X146290000Y-55089503D03*
X147100000Y-101200000D03*
X147100000Y-108640000D03*
X147100000Y-132040000D03*
X147100000Y-139360000D03*
X147110000Y-93740000D03*
X147120000Y-116490000D03*
X147120000Y-124380000D03*
X148910000Y-53390000D03*
X148910000Y-55089503D03*
X155980000Y-149320000D03*
X156575000Y-129855000D03*
X156785500Y-133510000D03*
X159720000Y-130650000D03*
X159750000Y-133510000D03*
X161140000Y-148930000D03*
X162880000Y-135540000D03*
X162960000Y-32540000D03*
X168480000Y-135510000D03*
X170630000Y-72390000D03*
X172560000Y-32910000D03*
X173080000Y-148930000D03*
D11*
%TO.C,U13*%
X107673000Y-46830000D03*
X110213000Y-46830000D03*
X112753000Y-46830000D03*
%TO.C,CN8*%
X114840000Y-65960000D03*
X114840000Y-68500000D03*
X114840000Y-71040000D03*
X114840000Y-73580000D03*
X114840000Y-76120000D03*
X114840000Y-78660000D03*
X114840000Y-81200000D03*
X114840000Y-83740000D03*
%TO.C,CN9*%
X114840000Y-88830000D03*
X114840000Y-91370000D03*
X114840000Y-93910000D03*
X114840000Y-96450000D03*
X114840000Y-98990000D03*
X114840000Y-101530000D03*
X114840000Y-104070000D03*
X114840000Y-106610000D03*
X114840000Y-109150000D03*
X114840000Y-111690000D03*
X114840000Y-114230000D03*
X114840000Y-116770000D03*
X114840000Y-119310000D03*
X114840000Y-121850000D03*
X114840000Y-124390000D03*
%TO.C,CN8*%
X117380000Y-65960000D03*
X117380000Y-68500000D03*
X117380000Y-71040000D03*
X117380000Y-73580000D03*
X117380000Y-76120000D03*
X117380000Y-78660000D03*
X117380000Y-81200000D03*
X117380000Y-83740000D03*
%TO.C,CN9*%
X117380000Y-88830000D03*
X117380000Y-91370000D03*
X117380000Y-93910000D03*
X117380000Y-96450000D03*
X117380000Y-98990000D03*
X117380000Y-101530000D03*
X117380000Y-104070000D03*
X117380000Y-106610000D03*
X117380000Y-109150000D03*
X117380000Y-111690000D03*
X117380000Y-114230000D03*
X117380000Y-116770000D03*
X117380000Y-119310000D03*
X117380000Y-121850000D03*
X117380000Y-124390000D03*
%TO.C,TP7*%
X119550000Y-129510000D03*
%TO.C,TP8*%
X125110000Y-135310000D03*
%TO.C,TP2*%
X126660000Y-109970000D03*
%TO.C,TP10*%
X128405000Y-128495000D03*
%TO.C,TP9*%
X135930000Y-128340000D03*
%TO.C,TP6*%
X153010000Y-140820000D03*
%TO.C,TP1*%
X154550000Y-67620000D03*
%TO.C,TP5*%
X156340000Y-140810000D03*
%TO.C,CN7*%
X160460000Y-57020000D03*
X160460000Y-59560000D03*
X160460000Y-62100000D03*
X160460000Y-64640000D03*
X160460000Y-67180000D03*
X160460000Y-69720000D03*
X160460000Y-72260000D03*
X160460000Y-74800000D03*
X160460000Y-77340000D03*
X160460000Y-79880000D03*
%TO.C,CN10*%
X160470000Y-83750000D03*
X160470000Y-86290000D03*
X160470000Y-88830000D03*
X160470000Y-91370000D03*
X160470000Y-93910000D03*
X160470000Y-96450000D03*
X160470000Y-98990000D03*
X160470000Y-101530000D03*
X160470000Y-104070000D03*
X160470000Y-106610000D03*
X160470000Y-109150000D03*
X160470000Y-111690000D03*
X160470000Y-114230000D03*
X160470000Y-116770000D03*
X160470000Y-119310000D03*
X160470000Y-121850000D03*
X160470000Y-124390000D03*
%TO.C,CN7*%
X163000000Y-57020000D03*
X163000000Y-59560000D03*
X163000000Y-62100000D03*
X163000000Y-64640000D03*
X163000000Y-67180000D03*
X163000000Y-69720000D03*
X163000000Y-72260000D03*
X163000000Y-74800000D03*
X163000000Y-77340000D03*
X163000000Y-79880000D03*
%TO.C,CN10*%
X163010000Y-83750000D03*
X163010000Y-86290000D03*
X163010000Y-88830000D03*
X163010000Y-91370000D03*
X163010000Y-93910000D03*
X163010000Y-96450000D03*
X163010000Y-98990000D03*
X163010000Y-101530000D03*
X163010000Y-104070000D03*
X163010000Y-106610000D03*
X163010000Y-109150000D03*
X163010000Y-111690000D03*
X163010000Y-114230000D03*
X163010000Y-116770000D03*
X163010000Y-119310000D03*
X163010000Y-121850000D03*
X163010000Y-124390000D03*
D12*
%TO.C,Motor_Logik1*%
X119650000Y-27540000D03*
X122190000Y-27540000D03*
%TO.C,Anenometer1*%
X122700000Y-153990000D03*
%TO.C,Motor_Logik1*%
X124730000Y-27540000D03*
%TO.C,Anenometer1*%
X125240000Y-153990000D03*
%TO.C,Motor_Logik1*%
X127270000Y-27540000D03*
%TO.C,Anenometer1*%
X127780000Y-153990000D03*
%TO.C,Motor_Logik1*%
X129810000Y-27540000D03*
%TO.C,Anenometer1*%
X130320000Y-153990000D03*
%TO.C,Motor_Logik1*%
X132350000Y-27540000D03*
%TO.C,Anenometer1*%
X132860000Y-153990000D03*
%TO.C,Motor_Logik1*%
X134890000Y-27540000D03*
%TO.C,Anenometer1*%
X135400000Y-153990000D03*
%TO.C,Motor_Logik1*%
X137430000Y-27540000D03*
%TO.C,Anenometer1*%
X137940000Y-153990000D03*
%TO.C,Motor_Logik1*%
X139970000Y-27540000D03*
X142510000Y-27540000D03*
D13*
%TO.C,Spannungsversorgung_1*%
X106190000Y-28960000D03*
%TO.C,Motor_Spannungsversorgung1*%
X106260000Y-152540000D03*
%TO.C,Spannungsversorgung_1*%
X109690000Y-28960000D03*
%TO.C,Motor_Spannungsversorgung1*%
X109760000Y-152540000D03*
D14*
%TO.C,Abstandssensor1*%
X141950000Y-153990000D03*
X144490000Y-153990000D03*
X147030000Y-153990000D03*
%TO.C,Kraftmessung1*%
X151030000Y-153980000D03*
X153570000Y-153980000D03*
%TO.C,Endschalter_Hinten1*%
X154520000Y-27550000D03*
%TO.C,Kraftmessung1*%
X156110000Y-153980000D03*
%TO.C,Endschalter_Hinten1*%
X157060000Y-27550000D03*
X159600000Y-27550000D03*
%TO.C,Endschalter_Vorne1*%
X165200000Y-27540000D03*
%TO.C,J3*%
X166520000Y-153980000D03*
%TO.C,Endschalter_Vorne1*%
X167740000Y-27540000D03*
%TO.C,J3*%
X169060000Y-153980000D03*
%TO.C,Endschalter_Vorne1*%
X170280000Y-27540000D03*
%TO.C,J4*%
X170470000Y-61780000D03*
X170470000Y-64320000D03*
%TO.C,J5*%
X170477500Y-75590000D03*
X170477500Y-78130000D03*
M02*
