%TF.GenerationSoftware,KiCad,Pcbnew,7.0.1*%
%TF.CreationDate,2023-05-11T12:12:18+02:00*%
%TF.ProjectId,STM32_F439ZI_Shield,53544d33-325f-4463-9433-395a495f5368,rev?*%
%TF.SameCoordinates,Original*%
%TF.FileFunction,Drillmap*%
%TF.FilePolarity,Positive*%
%FSLAX45Y45*%
G04 Gerber Fmt 4.5, Leading zero omitted, Abs format (unit mm)*
G04 Created by KiCad (PCBNEW 7.0.1) date 2023-05-11 12:12:18*
%MOMM*%
%LPD*%
G01*
G04 APERTURE LIST*
%ADD10C,0.100000*%
%ADD11C,0.200000*%
%ADD12C,0.090000*%
%ADD13C,0.110000*%
%ADD14C,0.120000*%
%ADD15C,0.130000*%
G04 APERTURE END LIST*
D10*
X14456000Y-9044000D02*
G75*
G03*
X14456000Y-9044000I-120000J0D01*
G01*
X15207000Y-11315000D02*
G75*
G03*
X15207000Y-11315000I-120000J0D01*
G01*
X17364000Y-2406000D02*
X10425000Y-2406000D01*
X14455000Y-9789000D02*
G75*
G03*
X14455000Y-9789000I-120000J0D01*
G01*
X15206000Y-12065000D02*
G75*
G03*
X15206000Y-12065000I-120000J0D01*
G01*
X17395000Y-15715000D02*
X17395000Y-2436000D01*
X14455000Y-12833000D02*
G75*
G03*
X14455000Y-12833000I-120000J0D01*
G01*
X15206000Y-9044000D02*
G75*
G03*
X15206000Y-9044000I-120000J0D01*
G01*
X17394997Y-2435983D02*
G75*
G03*
X17364000Y-2406000I-29997J3D01*
G01*
X14457000Y-11315000D02*
G75*
G03*
X14457000Y-11315000I-120000J0D01*
G01*
X10426000Y-15746000D02*
X17365000Y-15746000D01*
X14455000Y-13591000D02*
G75*
G03*
X14455000Y-13591000I-120000J0D01*
G01*
X14455000Y-10538000D02*
G75*
G03*
X14455000Y-10538000I-120000J0D01*
G01*
X10395000Y-15716000D02*
X10395000Y-2436000D01*
X10395012Y-15716089D02*
G75*
G03*
X10426000Y-15746000I27998J-2001D01*
G01*
X15205000Y-10538000D02*
G75*
G03*
X15205000Y-10538000I-120000J0D01*
G01*
X15205000Y-12833000D02*
G75*
G03*
X15205000Y-12833000I-120000J0D01*
G01*
X14456000Y-12065000D02*
G75*
G03*
X14456000Y-12065000I-120000J0D01*
G01*
X17365000Y-15746016D02*
G75*
G03*
X17395000Y-15715000I0J30017D01*
G01*
X15205000Y-9789000D02*
G75*
G03*
X15205000Y-9789000I-120000J0D01*
G01*
X10425017Y-2406279D02*
G75*
G03*
X10395000Y-2436000I2013J-32051D01*
G01*
X15205000Y-13591000D02*
G75*
G03*
X15205000Y-13591000I-120000J0D01*
G01*
D11*
D12*
X10945000Y-13449000D02*
X11035000Y-13539000D01*
X11035000Y-13449000D02*
X10945000Y-13539000D01*
X10988000Y-5525000D02*
X11078000Y-5615000D01*
X11078000Y-5525000D02*
X10988000Y-5615000D01*
X11142000Y-7821000D02*
X11232000Y-7911000D01*
X11232000Y-7821000D02*
X11142000Y-7911000D01*
X11278000Y-14213000D02*
X11368000Y-14303000D01*
X11368000Y-14213000D02*
X11278000Y-14303000D01*
X11552000Y-13372000D02*
X11642000Y-13462000D01*
X11642000Y-13372000D02*
X11552000Y-13462000D01*
X11591000Y-4559000D02*
X11681000Y-4649000D01*
X11681000Y-4559000D02*
X11591000Y-4649000D01*
X11601000Y-13771000D02*
X11691000Y-13861000D01*
X11691000Y-13771000D02*
X11601000Y-13861000D01*
X11913000Y-3655000D02*
X12003000Y-3745000D01*
X12003000Y-3655000D02*
X11913000Y-3745000D01*
X11958000Y-10298000D02*
X12048000Y-10388000D01*
X12048000Y-10298000D02*
X11958000Y-10388000D01*
X11990000Y-6773000D02*
X12080000Y-6863000D01*
X12080000Y-6773000D02*
X11990000Y-6863000D01*
X12020000Y-6095000D02*
X12110000Y-6185000D01*
X12110000Y-6095000D02*
X12020000Y-6185000D01*
X12158035Y-3647035D02*
X12248035Y-3737035D01*
X12248035Y-3647035D02*
X12158035Y-3737035D01*
X12168750Y-14610000D02*
X12258750Y-14700000D01*
X12258750Y-14610000D02*
X12168750Y-14700000D01*
X12275000Y-11229000D02*
X12365000Y-11319000D01*
X12365000Y-11229000D02*
X12275000Y-11319000D01*
X12399000Y-9937000D02*
X12489000Y-10027000D01*
X12489000Y-9937000D02*
X12399000Y-10027000D01*
X12428000Y-4559000D02*
X12518000Y-4649000D01*
X12518000Y-4559000D02*
X12428000Y-4649000D01*
X12469000Y-3641000D02*
X12559000Y-3731000D01*
X12559000Y-3641000D02*
X12469000Y-3731000D01*
X12614750Y-7225000D02*
X12704750Y-7315000D01*
X12704750Y-7225000D02*
X12614750Y-7315000D01*
X12651000Y-5253000D02*
X12741000Y-5343000D01*
X12741000Y-5253000D02*
X12651000Y-5343000D01*
X12775000Y-3647000D02*
X12865000Y-3737000D01*
X12865000Y-3647000D02*
X12775000Y-3737000D01*
X12795000Y-5955000D02*
X12885000Y-6045000D01*
X12885000Y-5955000D02*
X12795000Y-6045000D01*
X12819000Y-14409000D02*
X12909000Y-14499000D01*
X12909000Y-14409000D02*
X12819000Y-14499000D01*
X13243000Y-7293000D02*
X13333000Y-7383000D01*
X13333000Y-7293000D02*
X13243000Y-7383000D01*
X13300000Y-5258000D02*
X13390000Y-5348000D01*
X13390000Y-5258000D02*
X13300000Y-5348000D01*
X13449000Y-10232000D02*
X13539000Y-10322000D01*
X13539000Y-10232000D02*
X13449000Y-10322000D01*
X13474000Y-5960000D02*
X13564000Y-6050000D01*
X13564000Y-5960000D02*
X13474000Y-6050000D01*
X13538000Y-3638000D02*
X13628000Y-3728000D01*
X13628000Y-3638000D02*
X13538000Y-3728000D01*
X13842000Y-9482000D02*
X13932000Y-9572000D01*
X13932000Y-9482000D02*
X13842000Y-9572000D01*
X13844000Y-8898000D02*
X13934000Y-8988000D01*
X13934000Y-8898000D02*
X13844000Y-8988000D01*
X13848000Y-8308000D02*
X13938000Y-8398000D01*
X13938000Y-8308000D02*
X13848000Y-8398000D01*
X13877000Y-7291000D02*
X13967000Y-7381000D01*
X13967000Y-7291000D02*
X13877000Y-7381000D01*
X13933000Y-5258000D02*
X14023000Y-5348000D01*
X14023000Y-5258000D02*
X13933000Y-5348000D01*
X14011000Y-3639000D02*
X14101000Y-3729000D01*
X14101000Y-3639000D02*
X14011000Y-3729000D01*
X14064000Y-7047000D02*
X14154000Y-7137000D01*
X14154000Y-7047000D02*
X14064000Y-7137000D01*
X14208000Y-7470000D02*
X14298000Y-7560000D01*
X14298000Y-7470000D02*
X14208000Y-7560000D01*
X14306000Y-14179250D02*
X14396000Y-14269250D01*
X14396000Y-14179250D02*
X14306000Y-14269250D01*
X14492000Y-7238000D02*
X14582000Y-7328000D01*
X14582000Y-7238000D02*
X14492000Y-7328000D01*
X14583000Y-5031000D02*
X14673000Y-5121000D01*
X14673000Y-5031000D02*
X14583000Y-5121000D01*
X14584000Y-5294000D02*
X14674000Y-5384000D01*
X14674000Y-5294000D02*
X14584000Y-5384000D01*
X14584000Y-5463950D02*
X14674000Y-5553950D01*
X14674000Y-5463950D02*
X14584000Y-5553950D01*
X14665000Y-10075000D02*
X14755000Y-10165000D01*
X14755000Y-10075000D02*
X14665000Y-10165000D01*
X14665000Y-10819000D02*
X14755000Y-10909000D01*
X14755000Y-10819000D02*
X14665000Y-10909000D01*
X14665000Y-13159000D02*
X14755000Y-13249000D01*
X14755000Y-13159000D02*
X14665000Y-13249000D01*
X14665000Y-13891000D02*
X14755000Y-13981000D01*
X14755000Y-13891000D02*
X14665000Y-13981000D01*
X14666000Y-9329000D02*
X14756000Y-9419000D01*
X14756000Y-9329000D02*
X14666000Y-9419000D01*
X14667000Y-11604000D02*
X14757000Y-11694000D01*
X14757000Y-11604000D02*
X14667000Y-11694000D01*
X14667000Y-12393000D02*
X14757000Y-12483000D01*
X14757000Y-12393000D02*
X14667000Y-12483000D01*
X14846000Y-5294000D02*
X14936000Y-5384000D01*
X14936000Y-5294000D02*
X14846000Y-5384000D01*
X14846000Y-5463950D02*
X14936000Y-5553950D01*
X14936000Y-5463950D02*
X14846000Y-5553950D01*
X15553000Y-14887000D02*
X15643000Y-14977000D01*
X15643000Y-14887000D02*
X15553000Y-14977000D01*
X15612500Y-12940500D02*
X15702500Y-13030500D01*
X15702500Y-12940500D02*
X15612500Y-13030500D01*
X15633550Y-13306000D02*
X15723550Y-13396000D01*
X15723550Y-13306000D02*
X15633550Y-13396000D01*
X15927000Y-13020000D02*
X16017000Y-13110000D01*
X16017000Y-13020000D02*
X15927000Y-13110000D01*
X15930000Y-13306000D02*
X16020000Y-13396000D01*
X16020000Y-13306000D02*
X15930000Y-13396000D01*
X16069000Y-14848000D02*
X16159000Y-14938000D01*
X16159000Y-14848000D02*
X16069000Y-14938000D01*
X16243000Y-13509000D02*
X16333000Y-13599000D01*
X16333000Y-13509000D02*
X16243000Y-13599000D01*
X16251000Y-3209000D02*
X16341000Y-3299000D01*
X16341000Y-3209000D02*
X16251000Y-3299000D01*
X16803000Y-13506000D02*
X16893000Y-13596000D01*
X16893000Y-13506000D02*
X16803000Y-13596000D01*
X17018000Y-7194000D02*
X17108000Y-7284000D01*
X17108000Y-7194000D02*
X17018000Y-7284000D01*
X17211000Y-3246000D02*
X17301000Y-3336000D01*
X17301000Y-3246000D02*
X17211000Y-3336000D01*
X17263000Y-14848000D02*
X17353000Y-14938000D01*
X17353000Y-14848000D02*
X17263000Y-14938000D01*
D10*
X10817300Y-4683000D02*
G75*
G03*
X10817300Y-4683000I-50000J0D01*
G01*
X11071300Y-4683000D02*
G75*
G03*
X11071300Y-4683000I-50000J0D01*
G01*
X11325300Y-4683000D02*
G75*
G03*
X11325300Y-4683000I-50000J0D01*
G01*
X11534000Y-6596000D02*
G75*
G03*
X11534000Y-6596000I-50000J0D01*
G01*
X11534000Y-6850000D02*
G75*
G03*
X11534000Y-6850000I-50000J0D01*
G01*
X11534000Y-7104000D02*
G75*
G03*
X11534000Y-7104000I-50000J0D01*
G01*
X11534000Y-7358000D02*
G75*
G03*
X11534000Y-7358000I-50000J0D01*
G01*
X11534000Y-7612000D02*
G75*
G03*
X11534000Y-7612000I-50000J0D01*
G01*
X11534000Y-7866000D02*
G75*
G03*
X11534000Y-7866000I-50000J0D01*
G01*
X11534000Y-8120000D02*
G75*
G03*
X11534000Y-8120000I-50000J0D01*
G01*
X11534000Y-8374000D02*
G75*
G03*
X11534000Y-8374000I-50000J0D01*
G01*
X11534000Y-8883000D02*
G75*
G03*
X11534000Y-8883000I-50000J0D01*
G01*
X11534000Y-9137000D02*
G75*
G03*
X11534000Y-9137000I-50000J0D01*
G01*
X11534000Y-9391000D02*
G75*
G03*
X11534000Y-9391000I-50000J0D01*
G01*
X11534000Y-9645000D02*
G75*
G03*
X11534000Y-9645000I-50000J0D01*
G01*
X11534000Y-9899000D02*
G75*
G03*
X11534000Y-9899000I-50000J0D01*
G01*
X11534000Y-10153000D02*
G75*
G03*
X11534000Y-10153000I-50000J0D01*
G01*
X11534000Y-10407000D02*
G75*
G03*
X11534000Y-10407000I-50000J0D01*
G01*
X11534000Y-10661000D02*
G75*
G03*
X11534000Y-10661000I-50000J0D01*
G01*
X11534000Y-10915000D02*
G75*
G03*
X11534000Y-10915000I-50000J0D01*
G01*
X11534000Y-11169000D02*
G75*
G03*
X11534000Y-11169000I-50000J0D01*
G01*
X11534000Y-11423000D02*
G75*
G03*
X11534000Y-11423000I-50000J0D01*
G01*
X11534000Y-11677000D02*
G75*
G03*
X11534000Y-11677000I-50000J0D01*
G01*
X11534000Y-11931000D02*
G75*
G03*
X11534000Y-11931000I-50000J0D01*
G01*
X11534000Y-12185000D02*
G75*
G03*
X11534000Y-12185000I-50000J0D01*
G01*
X11534000Y-12439000D02*
G75*
G03*
X11534000Y-12439000I-50000J0D01*
G01*
X11788000Y-6596000D02*
G75*
G03*
X11788000Y-6596000I-50000J0D01*
G01*
X11788000Y-6850000D02*
G75*
G03*
X11788000Y-6850000I-50000J0D01*
G01*
X11788000Y-7104000D02*
G75*
G03*
X11788000Y-7104000I-50000J0D01*
G01*
X11788000Y-7358000D02*
G75*
G03*
X11788000Y-7358000I-50000J0D01*
G01*
X11788000Y-7612000D02*
G75*
G03*
X11788000Y-7612000I-50000J0D01*
G01*
X11788000Y-7866000D02*
G75*
G03*
X11788000Y-7866000I-50000J0D01*
G01*
X11788000Y-8120000D02*
G75*
G03*
X11788000Y-8120000I-50000J0D01*
G01*
X11788000Y-8374000D02*
G75*
G03*
X11788000Y-8374000I-50000J0D01*
G01*
X11788000Y-8883000D02*
G75*
G03*
X11788000Y-8883000I-50000J0D01*
G01*
X11788000Y-9137000D02*
G75*
G03*
X11788000Y-9137000I-50000J0D01*
G01*
X11788000Y-9391000D02*
G75*
G03*
X11788000Y-9391000I-50000J0D01*
G01*
X11788000Y-9645000D02*
G75*
G03*
X11788000Y-9645000I-50000J0D01*
G01*
X11788000Y-9899000D02*
G75*
G03*
X11788000Y-9899000I-50000J0D01*
G01*
X11788000Y-10153000D02*
G75*
G03*
X11788000Y-10153000I-50000J0D01*
G01*
X11788000Y-10407000D02*
G75*
G03*
X11788000Y-10407000I-50000J0D01*
G01*
X11788000Y-10661000D02*
G75*
G03*
X11788000Y-10661000I-50000J0D01*
G01*
X11788000Y-10915000D02*
G75*
G03*
X11788000Y-10915000I-50000J0D01*
G01*
X11788000Y-11169000D02*
G75*
G03*
X11788000Y-11169000I-50000J0D01*
G01*
X11788000Y-11423000D02*
G75*
G03*
X11788000Y-11423000I-50000J0D01*
G01*
X11788000Y-11677000D02*
G75*
G03*
X11788000Y-11677000I-50000J0D01*
G01*
X11788000Y-11931000D02*
G75*
G03*
X11788000Y-11931000I-50000J0D01*
G01*
X11788000Y-12185000D02*
G75*
G03*
X11788000Y-12185000I-50000J0D01*
G01*
X11788000Y-12439000D02*
G75*
G03*
X11788000Y-12439000I-50000J0D01*
G01*
X12005000Y-12951000D02*
G75*
G03*
X12005000Y-12951000I-50000J0D01*
G01*
X12561000Y-13531000D02*
G75*
G03*
X12561000Y-13531000I-50000J0D01*
G01*
X12716000Y-10997000D02*
G75*
G03*
X12716000Y-10997000I-50000J0D01*
G01*
X12890500Y-12849500D02*
G75*
G03*
X12890500Y-12849500I-50000J0D01*
G01*
X13643000Y-12834000D02*
G75*
G03*
X13643000Y-12834000I-50000J0D01*
G01*
X15351000Y-14082000D02*
G75*
G03*
X15351000Y-14082000I-50000J0D01*
G01*
X15505000Y-6762000D02*
G75*
G03*
X15505000Y-6762000I-50000J0D01*
G01*
X15684000Y-14081000D02*
G75*
G03*
X15684000Y-14081000I-50000J0D01*
G01*
X16096000Y-5702000D02*
G75*
G03*
X16096000Y-5702000I-50000J0D01*
G01*
X16096000Y-5956000D02*
G75*
G03*
X16096000Y-5956000I-50000J0D01*
G01*
X16096000Y-6210000D02*
G75*
G03*
X16096000Y-6210000I-50000J0D01*
G01*
X16096000Y-6464000D02*
G75*
G03*
X16096000Y-6464000I-50000J0D01*
G01*
X16096000Y-6718000D02*
G75*
G03*
X16096000Y-6718000I-50000J0D01*
G01*
X16096000Y-6972000D02*
G75*
G03*
X16096000Y-6972000I-50000J0D01*
G01*
X16096000Y-7226000D02*
G75*
G03*
X16096000Y-7226000I-50000J0D01*
G01*
X16096000Y-7480000D02*
G75*
G03*
X16096000Y-7480000I-50000J0D01*
G01*
X16096000Y-7734000D02*
G75*
G03*
X16096000Y-7734000I-50000J0D01*
G01*
X16096000Y-7988000D02*
G75*
G03*
X16096000Y-7988000I-50000J0D01*
G01*
X16097000Y-8375000D02*
G75*
G03*
X16097000Y-8375000I-50000J0D01*
G01*
X16097000Y-8629000D02*
G75*
G03*
X16097000Y-8629000I-50000J0D01*
G01*
X16097000Y-8883000D02*
G75*
G03*
X16097000Y-8883000I-50000J0D01*
G01*
X16097000Y-9137000D02*
G75*
G03*
X16097000Y-9137000I-50000J0D01*
G01*
X16097000Y-9391000D02*
G75*
G03*
X16097000Y-9391000I-50000J0D01*
G01*
X16097000Y-9645000D02*
G75*
G03*
X16097000Y-9645000I-50000J0D01*
G01*
X16097000Y-9899000D02*
G75*
G03*
X16097000Y-9899000I-50000J0D01*
G01*
X16097000Y-10153000D02*
G75*
G03*
X16097000Y-10153000I-50000J0D01*
G01*
X16097000Y-10407000D02*
G75*
G03*
X16097000Y-10407000I-50000J0D01*
G01*
X16097000Y-10661000D02*
G75*
G03*
X16097000Y-10661000I-50000J0D01*
G01*
X16097000Y-10915000D02*
G75*
G03*
X16097000Y-10915000I-50000J0D01*
G01*
X16097000Y-11169000D02*
G75*
G03*
X16097000Y-11169000I-50000J0D01*
G01*
X16097000Y-11423000D02*
G75*
G03*
X16097000Y-11423000I-50000J0D01*
G01*
X16097000Y-11677000D02*
G75*
G03*
X16097000Y-11677000I-50000J0D01*
G01*
X16097000Y-11931000D02*
G75*
G03*
X16097000Y-11931000I-50000J0D01*
G01*
X16097000Y-12185000D02*
G75*
G03*
X16097000Y-12185000I-50000J0D01*
G01*
X16097000Y-12439000D02*
G75*
G03*
X16097000Y-12439000I-50000J0D01*
G01*
X16350000Y-5702000D02*
G75*
G03*
X16350000Y-5702000I-50000J0D01*
G01*
X16350000Y-5956000D02*
G75*
G03*
X16350000Y-5956000I-50000J0D01*
G01*
X16350000Y-6210000D02*
G75*
G03*
X16350000Y-6210000I-50000J0D01*
G01*
X16350000Y-6464000D02*
G75*
G03*
X16350000Y-6464000I-50000J0D01*
G01*
X16350000Y-6718000D02*
G75*
G03*
X16350000Y-6718000I-50000J0D01*
G01*
X16350000Y-6972000D02*
G75*
G03*
X16350000Y-6972000I-50000J0D01*
G01*
X16350000Y-7226000D02*
G75*
G03*
X16350000Y-7226000I-50000J0D01*
G01*
X16350000Y-7480000D02*
G75*
G03*
X16350000Y-7480000I-50000J0D01*
G01*
X16350000Y-7734000D02*
G75*
G03*
X16350000Y-7734000I-50000J0D01*
G01*
X16350000Y-7988000D02*
G75*
G03*
X16350000Y-7988000I-50000J0D01*
G01*
X16351000Y-8375000D02*
G75*
G03*
X16351000Y-8375000I-50000J0D01*
G01*
X16351000Y-8629000D02*
G75*
G03*
X16351000Y-8629000I-50000J0D01*
G01*
X16351000Y-8883000D02*
G75*
G03*
X16351000Y-8883000I-50000J0D01*
G01*
X16351000Y-9137000D02*
G75*
G03*
X16351000Y-9137000I-50000J0D01*
G01*
X16351000Y-9391000D02*
G75*
G03*
X16351000Y-9391000I-50000J0D01*
G01*
X16351000Y-9645000D02*
G75*
G03*
X16351000Y-9645000I-50000J0D01*
G01*
X16351000Y-9899000D02*
G75*
G03*
X16351000Y-9899000I-50000J0D01*
G01*
X16351000Y-10153000D02*
G75*
G03*
X16351000Y-10153000I-50000J0D01*
G01*
X16351000Y-10407000D02*
G75*
G03*
X16351000Y-10407000I-50000J0D01*
G01*
X16351000Y-10661000D02*
G75*
G03*
X16351000Y-10661000I-50000J0D01*
G01*
X16351000Y-10915000D02*
G75*
G03*
X16351000Y-10915000I-50000J0D01*
G01*
X16351000Y-11169000D02*
G75*
G03*
X16351000Y-11169000I-50000J0D01*
G01*
X16351000Y-11423000D02*
G75*
G03*
X16351000Y-11423000I-50000J0D01*
G01*
X16351000Y-11677000D02*
G75*
G03*
X16351000Y-11677000I-50000J0D01*
G01*
X16351000Y-11931000D02*
G75*
G03*
X16351000Y-11931000I-50000J0D01*
G01*
X16351000Y-12185000D02*
G75*
G03*
X16351000Y-12185000I-50000J0D01*
G01*
X16351000Y-12439000D02*
G75*
G03*
X16351000Y-12439000I-50000J0D01*
G01*
D13*
X11965000Y-2699000D02*
X11965000Y-2809000D01*
X11910000Y-2754000D02*
X12020000Y-2754000D01*
X12219000Y-2699000D02*
X12219000Y-2809000D01*
X12164000Y-2754000D02*
X12274000Y-2754000D01*
X12270000Y-15344000D02*
X12270000Y-15454000D01*
X12215000Y-15399000D02*
X12325000Y-15399000D01*
X12473000Y-2699000D02*
X12473000Y-2809000D01*
X12418000Y-2754000D02*
X12528000Y-2754000D01*
X12524000Y-15344000D02*
X12524000Y-15454000D01*
X12469000Y-15399000D02*
X12579000Y-15399000D01*
X12727000Y-2699000D02*
X12727000Y-2809000D01*
X12672000Y-2754000D02*
X12782000Y-2754000D01*
X12778000Y-15344000D02*
X12778000Y-15454000D01*
X12723000Y-15399000D02*
X12833000Y-15399000D01*
X12981000Y-2699000D02*
X12981000Y-2809000D01*
X12926000Y-2754000D02*
X13036000Y-2754000D01*
X13032000Y-15344000D02*
X13032000Y-15454000D01*
X12977000Y-15399000D02*
X13087000Y-15399000D01*
X13235000Y-2699000D02*
X13235000Y-2809000D01*
X13180000Y-2754000D02*
X13290000Y-2754000D01*
X13286000Y-15344000D02*
X13286000Y-15454000D01*
X13231000Y-15399000D02*
X13341000Y-15399000D01*
X13489000Y-2699000D02*
X13489000Y-2809000D01*
X13434000Y-2754000D02*
X13544000Y-2754000D01*
X13540000Y-15344000D02*
X13540000Y-15454000D01*
X13485000Y-15399000D02*
X13595000Y-15399000D01*
X13743000Y-2699000D02*
X13743000Y-2809000D01*
X13688000Y-2754000D02*
X13798000Y-2754000D01*
X13794000Y-15344000D02*
X13794000Y-15454000D01*
X13739000Y-15399000D02*
X13849000Y-15399000D01*
X13997000Y-2699000D02*
X13997000Y-2809000D01*
X13942000Y-2754000D02*
X14052000Y-2754000D01*
X14251000Y-2699000D02*
X14251000Y-2809000D01*
X14196000Y-2754000D02*
X14306000Y-2754000D01*
D14*
X10661427Y-2938427D02*
X10661427Y-2853573D01*
X10576573Y-2853573D01*
X10576573Y-2938427D01*
X10661427Y-2938427D01*
X10668427Y-15296427D02*
X10668427Y-15211573D01*
X10583573Y-15211573D01*
X10583573Y-15296427D01*
X10668427Y-15296427D01*
X11011427Y-2938427D02*
X11011427Y-2853573D01*
X10926573Y-2853573D01*
X10926573Y-2938427D01*
X11011427Y-2938427D01*
X11018427Y-15296427D02*
X11018427Y-15211573D01*
X10933573Y-15211573D01*
X10933573Y-15296427D01*
X11018427Y-15296427D01*
D15*
X14195000Y-15464000D02*
X14260000Y-15399000D01*
X14195000Y-15334000D01*
X14130000Y-15399000D01*
X14195000Y-15464000D01*
X14449000Y-15464000D02*
X14514000Y-15399000D01*
X14449000Y-15334000D01*
X14384000Y-15399000D01*
X14449000Y-15464000D01*
X14703000Y-15464000D02*
X14768000Y-15399000D01*
X14703000Y-15334000D01*
X14638000Y-15399000D01*
X14703000Y-15464000D01*
X15103000Y-15463000D02*
X15168000Y-15398000D01*
X15103000Y-15333000D01*
X15038000Y-15398000D01*
X15103000Y-15463000D01*
X15357000Y-15463000D02*
X15422000Y-15398000D01*
X15357000Y-15333000D01*
X15292000Y-15398000D01*
X15357000Y-15463000D01*
X15452000Y-2820000D02*
X15517000Y-2755000D01*
X15452000Y-2690000D01*
X15387000Y-2755000D01*
X15452000Y-2820000D01*
X15611000Y-15463000D02*
X15676000Y-15398000D01*
X15611000Y-15333000D01*
X15546000Y-15398000D01*
X15611000Y-15463000D01*
X15706000Y-2820000D02*
X15771000Y-2755000D01*
X15706000Y-2690000D01*
X15641000Y-2755000D01*
X15706000Y-2820000D01*
X15960000Y-2820000D02*
X16025000Y-2755000D01*
X15960000Y-2690000D01*
X15895000Y-2755000D01*
X15960000Y-2820000D01*
X16520000Y-2819000D02*
X16585000Y-2754000D01*
X16520000Y-2689000D01*
X16455000Y-2754000D01*
X16520000Y-2819000D01*
X16652000Y-15463000D02*
X16717000Y-15398000D01*
X16652000Y-15333000D01*
X16587000Y-15398000D01*
X16652000Y-15463000D01*
X16774000Y-2819000D02*
X16839000Y-2754000D01*
X16774000Y-2689000D01*
X16709000Y-2754000D01*
X16774000Y-2819000D01*
X16906000Y-15463000D02*
X16971000Y-15398000D01*
X16906000Y-15333000D01*
X16841000Y-15398000D01*
X16906000Y-15463000D01*
X17028000Y-2819000D02*
X17093000Y-2754000D01*
X17028000Y-2689000D01*
X16963000Y-2754000D01*
X17028000Y-2819000D01*
X17047000Y-6243000D02*
X17112000Y-6178000D01*
X17047000Y-6113000D01*
X16982000Y-6178000D01*
X17047000Y-6243000D01*
X17047000Y-6497000D02*
X17112000Y-6432000D01*
X17047000Y-6367000D01*
X16982000Y-6432000D01*
X17047000Y-6497000D01*
X17047750Y-7624000D02*
X17112750Y-7559000D01*
X17047750Y-7494000D01*
X16982750Y-7559000D01*
X17047750Y-7624000D01*
X17047750Y-7878000D02*
X17112750Y-7813000D01*
X17047750Y-7748000D01*
X16982750Y-7813000D01*
X17047750Y-7878000D01*
D11*
X10637559Y-16063683D02*
X10637559Y-15863683D01*
X10637559Y-15863683D02*
X10685178Y-15863683D01*
X10685178Y-15863683D02*
X10713750Y-15873207D01*
X10713750Y-15873207D02*
X10732797Y-15892255D01*
X10732797Y-15892255D02*
X10742321Y-15911302D01*
X10742321Y-15911302D02*
X10751845Y-15949398D01*
X10751845Y-15949398D02*
X10751845Y-15977969D01*
X10751845Y-15977969D02*
X10742321Y-16016064D01*
X10742321Y-16016064D02*
X10732797Y-16035112D01*
X10732797Y-16035112D02*
X10713750Y-16054160D01*
X10713750Y-16054160D02*
X10685178Y-16063683D01*
X10685178Y-16063683D02*
X10637559Y-16063683D01*
X10837559Y-16063683D02*
X10837559Y-15930350D01*
X10837559Y-15968445D02*
X10847083Y-15949398D01*
X10847083Y-15949398D02*
X10856607Y-15939874D01*
X10856607Y-15939874D02*
X10875655Y-15930350D01*
X10875655Y-15930350D02*
X10894702Y-15930350D01*
X10961369Y-16063683D02*
X10961369Y-15930350D01*
X10961369Y-15863683D02*
X10951845Y-15873207D01*
X10951845Y-15873207D02*
X10961369Y-15882731D01*
X10961369Y-15882731D02*
X10970893Y-15873207D01*
X10970893Y-15873207D02*
X10961369Y-15863683D01*
X10961369Y-15863683D02*
X10961369Y-15882731D01*
X11085178Y-16063683D02*
X11066131Y-16054160D01*
X11066131Y-16054160D02*
X11056607Y-16035112D01*
X11056607Y-16035112D02*
X11056607Y-15863683D01*
X11189940Y-16063683D02*
X11170893Y-16054160D01*
X11170893Y-16054160D02*
X11161369Y-16035112D01*
X11161369Y-16035112D02*
X11161369Y-15863683D01*
X11418512Y-16063683D02*
X11418512Y-15863683D01*
X11418512Y-15863683D02*
X11485178Y-16006541D01*
X11485178Y-16006541D02*
X11551845Y-15863683D01*
X11551845Y-15863683D02*
X11551845Y-16063683D01*
X11732797Y-16063683D02*
X11732797Y-15958922D01*
X11732797Y-15958922D02*
X11723274Y-15939874D01*
X11723274Y-15939874D02*
X11704226Y-15930350D01*
X11704226Y-15930350D02*
X11666131Y-15930350D01*
X11666131Y-15930350D02*
X11647083Y-15939874D01*
X11732797Y-16054160D02*
X11713750Y-16063683D01*
X11713750Y-16063683D02*
X11666131Y-16063683D01*
X11666131Y-16063683D02*
X11647083Y-16054160D01*
X11647083Y-16054160D02*
X11637559Y-16035112D01*
X11637559Y-16035112D02*
X11637559Y-16016064D01*
X11637559Y-16016064D02*
X11647083Y-15997017D01*
X11647083Y-15997017D02*
X11666131Y-15987493D01*
X11666131Y-15987493D02*
X11713750Y-15987493D01*
X11713750Y-15987493D02*
X11732797Y-15977969D01*
X11828035Y-15930350D02*
X11828035Y-16130350D01*
X11828035Y-15939874D02*
X11847083Y-15930350D01*
X11847083Y-15930350D02*
X11885178Y-15930350D01*
X11885178Y-15930350D02*
X11904226Y-15939874D01*
X11904226Y-15939874D02*
X11913750Y-15949398D01*
X11913750Y-15949398D02*
X11923274Y-15968445D01*
X11923274Y-15968445D02*
X11923274Y-16025588D01*
X11923274Y-16025588D02*
X11913750Y-16044636D01*
X11913750Y-16044636D02*
X11904226Y-16054160D01*
X11904226Y-16054160D02*
X11885178Y-16063683D01*
X11885178Y-16063683D02*
X11847083Y-16063683D01*
X11847083Y-16063683D02*
X11828035Y-16054160D01*
X12008988Y-16044636D02*
X12018512Y-16054160D01*
X12018512Y-16054160D02*
X12008988Y-16063683D01*
X12008988Y-16063683D02*
X11999464Y-16054160D01*
X11999464Y-16054160D02*
X12008988Y-16044636D01*
X12008988Y-16044636D02*
X12008988Y-16063683D01*
X12008988Y-15939874D02*
X12018512Y-15949398D01*
X12018512Y-15949398D02*
X12008988Y-15958922D01*
X12008988Y-15958922D02*
X11999464Y-15949398D01*
X11999464Y-15949398D02*
X12008988Y-15939874D01*
X12008988Y-15939874D02*
X12008988Y-15958922D01*
D12*
X10299940Y-16346160D02*
X10389940Y-16436160D01*
X10389940Y-16346160D02*
X10299940Y-16436160D01*
D11*
X10675655Y-16283683D02*
X10694702Y-16283683D01*
X10694702Y-16283683D02*
X10713750Y-16293207D01*
X10713750Y-16293207D02*
X10723274Y-16302731D01*
X10723274Y-16302731D02*
X10732797Y-16321779D01*
X10732797Y-16321779D02*
X10742321Y-16359874D01*
X10742321Y-16359874D02*
X10742321Y-16407493D01*
X10742321Y-16407493D02*
X10732797Y-16445588D01*
X10732797Y-16445588D02*
X10723274Y-16464636D01*
X10723274Y-16464636D02*
X10713750Y-16474160D01*
X10713750Y-16474160D02*
X10694702Y-16483683D01*
X10694702Y-16483683D02*
X10675655Y-16483683D01*
X10675655Y-16483683D02*
X10656607Y-16474160D01*
X10656607Y-16474160D02*
X10647083Y-16464636D01*
X10647083Y-16464636D02*
X10637559Y-16445588D01*
X10637559Y-16445588D02*
X10628036Y-16407493D01*
X10628036Y-16407493D02*
X10628036Y-16359874D01*
X10628036Y-16359874D02*
X10637559Y-16321779D01*
X10637559Y-16321779D02*
X10647083Y-16302731D01*
X10647083Y-16302731D02*
X10656607Y-16293207D01*
X10656607Y-16293207D02*
X10675655Y-16283683D01*
X10828036Y-16464636D02*
X10837559Y-16474160D01*
X10837559Y-16474160D02*
X10828036Y-16483683D01*
X10828036Y-16483683D02*
X10818512Y-16474160D01*
X10818512Y-16474160D02*
X10828036Y-16464636D01*
X10828036Y-16464636D02*
X10828036Y-16483683D01*
X10932797Y-16483683D02*
X10970893Y-16483683D01*
X10970893Y-16483683D02*
X10989940Y-16474160D01*
X10989940Y-16474160D02*
X10999464Y-16464636D01*
X10999464Y-16464636D02*
X11018512Y-16436064D01*
X11018512Y-16436064D02*
X11028036Y-16397969D01*
X11028036Y-16397969D02*
X11028036Y-16321779D01*
X11028036Y-16321779D02*
X11018512Y-16302731D01*
X11018512Y-16302731D02*
X11008988Y-16293207D01*
X11008988Y-16293207D02*
X10989940Y-16283683D01*
X10989940Y-16283683D02*
X10951845Y-16283683D01*
X10951845Y-16283683D02*
X10932797Y-16293207D01*
X10932797Y-16293207D02*
X10923274Y-16302731D01*
X10923274Y-16302731D02*
X10913750Y-16321779D01*
X10913750Y-16321779D02*
X10913750Y-16369398D01*
X10913750Y-16369398D02*
X10923274Y-16388445D01*
X10923274Y-16388445D02*
X10932797Y-16397969D01*
X10932797Y-16397969D02*
X10951845Y-16407493D01*
X10951845Y-16407493D02*
X10989940Y-16407493D01*
X10989940Y-16407493D02*
X11008988Y-16397969D01*
X11008988Y-16397969D02*
X11018512Y-16388445D01*
X11018512Y-16388445D02*
X11028036Y-16369398D01*
X11151845Y-16283683D02*
X11170893Y-16283683D01*
X11170893Y-16283683D02*
X11189940Y-16293207D01*
X11189940Y-16293207D02*
X11199464Y-16302731D01*
X11199464Y-16302731D02*
X11208988Y-16321779D01*
X11208988Y-16321779D02*
X11218512Y-16359874D01*
X11218512Y-16359874D02*
X11218512Y-16407493D01*
X11218512Y-16407493D02*
X11208988Y-16445588D01*
X11208988Y-16445588D02*
X11199464Y-16464636D01*
X11199464Y-16464636D02*
X11189940Y-16474160D01*
X11189940Y-16474160D02*
X11170893Y-16483683D01*
X11170893Y-16483683D02*
X11151845Y-16483683D01*
X11151845Y-16483683D02*
X11132797Y-16474160D01*
X11132797Y-16474160D02*
X11123274Y-16464636D01*
X11123274Y-16464636D02*
X11113750Y-16445588D01*
X11113750Y-16445588D02*
X11104226Y-16407493D01*
X11104226Y-16407493D02*
X11104226Y-16359874D01*
X11104226Y-16359874D02*
X11113750Y-16321779D01*
X11113750Y-16321779D02*
X11123274Y-16302731D01*
X11123274Y-16302731D02*
X11132797Y-16293207D01*
X11132797Y-16293207D02*
X11151845Y-16283683D01*
X11342321Y-16283683D02*
X11361369Y-16283683D01*
X11361369Y-16283683D02*
X11380416Y-16293207D01*
X11380416Y-16293207D02*
X11389940Y-16302731D01*
X11389940Y-16302731D02*
X11399464Y-16321779D01*
X11399464Y-16321779D02*
X11408988Y-16359874D01*
X11408988Y-16359874D02*
X11408988Y-16407493D01*
X11408988Y-16407493D02*
X11399464Y-16445588D01*
X11399464Y-16445588D02*
X11389940Y-16464636D01*
X11389940Y-16464636D02*
X11380416Y-16474160D01*
X11380416Y-16474160D02*
X11361369Y-16483683D01*
X11361369Y-16483683D02*
X11342321Y-16483683D01*
X11342321Y-16483683D02*
X11323274Y-16474160D01*
X11323274Y-16474160D02*
X11313750Y-16464636D01*
X11313750Y-16464636D02*
X11304226Y-16445588D01*
X11304226Y-16445588D02*
X11294702Y-16407493D01*
X11294702Y-16407493D02*
X11294702Y-16359874D01*
X11294702Y-16359874D02*
X11304226Y-16321779D01*
X11304226Y-16321779D02*
X11313750Y-16302731D01*
X11313750Y-16302731D02*
X11323274Y-16293207D01*
X11323274Y-16293207D02*
X11342321Y-16283683D01*
X11494702Y-16483683D02*
X11494702Y-16350350D01*
X11494702Y-16369398D02*
X11504226Y-16359874D01*
X11504226Y-16359874D02*
X11523274Y-16350350D01*
X11523274Y-16350350D02*
X11551845Y-16350350D01*
X11551845Y-16350350D02*
X11570893Y-16359874D01*
X11570893Y-16359874D02*
X11580416Y-16378922D01*
X11580416Y-16378922D02*
X11580416Y-16483683D01*
X11580416Y-16378922D02*
X11589940Y-16359874D01*
X11589940Y-16359874D02*
X11608988Y-16350350D01*
X11608988Y-16350350D02*
X11637559Y-16350350D01*
X11637559Y-16350350D02*
X11656607Y-16359874D01*
X11656607Y-16359874D02*
X11666131Y-16378922D01*
X11666131Y-16378922D02*
X11666131Y-16483683D01*
X11761369Y-16483683D02*
X11761369Y-16350350D01*
X11761369Y-16369398D02*
X11770893Y-16359874D01*
X11770893Y-16359874D02*
X11789940Y-16350350D01*
X11789940Y-16350350D02*
X11818512Y-16350350D01*
X11818512Y-16350350D02*
X11837559Y-16359874D01*
X11837559Y-16359874D02*
X11847083Y-16378922D01*
X11847083Y-16378922D02*
X11847083Y-16483683D01*
X11847083Y-16378922D02*
X11856607Y-16359874D01*
X11856607Y-16359874D02*
X11875655Y-16350350D01*
X11875655Y-16350350D02*
X11904226Y-16350350D01*
X11904226Y-16350350D02*
X11923274Y-16359874D01*
X11923274Y-16359874D02*
X11932797Y-16378922D01*
X11932797Y-16378922D02*
X11932797Y-16483683D01*
X12323274Y-16274160D02*
X12151845Y-16531302D01*
X12580417Y-16283683D02*
X12599464Y-16283683D01*
X12599464Y-16283683D02*
X12618512Y-16293207D01*
X12618512Y-16293207D02*
X12628036Y-16302731D01*
X12628036Y-16302731D02*
X12637559Y-16321779D01*
X12637559Y-16321779D02*
X12647083Y-16359874D01*
X12647083Y-16359874D02*
X12647083Y-16407493D01*
X12647083Y-16407493D02*
X12637559Y-16445588D01*
X12637559Y-16445588D02*
X12628036Y-16464636D01*
X12628036Y-16464636D02*
X12618512Y-16474160D01*
X12618512Y-16474160D02*
X12599464Y-16483683D01*
X12599464Y-16483683D02*
X12580417Y-16483683D01*
X12580417Y-16483683D02*
X12561369Y-16474160D01*
X12561369Y-16474160D02*
X12551845Y-16464636D01*
X12551845Y-16464636D02*
X12542321Y-16445588D01*
X12542321Y-16445588D02*
X12532798Y-16407493D01*
X12532798Y-16407493D02*
X12532798Y-16359874D01*
X12532798Y-16359874D02*
X12542321Y-16321779D01*
X12542321Y-16321779D02*
X12551845Y-16302731D01*
X12551845Y-16302731D02*
X12561369Y-16293207D01*
X12561369Y-16293207D02*
X12580417Y-16283683D01*
X12732798Y-16464636D02*
X12742321Y-16474160D01*
X12742321Y-16474160D02*
X12732798Y-16483683D01*
X12732798Y-16483683D02*
X12723274Y-16474160D01*
X12723274Y-16474160D02*
X12732798Y-16464636D01*
X12732798Y-16464636D02*
X12732798Y-16483683D01*
X12866131Y-16283683D02*
X12885179Y-16283683D01*
X12885179Y-16283683D02*
X12904226Y-16293207D01*
X12904226Y-16293207D02*
X12913750Y-16302731D01*
X12913750Y-16302731D02*
X12923274Y-16321779D01*
X12923274Y-16321779D02*
X12932798Y-16359874D01*
X12932798Y-16359874D02*
X12932798Y-16407493D01*
X12932798Y-16407493D02*
X12923274Y-16445588D01*
X12923274Y-16445588D02*
X12913750Y-16464636D01*
X12913750Y-16464636D02*
X12904226Y-16474160D01*
X12904226Y-16474160D02*
X12885179Y-16483683D01*
X12885179Y-16483683D02*
X12866131Y-16483683D01*
X12866131Y-16483683D02*
X12847083Y-16474160D01*
X12847083Y-16474160D02*
X12837559Y-16464636D01*
X12837559Y-16464636D02*
X12828036Y-16445588D01*
X12828036Y-16445588D02*
X12818512Y-16407493D01*
X12818512Y-16407493D02*
X12818512Y-16359874D01*
X12818512Y-16359874D02*
X12828036Y-16321779D01*
X12828036Y-16321779D02*
X12837559Y-16302731D01*
X12837559Y-16302731D02*
X12847083Y-16293207D01*
X12847083Y-16293207D02*
X12866131Y-16283683D01*
X12999464Y-16283683D02*
X13123274Y-16283683D01*
X13123274Y-16283683D02*
X13056607Y-16359874D01*
X13056607Y-16359874D02*
X13085179Y-16359874D01*
X13085179Y-16359874D02*
X13104226Y-16369398D01*
X13104226Y-16369398D02*
X13113750Y-16378922D01*
X13113750Y-16378922D02*
X13123274Y-16397969D01*
X13123274Y-16397969D02*
X13123274Y-16445588D01*
X13123274Y-16445588D02*
X13113750Y-16464636D01*
X13113750Y-16464636D02*
X13104226Y-16474160D01*
X13104226Y-16474160D02*
X13085179Y-16483683D01*
X13085179Y-16483683D02*
X13028036Y-16483683D01*
X13028036Y-16483683D02*
X13008988Y-16474160D01*
X13008988Y-16474160D02*
X12999464Y-16464636D01*
X13304226Y-16283683D02*
X13208988Y-16283683D01*
X13208988Y-16283683D02*
X13199464Y-16378922D01*
X13199464Y-16378922D02*
X13208988Y-16369398D01*
X13208988Y-16369398D02*
X13228036Y-16359874D01*
X13228036Y-16359874D02*
X13275655Y-16359874D01*
X13275655Y-16359874D02*
X13294702Y-16369398D01*
X13294702Y-16369398D02*
X13304226Y-16378922D01*
X13304226Y-16378922D02*
X13313750Y-16397969D01*
X13313750Y-16397969D02*
X13313750Y-16445588D01*
X13313750Y-16445588D02*
X13304226Y-16464636D01*
X13304226Y-16464636D02*
X13294702Y-16474160D01*
X13294702Y-16474160D02*
X13275655Y-16483683D01*
X13275655Y-16483683D02*
X13228036Y-16483683D01*
X13228036Y-16483683D02*
X13208988Y-16474160D01*
X13208988Y-16474160D02*
X13199464Y-16464636D01*
X13485179Y-16350350D02*
X13485179Y-16483683D01*
X13437559Y-16274160D02*
X13389940Y-16417017D01*
X13389940Y-16417017D02*
X13513750Y-16417017D01*
X13580417Y-16283683D02*
X13580417Y-16321779D01*
X13656607Y-16283683D02*
X13656607Y-16321779D01*
X13951845Y-16559874D02*
X13942321Y-16550350D01*
X13942321Y-16550350D02*
X13923274Y-16521779D01*
X13923274Y-16521779D02*
X13913750Y-16502731D01*
X13913750Y-16502731D02*
X13904226Y-16474160D01*
X13904226Y-16474160D02*
X13894702Y-16426541D01*
X13894702Y-16426541D02*
X13894702Y-16388445D01*
X13894702Y-16388445D02*
X13904226Y-16340826D01*
X13904226Y-16340826D02*
X13913750Y-16312255D01*
X13913750Y-16312255D02*
X13923274Y-16293207D01*
X13923274Y-16293207D02*
X13942321Y-16264636D01*
X13942321Y-16264636D02*
X13951845Y-16255112D01*
X14113750Y-16283683D02*
X14075655Y-16283683D01*
X14075655Y-16283683D02*
X14056607Y-16293207D01*
X14056607Y-16293207D02*
X14047083Y-16302731D01*
X14047083Y-16302731D02*
X14028036Y-16331302D01*
X14028036Y-16331302D02*
X14018512Y-16369398D01*
X14018512Y-16369398D02*
X14018512Y-16445588D01*
X14018512Y-16445588D02*
X14028036Y-16464636D01*
X14028036Y-16464636D02*
X14037560Y-16474160D01*
X14037560Y-16474160D02*
X14056607Y-16483683D01*
X14056607Y-16483683D02*
X14094702Y-16483683D01*
X14094702Y-16483683D02*
X14113750Y-16474160D01*
X14113750Y-16474160D02*
X14123274Y-16464636D01*
X14123274Y-16464636D02*
X14132798Y-16445588D01*
X14132798Y-16445588D02*
X14132798Y-16397969D01*
X14132798Y-16397969D02*
X14123274Y-16378922D01*
X14123274Y-16378922D02*
X14113750Y-16369398D01*
X14113750Y-16369398D02*
X14094702Y-16359874D01*
X14094702Y-16359874D02*
X14056607Y-16359874D01*
X14056607Y-16359874D02*
X14037560Y-16369398D01*
X14037560Y-16369398D02*
X14028036Y-16378922D01*
X14028036Y-16378922D02*
X14018512Y-16397969D01*
X14323274Y-16483683D02*
X14208988Y-16483683D01*
X14266131Y-16483683D02*
X14266131Y-16283683D01*
X14266131Y-16283683D02*
X14247083Y-16312255D01*
X14247083Y-16312255D02*
X14228036Y-16331302D01*
X14228036Y-16331302D02*
X14208988Y-16340826D01*
X14561369Y-16483683D02*
X14561369Y-16283683D01*
X14647083Y-16483683D02*
X14647083Y-16378922D01*
X14647083Y-16378922D02*
X14637560Y-16359874D01*
X14637560Y-16359874D02*
X14618512Y-16350350D01*
X14618512Y-16350350D02*
X14589941Y-16350350D01*
X14589941Y-16350350D02*
X14570893Y-16359874D01*
X14570893Y-16359874D02*
X14561369Y-16369398D01*
X14770893Y-16483683D02*
X14751845Y-16474160D01*
X14751845Y-16474160D02*
X14742322Y-16464636D01*
X14742322Y-16464636D02*
X14732798Y-16445588D01*
X14732798Y-16445588D02*
X14732798Y-16388445D01*
X14732798Y-16388445D02*
X14742322Y-16369398D01*
X14742322Y-16369398D02*
X14751845Y-16359874D01*
X14751845Y-16359874D02*
X14770893Y-16350350D01*
X14770893Y-16350350D02*
X14799464Y-16350350D01*
X14799464Y-16350350D02*
X14818512Y-16359874D01*
X14818512Y-16359874D02*
X14828036Y-16369398D01*
X14828036Y-16369398D02*
X14837560Y-16388445D01*
X14837560Y-16388445D02*
X14837560Y-16445588D01*
X14837560Y-16445588D02*
X14828036Y-16464636D01*
X14828036Y-16464636D02*
X14818512Y-16474160D01*
X14818512Y-16474160D02*
X14799464Y-16483683D01*
X14799464Y-16483683D02*
X14770893Y-16483683D01*
X14951845Y-16483683D02*
X14932798Y-16474160D01*
X14932798Y-16474160D02*
X14923274Y-16455112D01*
X14923274Y-16455112D02*
X14923274Y-16283683D01*
X15104226Y-16474160D02*
X15085179Y-16483683D01*
X15085179Y-16483683D02*
X15047083Y-16483683D01*
X15047083Y-16483683D02*
X15028036Y-16474160D01*
X15028036Y-16474160D02*
X15018512Y-16455112D01*
X15018512Y-16455112D02*
X15018512Y-16378922D01*
X15018512Y-16378922D02*
X15028036Y-16359874D01*
X15028036Y-16359874D02*
X15047083Y-16350350D01*
X15047083Y-16350350D02*
X15085179Y-16350350D01*
X15085179Y-16350350D02*
X15104226Y-16359874D01*
X15104226Y-16359874D02*
X15113750Y-16378922D01*
X15113750Y-16378922D02*
X15113750Y-16397969D01*
X15113750Y-16397969D02*
X15018512Y-16417017D01*
X15189941Y-16474160D02*
X15208988Y-16483683D01*
X15208988Y-16483683D02*
X15247083Y-16483683D01*
X15247083Y-16483683D02*
X15266131Y-16474160D01*
X15266131Y-16474160D02*
X15275655Y-16455112D01*
X15275655Y-16455112D02*
X15275655Y-16445588D01*
X15275655Y-16445588D02*
X15266131Y-16426541D01*
X15266131Y-16426541D02*
X15247083Y-16417017D01*
X15247083Y-16417017D02*
X15218512Y-16417017D01*
X15218512Y-16417017D02*
X15199464Y-16407493D01*
X15199464Y-16407493D02*
X15189941Y-16388445D01*
X15189941Y-16388445D02*
X15189941Y-16378922D01*
X15189941Y-16378922D02*
X15199464Y-16359874D01*
X15199464Y-16359874D02*
X15218512Y-16350350D01*
X15218512Y-16350350D02*
X15247083Y-16350350D01*
X15247083Y-16350350D02*
X15266131Y-16359874D01*
X15342322Y-16559874D02*
X15351845Y-16550350D01*
X15351845Y-16550350D02*
X15370893Y-16521779D01*
X15370893Y-16521779D02*
X15380417Y-16502731D01*
X15380417Y-16502731D02*
X15389941Y-16474160D01*
X15389941Y-16474160D02*
X15399464Y-16426541D01*
X15399464Y-16426541D02*
X15399464Y-16388445D01*
X15399464Y-16388445D02*
X15389941Y-16340826D01*
X15389941Y-16340826D02*
X15380417Y-16312255D01*
X15380417Y-16312255D02*
X15370893Y-16293207D01*
X15370893Y-16293207D02*
X15351845Y-16264636D01*
X15351845Y-16264636D02*
X15342322Y-16255112D01*
D10*
X10389940Y-16655160D02*
G75*
G03*
X10389940Y-16655160I-50000J0D01*
G01*
D11*
X10742321Y-16747683D02*
X10628036Y-16747683D01*
X10685178Y-16747683D02*
X10685178Y-16547683D01*
X10685178Y-16547683D02*
X10666131Y-16576255D01*
X10666131Y-16576255D02*
X10647083Y-16595302D01*
X10647083Y-16595302D02*
X10628036Y-16604826D01*
X10828036Y-16728636D02*
X10837559Y-16738160D01*
X10837559Y-16738160D02*
X10828036Y-16747683D01*
X10828036Y-16747683D02*
X10818512Y-16738160D01*
X10818512Y-16738160D02*
X10828036Y-16728636D01*
X10828036Y-16728636D02*
X10828036Y-16747683D01*
X10961369Y-16547683D02*
X10980417Y-16547683D01*
X10980417Y-16547683D02*
X10999464Y-16557207D01*
X10999464Y-16557207D02*
X11008988Y-16566731D01*
X11008988Y-16566731D02*
X11018512Y-16585779D01*
X11018512Y-16585779D02*
X11028036Y-16623874D01*
X11028036Y-16623874D02*
X11028036Y-16671493D01*
X11028036Y-16671493D02*
X11018512Y-16709588D01*
X11018512Y-16709588D02*
X11008988Y-16728636D01*
X11008988Y-16728636D02*
X10999464Y-16738160D01*
X10999464Y-16738160D02*
X10980417Y-16747683D01*
X10980417Y-16747683D02*
X10961369Y-16747683D01*
X10961369Y-16747683D02*
X10942321Y-16738160D01*
X10942321Y-16738160D02*
X10932797Y-16728636D01*
X10932797Y-16728636D02*
X10923274Y-16709588D01*
X10923274Y-16709588D02*
X10913750Y-16671493D01*
X10913750Y-16671493D02*
X10913750Y-16623874D01*
X10913750Y-16623874D02*
X10923274Y-16585779D01*
X10923274Y-16585779D02*
X10932797Y-16566731D01*
X10932797Y-16566731D02*
X10942321Y-16557207D01*
X10942321Y-16557207D02*
X10961369Y-16547683D01*
X11151845Y-16547683D02*
X11170893Y-16547683D01*
X11170893Y-16547683D02*
X11189940Y-16557207D01*
X11189940Y-16557207D02*
X11199464Y-16566731D01*
X11199464Y-16566731D02*
X11208988Y-16585779D01*
X11208988Y-16585779D02*
X11218512Y-16623874D01*
X11218512Y-16623874D02*
X11218512Y-16671493D01*
X11218512Y-16671493D02*
X11208988Y-16709588D01*
X11208988Y-16709588D02*
X11199464Y-16728636D01*
X11199464Y-16728636D02*
X11189940Y-16738160D01*
X11189940Y-16738160D02*
X11170893Y-16747683D01*
X11170893Y-16747683D02*
X11151845Y-16747683D01*
X11151845Y-16747683D02*
X11132797Y-16738160D01*
X11132797Y-16738160D02*
X11123274Y-16728636D01*
X11123274Y-16728636D02*
X11113750Y-16709588D01*
X11113750Y-16709588D02*
X11104226Y-16671493D01*
X11104226Y-16671493D02*
X11104226Y-16623874D01*
X11104226Y-16623874D02*
X11113750Y-16585779D01*
X11113750Y-16585779D02*
X11123274Y-16566731D01*
X11123274Y-16566731D02*
X11132797Y-16557207D01*
X11132797Y-16557207D02*
X11151845Y-16547683D01*
X11342321Y-16547683D02*
X11361369Y-16547683D01*
X11361369Y-16547683D02*
X11380416Y-16557207D01*
X11380416Y-16557207D02*
X11389940Y-16566731D01*
X11389940Y-16566731D02*
X11399464Y-16585779D01*
X11399464Y-16585779D02*
X11408988Y-16623874D01*
X11408988Y-16623874D02*
X11408988Y-16671493D01*
X11408988Y-16671493D02*
X11399464Y-16709588D01*
X11399464Y-16709588D02*
X11389940Y-16728636D01*
X11389940Y-16728636D02*
X11380416Y-16738160D01*
X11380416Y-16738160D02*
X11361369Y-16747683D01*
X11361369Y-16747683D02*
X11342321Y-16747683D01*
X11342321Y-16747683D02*
X11323274Y-16738160D01*
X11323274Y-16738160D02*
X11313750Y-16728636D01*
X11313750Y-16728636D02*
X11304226Y-16709588D01*
X11304226Y-16709588D02*
X11294702Y-16671493D01*
X11294702Y-16671493D02*
X11294702Y-16623874D01*
X11294702Y-16623874D02*
X11304226Y-16585779D01*
X11304226Y-16585779D02*
X11313750Y-16566731D01*
X11313750Y-16566731D02*
X11323274Y-16557207D01*
X11323274Y-16557207D02*
X11342321Y-16547683D01*
X11494702Y-16747683D02*
X11494702Y-16614350D01*
X11494702Y-16633398D02*
X11504226Y-16623874D01*
X11504226Y-16623874D02*
X11523274Y-16614350D01*
X11523274Y-16614350D02*
X11551845Y-16614350D01*
X11551845Y-16614350D02*
X11570893Y-16623874D01*
X11570893Y-16623874D02*
X11580416Y-16642922D01*
X11580416Y-16642922D02*
X11580416Y-16747683D01*
X11580416Y-16642922D02*
X11589940Y-16623874D01*
X11589940Y-16623874D02*
X11608988Y-16614350D01*
X11608988Y-16614350D02*
X11637559Y-16614350D01*
X11637559Y-16614350D02*
X11656607Y-16623874D01*
X11656607Y-16623874D02*
X11666131Y-16642922D01*
X11666131Y-16642922D02*
X11666131Y-16747683D01*
X11761369Y-16747683D02*
X11761369Y-16614350D01*
X11761369Y-16633398D02*
X11770893Y-16623874D01*
X11770893Y-16623874D02*
X11789940Y-16614350D01*
X11789940Y-16614350D02*
X11818512Y-16614350D01*
X11818512Y-16614350D02*
X11837559Y-16623874D01*
X11837559Y-16623874D02*
X11847083Y-16642922D01*
X11847083Y-16642922D02*
X11847083Y-16747683D01*
X11847083Y-16642922D02*
X11856607Y-16623874D01*
X11856607Y-16623874D02*
X11875655Y-16614350D01*
X11875655Y-16614350D02*
X11904226Y-16614350D01*
X11904226Y-16614350D02*
X11923274Y-16623874D01*
X11923274Y-16623874D02*
X11932797Y-16642922D01*
X11932797Y-16642922D02*
X11932797Y-16747683D01*
X12323274Y-16538160D02*
X12151845Y-16795303D01*
X12580417Y-16547683D02*
X12599464Y-16547683D01*
X12599464Y-16547683D02*
X12618512Y-16557207D01*
X12618512Y-16557207D02*
X12628036Y-16566731D01*
X12628036Y-16566731D02*
X12637559Y-16585779D01*
X12637559Y-16585779D02*
X12647083Y-16623874D01*
X12647083Y-16623874D02*
X12647083Y-16671493D01*
X12647083Y-16671493D02*
X12637559Y-16709588D01*
X12637559Y-16709588D02*
X12628036Y-16728636D01*
X12628036Y-16728636D02*
X12618512Y-16738160D01*
X12618512Y-16738160D02*
X12599464Y-16747683D01*
X12599464Y-16747683D02*
X12580417Y-16747683D01*
X12580417Y-16747683D02*
X12561369Y-16738160D01*
X12561369Y-16738160D02*
X12551845Y-16728636D01*
X12551845Y-16728636D02*
X12542321Y-16709588D01*
X12542321Y-16709588D02*
X12532798Y-16671493D01*
X12532798Y-16671493D02*
X12532798Y-16623874D01*
X12532798Y-16623874D02*
X12542321Y-16585779D01*
X12542321Y-16585779D02*
X12551845Y-16566731D01*
X12551845Y-16566731D02*
X12561369Y-16557207D01*
X12561369Y-16557207D02*
X12580417Y-16547683D01*
X12732798Y-16728636D02*
X12742321Y-16738160D01*
X12742321Y-16738160D02*
X12732798Y-16747683D01*
X12732798Y-16747683D02*
X12723274Y-16738160D01*
X12723274Y-16738160D02*
X12732798Y-16728636D01*
X12732798Y-16728636D02*
X12732798Y-16747683D01*
X12866131Y-16547683D02*
X12885179Y-16547683D01*
X12885179Y-16547683D02*
X12904226Y-16557207D01*
X12904226Y-16557207D02*
X12913750Y-16566731D01*
X12913750Y-16566731D02*
X12923274Y-16585779D01*
X12923274Y-16585779D02*
X12932798Y-16623874D01*
X12932798Y-16623874D02*
X12932798Y-16671493D01*
X12932798Y-16671493D02*
X12923274Y-16709588D01*
X12923274Y-16709588D02*
X12913750Y-16728636D01*
X12913750Y-16728636D02*
X12904226Y-16738160D01*
X12904226Y-16738160D02*
X12885179Y-16747683D01*
X12885179Y-16747683D02*
X12866131Y-16747683D01*
X12866131Y-16747683D02*
X12847083Y-16738160D01*
X12847083Y-16738160D02*
X12837559Y-16728636D01*
X12837559Y-16728636D02*
X12828036Y-16709588D01*
X12828036Y-16709588D02*
X12818512Y-16671493D01*
X12818512Y-16671493D02*
X12818512Y-16623874D01*
X12818512Y-16623874D02*
X12828036Y-16585779D01*
X12828036Y-16585779D02*
X12837559Y-16566731D01*
X12837559Y-16566731D02*
X12847083Y-16557207D01*
X12847083Y-16557207D02*
X12866131Y-16547683D01*
X12999464Y-16547683D02*
X13123274Y-16547683D01*
X13123274Y-16547683D02*
X13056607Y-16623874D01*
X13056607Y-16623874D02*
X13085179Y-16623874D01*
X13085179Y-16623874D02*
X13104226Y-16633398D01*
X13104226Y-16633398D02*
X13113750Y-16642922D01*
X13113750Y-16642922D02*
X13123274Y-16661969D01*
X13123274Y-16661969D02*
X13123274Y-16709588D01*
X13123274Y-16709588D02*
X13113750Y-16728636D01*
X13113750Y-16728636D02*
X13104226Y-16738160D01*
X13104226Y-16738160D02*
X13085179Y-16747683D01*
X13085179Y-16747683D02*
X13028036Y-16747683D01*
X13028036Y-16747683D02*
X13008988Y-16738160D01*
X13008988Y-16738160D02*
X12999464Y-16728636D01*
X13218512Y-16747683D02*
X13256607Y-16747683D01*
X13256607Y-16747683D02*
X13275655Y-16738160D01*
X13275655Y-16738160D02*
X13285179Y-16728636D01*
X13285179Y-16728636D02*
X13304226Y-16700064D01*
X13304226Y-16700064D02*
X13313750Y-16661969D01*
X13313750Y-16661969D02*
X13313750Y-16585779D01*
X13313750Y-16585779D02*
X13304226Y-16566731D01*
X13304226Y-16566731D02*
X13294702Y-16557207D01*
X13294702Y-16557207D02*
X13275655Y-16547683D01*
X13275655Y-16547683D02*
X13237559Y-16547683D01*
X13237559Y-16547683D02*
X13218512Y-16557207D01*
X13218512Y-16557207D02*
X13208988Y-16566731D01*
X13208988Y-16566731D02*
X13199464Y-16585779D01*
X13199464Y-16585779D02*
X13199464Y-16633398D01*
X13199464Y-16633398D02*
X13208988Y-16652445D01*
X13208988Y-16652445D02*
X13218512Y-16661969D01*
X13218512Y-16661969D02*
X13237559Y-16671493D01*
X13237559Y-16671493D02*
X13275655Y-16671493D01*
X13275655Y-16671493D02*
X13294702Y-16661969D01*
X13294702Y-16661969D02*
X13304226Y-16652445D01*
X13304226Y-16652445D02*
X13313750Y-16633398D01*
X13485179Y-16614350D02*
X13485179Y-16747683D01*
X13437559Y-16538160D02*
X13389940Y-16681017D01*
X13389940Y-16681017D02*
X13513750Y-16681017D01*
X13580417Y-16547683D02*
X13580417Y-16585779D01*
X13656607Y-16547683D02*
X13656607Y-16585779D01*
X13951845Y-16823874D02*
X13942321Y-16814350D01*
X13942321Y-16814350D02*
X13923274Y-16785779D01*
X13923274Y-16785779D02*
X13913750Y-16766731D01*
X13913750Y-16766731D02*
X13904226Y-16738160D01*
X13904226Y-16738160D02*
X13894702Y-16690541D01*
X13894702Y-16690541D02*
X13894702Y-16652445D01*
X13894702Y-16652445D02*
X13904226Y-16604826D01*
X13904226Y-16604826D02*
X13913750Y-16576255D01*
X13913750Y-16576255D02*
X13923274Y-16557207D01*
X13923274Y-16557207D02*
X13942321Y-16528636D01*
X13942321Y-16528636D02*
X13951845Y-16519112D01*
X14132798Y-16747683D02*
X14018512Y-16747683D01*
X14075655Y-16747683D02*
X14075655Y-16547683D01*
X14075655Y-16547683D02*
X14056607Y-16576255D01*
X14056607Y-16576255D02*
X14037560Y-16595302D01*
X14037560Y-16595302D02*
X14018512Y-16604826D01*
X14323274Y-16747683D02*
X14208988Y-16747683D01*
X14266131Y-16747683D02*
X14266131Y-16547683D01*
X14266131Y-16547683D02*
X14247083Y-16576255D01*
X14247083Y-16576255D02*
X14228036Y-16595302D01*
X14228036Y-16595302D02*
X14208988Y-16604826D01*
X14513750Y-16747683D02*
X14399464Y-16747683D01*
X14456607Y-16747683D02*
X14456607Y-16547683D01*
X14456607Y-16547683D02*
X14437560Y-16576255D01*
X14437560Y-16576255D02*
X14418512Y-16595302D01*
X14418512Y-16595302D02*
X14399464Y-16604826D01*
X14751845Y-16747683D02*
X14751845Y-16547683D01*
X14837560Y-16747683D02*
X14837560Y-16642922D01*
X14837560Y-16642922D02*
X14828036Y-16623874D01*
X14828036Y-16623874D02*
X14808988Y-16614350D01*
X14808988Y-16614350D02*
X14780417Y-16614350D01*
X14780417Y-16614350D02*
X14761369Y-16623874D01*
X14761369Y-16623874D02*
X14751845Y-16633398D01*
X14961369Y-16747683D02*
X14942322Y-16738160D01*
X14942322Y-16738160D02*
X14932798Y-16728636D01*
X14932798Y-16728636D02*
X14923274Y-16709588D01*
X14923274Y-16709588D02*
X14923274Y-16652445D01*
X14923274Y-16652445D02*
X14932798Y-16633398D01*
X14932798Y-16633398D02*
X14942322Y-16623874D01*
X14942322Y-16623874D02*
X14961369Y-16614350D01*
X14961369Y-16614350D02*
X14989941Y-16614350D01*
X14989941Y-16614350D02*
X15008988Y-16623874D01*
X15008988Y-16623874D02*
X15018512Y-16633398D01*
X15018512Y-16633398D02*
X15028036Y-16652445D01*
X15028036Y-16652445D02*
X15028036Y-16709588D01*
X15028036Y-16709588D02*
X15018512Y-16728636D01*
X15018512Y-16728636D02*
X15008988Y-16738160D01*
X15008988Y-16738160D02*
X14989941Y-16747683D01*
X14989941Y-16747683D02*
X14961369Y-16747683D01*
X15142322Y-16747683D02*
X15123274Y-16738160D01*
X15123274Y-16738160D02*
X15113750Y-16719112D01*
X15113750Y-16719112D02*
X15113750Y-16547683D01*
X15294703Y-16738160D02*
X15275655Y-16747683D01*
X15275655Y-16747683D02*
X15237560Y-16747683D01*
X15237560Y-16747683D02*
X15218512Y-16738160D01*
X15218512Y-16738160D02*
X15208988Y-16719112D01*
X15208988Y-16719112D02*
X15208988Y-16642922D01*
X15208988Y-16642922D02*
X15218512Y-16623874D01*
X15218512Y-16623874D02*
X15237560Y-16614350D01*
X15237560Y-16614350D02*
X15275655Y-16614350D01*
X15275655Y-16614350D02*
X15294703Y-16623874D01*
X15294703Y-16623874D02*
X15304226Y-16642922D01*
X15304226Y-16642922D02*
X15304226Y-16661969D01*
X15304226Y-16661969D02*
X15208988Y-16681017D01*
X15380417Y-16738160D02*
X15399464Y-16747683D01*
X15399464Y-16747683D02*
X15437560Y-16747683D01*
X15437560Y-16747683D02*
X15456607Y-16738160D01*
X15456607Y-16738160D02*
X15466131Y-16719112D01*
X15466131Y-16719112D02*
X15466131Y-16709588D01*
X15466131Y-16709588D02*
X15456607Y-16690541D01*
X15456607Y-16690541D02*
X15437560Y-16681017D01*
X15437560Y-16681017D02*
X15408988Y-16681017D01*
X15408988Y-16681017D02*
X15389941Y-16671493D01*
X15389941Y-16671493D02*
X15380417Y-16652445D01*
X15380417Y-16652445D02*
X15380417Y-16642922D01*
X15380417Y-16642922D02*
X15389941Y-16623874D01*
X15389941Y-16623874D02*
X15408988Y-16614350D01*
X15408988Y-16614350D02*
X15437560Y-16614350D01*
X15437560Y-16614350D02*
X15456607Y-16623874D01*
X15532798Y-16823874D02*
X15542322Y-16814350D01*
X15542322Y-16814350D02*
X15561369Y-16785779D01*
X15561369Y-16785779D02*
X15570893Y-16766731D01*
X15570893Y-16766731D02*
X15580417Y-16738160D01*
X15580417Y-16738160D02*
X15589941Y-16690541D01*
X15589941Y-16690541D02*
X15589941Y-16652445D01*
X15589941Y-16652445D02*
X15580417Y-16604826D01*
X15580417Y-16604826D02*
X15570893Y-16576255D01*
X15570893Y-16576255D02*
X15561369Y-16557207D01*
X15561369Y-16557207D02*
X15542322Y-16528636D01*
X15542322Y-16528636D02*
X15532798Y-16519112D01*
D13*
X10334940Y-16864160D02*
X10334940Y-16974160D01*
X10279940Y-16919160D02*
X10389940Y-16919160D01*
D11*
X10742321Y-17011684D02*
X10628036Y-17011684D01*
X10685178Y-17011684D02*
X10685178Y-16811684D01*
X10685178Y-16811684D02*
X10666131Y-16840255D01*
X10666131Y-16840255D02*
X10647083Y-16859303D01*
X10647083Y-16859303D02*
X10628036Y-16868826D01*
X10828036Y-16992636D02*
X10837559Y-17002160D01*
X10837559Y-17002160D02*
X10828036Y-17011684D01*
X10828036Y-17011684D02*
X10818512Y-17002160D01*
X10818512Y-17002160D02*
X10828036Y-16992636D01*
X10828036Y-16992636D02*
X10828036Y-17011684D01*
X11028036Y-17011684D02*
X10913750Y-17011684D01*
X10970893Y-17011684D02*
X10970893Y-16811684D01*
X10970893Y-16811684D02*
X10951845Y-16840255D01*
X10951845Y-16840255D02*
X10932797Y-16859303D01*
X10932797Y-16859303D02*
X10913750Y-16868826D01*
X11151845Y-16811684D02*
X11170893Y-16811684D01*
X11170893Y-16811684D02*
X11189940Y-16821207D01*
X11189940Y-16821207D02*
X11199464Y-16830731D01*
X11199464Y-16830731D02*
X11208988Y-16849779D01*
X11208988Y-16849779D02*
X11218512Y-16887874D01*
X11218512Y-16887874D02*
X11218512Y-16935493D01*
X11218512Y-16935493D02*
X11208988Y-16973588D01*
X11208988Y-16973588D02*
X11199464Y-16992636D01*
X11199464Y-16992636D02*
X11189940Y-17002160D01*
X11189940Y-17002160D02*
X11170893Y-17011684D01*
X11170893Y-17011684D02*
X11151845Y-17011684D01*
X11151845Y-17011684D02*
X11132797Y-17002160D01*
X11132797Y-17002160D02*
X11123274Y-16992636D01*
X11123274Y-16992636D02*
X11113750Y-16973588D01*
X11113750Y-16973588D02*
X11104226Y-16935493D01*
X11104226Y-16935493D02*
X11104226Y-16887874D01*
X11104226Y-16887874D02*
X11113750Y-16849779D01*
X11113750Y-16849779D02*
X11123274Y-16830731D01*
X11123274Y-16830731D02*
X11132797Y-16821207D01*
X11132797Y-16821207D02*
X11151845Y-16811684D01*
X11342321Y-16811684D02*
X11361369Y-16811684D01*
X11361369Y-16811684D02*
X11380416Y-16821207D01*
X11380416Y-16821207D02*
X11389940Y-16830731D01*
X11389940Y-16830731D02*
X11399464Y-16849779D01*
X11399464Y-16849779D02*
X11408988Y-16887874D01*
X11408988Y-16887874D02*
X11408988Y-16935493D01*
X11408988Y-16935493D02*
X11399464Y-16973588D01*
X11399464Y-16973588D02*
X11389940Y-16992636D01*
X11389940Y-16992636D02*
X11380416Y-17002160D01*
X11380416Y-17002160D02*
X11361369Y-17011684D01*
X11361369Y-17011684D02*
X11342321Y-17011684D01*
X11342321Y-17011684D02*
X11323274Y-17002160D01*
X11323274Y-17002160D02*
X11313750Y-16992636D01*
X11313750Y-16992636D02*
X11304226Y-16973588D01*
X11304226Y-16973588D02*
X11294702Y-16935493D01*
X11294702Y-16935493D02*
X11294702Y-16887874D01*
X11294702Y-16887874D02*
X11304226Y-16849779D01*
X11304226Y-16849779D02*
X11313750Y-16830731D01*
X11313750Y-16830731D02*
X11323274Y-16821207D01*
X11323274Y-16821207D02*
X11342321Y-16811684D01*
X11494702Y-17011684D02*
X11494702Y-16878350D01*
X11494702Y-16897398D02*
X11504226Y-16887874D01*
X11504226Y-16887874D02*
X11523274Y-16878350D01*
X11523274Y-16878350D02*
X11551845Y-16878350D01*
X11551845Y-16878350D02*
X11570893Y-16887874D01*
X11570893Y-16887874D02*
X11580416Y-16906922D01*
X11580416Y-16906922D02*
X11580416Y-17011684D01*
X11580416Y-16906922D02*
X11589940Y-16887874D01*
X11589940Y-16887874D02*
X11608988Y-16878350D01*
X11608988Y-16878350D02*
X11637559Y-16878350D01*
X11637559Y-16878350D02*
X11656607Y-16887874D01*
X11656607Y-16887874D02*
X11666131Y-16906922D01*
X11666131Y-16906922D02*
X11666131Y-17011684D01*
X11761369Y-17011684D02*
X11761369Y-16878350D01*
X11761369Y-16897398D02*
X11770893Y-16887874D01*
X11770893Y-16887874D02*
X11789940Y-16878350D01*
X11789940Y-16878350D02*
X11818512Y-16878350D01*
X11818512Y-16878350D02*
X11837559Y-16887874D01*
X11837559Y-16887874D02*
X11847083Y-16906922D01*
X11847083Y-16906922D02*
X11847083Y-17011684D01*
X11847083Y-16906922D02*
X11856607Y-16887874D01*
X11856607Y-16887874D02*
X11875655Y-16878350D01*
X11875655Y-16878350D02*
X11904226Y-16878350D01*
X11904226Y-16878350D02*
X11923274Y-16887874D01*
X11923274Y-16887874D02*
X11932797Y-16906922D01*
X11932797Y-16906922D02*
X11932797Y-17011684D01*
X12323274Y-16802160D02*
X12151845Y-17059303D01*
X12580417Y-16811684D02*
X12599464Y-16811684D01*
X12599464Y-16811684D02*
X12618512Y-16821207D01*
X12618512Y-16821207D02*
X12628036Y-16830731D01*
X12628036Y-16830731D02*
X12637559Y-16849779D01*
X12637559Y-16849779D02*
X12647083Y-16887874D01*
X12647083Y-16887874D02*
X12647083Y-16935493D01*
X12647083Y-16935493D02*
X12637559Y-16973588D01*
X12637559Y-16973588D02*
X12628036Y-16992636D01*
X12628036Y-16992636D02*
X12618512Y-17002160D01*
X12618512Y-17002160D02*
X12599464Y-17011684D01*
X12599464Y-17011684D02*
X12580417Y-17011684D01*
X12580417Y-17011684D02*
X12561369Y-17002160D01*
X12561369Y-17002160D02*
X12551845Y-16992636D01*
X12551845Y-16992636D02*
X12542321Y-16973588D01*
X12542321Y-16973588D02*
X12532798Y-16935493D01*
X12532798Y-16935493D02*
X12532798Y-16887874D01*
X12532798Y-16887874D02*
X12542321Y-16849779D01*
X12542321Y-16849779D02*
X12551845Y-16830731D01*
X12551845Y-16830731D02*
X12561369Y-16821207D01*
X12561369Y-16821207D02*
X12580417Y-16811684D01*
X12732798Y-16992636D02*
X12742321Y-17002160D01*
X12742321Y-17002160D02*
X12732798Y-17011684D01*
X12732798Y-17011684D02*
X12723274Y-17002160D01*
X12723274Y-17002160D02*
X12732798Y-16992636D01*
X12732798Y-16992636D02*
X12732798Y-17011684D01*
X12866131Y-16811684D02*
X12885179Y-16811684D01*
X12885179Y-16811684D02*
X12904226Y-16821207D01*
X12904226Y-16821207D02*
X12913750Y-16830731D01*
X12913750Y-16830731D02*
X12923274Y-16849779D01*
X12923274Y-16849779D02*
X12932798Y-16887874D01*
X12932798Y-16887874D02*
X12932798Y-16935493D01*
X12932798Y-16935493D02*
X12923274Y-16973588D01*
X12923274Y-16973588D02*
X12913750Y-16992636D01*
X12913750Y-16992636D02*
X12904226Y-17002160D01*
X12904226Y-17002160D02*
X12885179Y-17011684D01*
X12885179Y-17011684D02*
X12866131Y-17011684D01*
X12866131Y-17011684D02*
X12847083Y-17002160D01*
X12847083Y-17002160D02*
X12837559Y-16992636D01*
X12837559Y-16992636D02*
X12828036Y-16973588D01*
X12828036Y-16973588D02*
X12818512Y-16935493D01*
X12818512Y-16935493D02*
X12818512Y-16887874D01*
X12818512Y-16887874D02*
X12828036Y-16849779D01*
X12828036Y-16849779D02*
X12837559Y-16830731D01*
X12837559Y-16830731D02*
X12847083Y-16821207D01*
X12847083Y-16821207D02*
X12866131Y-16811684D01*
X13104226Y-16878350D02*
X13104226Y-17011684D01*
X13056607Y-16802160D02*
X13008988Y-16945017D01*
X13008988Y-16945017D02*
X13132798Y-16945017D01*
X13189940Y-16811684D02*
X13313750Y-16811684D01*
X13313750Y-16811684D02*
X13247083Y-16887874D01*
X13247083Y-16887874D02*
X13275655Y-16887874D01*
X13275655Y-16887874D02*
X13294702Y-16897398D01*
X13294702Y-16897398D02*
X13304226Y-16906922D01*
X13304226Y-16906922D02*
X13313750Y-16925969D01*
X13313750Y-16925969D02*
X13313750Y-16973588D01*
X13313750Y-16973588D02*
X13304226Y-16992636D01*
X13304226Y-16992636D02*
X13294702Y-17002160D01*
X13294702Y-17002160D02*
X13275655Y-17011684D01*
X13275655Y-17011684D02*
X13218512Y-17011684D01*
X13218512Y-17011684D02*
X13199464Y-17002160D01*
X13199464Y-17002160D02*
X13189940Y-16992636D01*
X13380417Y-16811684D02*
X13504226Y-16811684D01*
X13504226Y-16811684D02*
X13437559Y-16887874D01*
X13437559Y-16887874D02*
X13466131Y-16887874D01*
X13466131Y-16887874D02*
X13485179Y-16897398D01*
X13485179Y-16897398D02*
X13494702Y-16906922D01*
X13494702Y-16906922D02*
X13504226Y-16925969D01*
X13504226Y-16925969D02*
X13504226Y-16973588D01*
X13504226Y-16973588D02*
X13494702Y-16992636D01*
X13494702Y-16992636D02*
X13485179Y-17002160D01*
X13485179Y-17002160D02*
X13466131Y-17011684D01*
X13466131Y-17011684D02*
X13408988Y-17011684D01*
X13408988Y-17011684D02*
X13389940Y-17002160D01*
X13389940Y-17002160D02*
X13380417Y-16992636D01*
X13580417Y-16811684D02*
X13580417Y-16849779D01*
X13656607Y-16811684D02*
X13656607Y-16849779D01*
X13951845Y-17087874D02*
X13942321Y-17078350D01*
X13942321Y-17078350D02*
X13923274Y-17049779D01*
X13923274Y-17049779D02*
X13913750Y-17030731D01*
X13913750Y-17030731D02*
X13904226Y-17002160D01*
X13904226Y-17002160D02*
X13894702Y-16954541D01*
X13894702Y-16954541D02*
X13894702Y-16916445D01*
X13894702Y-16916445D02*
X13904226Y-16868826D01*
X13904226Y-16868826D02*
X13913750Y-16840255D01*
X13913750Y-16840255D02*
X13923274Y-16821207D01*
X13923274Y-16821207D02*
X13942321Y-16792636D01*
X13942321Y-16792636D02*
X13951845Y-16783112D01*
X14132798Y-17011684D02*
X14018512Y-17011684D01*
X14075655Y-17011684D02*
X14075655Y-16811684D01*
X14075655Y-16811684D02*
X14056607Y-16840255D01*
X14056607Y-16840255D02*
X14037560Y-16859303D01*
X14037560Y-16859303D02*
X14018512Y-16868826D01*
X14199464Y-16811684D02*
X14332798Y-16811684D01*
X14332798Y-16811684D02*
X14247083Y-17011684D01*
X14561369Y-17011684D02*
X14561369Y-16811684D01*
X14647083Y-17011684D02*
X14647083Y-16906922D01*
X14647083Y-16906922D02*
X14637560Y-16887874D01*
X14637560Y-16887874D02*
X14618512Y-16878350D01*
X14618512Y-16878350D02*
X14589941Y-16878350D01*
X14589941Y-16878350D02*
X14570893Y-16887874D01*
X14570893Y-16887874D02*
X14561369Y-16897398D01*
X14770893Y-17011684D02*
X14751845Y-17002160D01*
X14751845Y-17002160D02*
X14742322Y-16992636D01*
X14742322Y-16992636D02*
X14732798Y-16973588D01*
X14732798Y-16973588D02*
X14732798Y-16916445D01*
X14732798Y-16916445D02*
X14742322Y-16897398D01*
X14742322Y-16897398D02*
X14751845Y-16887874D01*
X14751845Y-16887874D02*
X14770893Y-16878350D01*
X14770893Y-16878350D02*
X14799464Y-16878350D01*
X14799464Y-16878350D02*
X14818512Y-16887874D01*
X14818512Y-16887874D02*
X14828036Y-16897398D01*
X14828036Y-16897398D02*
X14837560Y-16916445D01*
X14837560Y-16916445D02*
X14837560Y-16973588D01*
X14837560Y-16973588D02*
X14828036Y-16992636D01*
X14828036Y-16992636D02*
X14818512Y-17002160D01*
X14818512Y-17002160D02*
X14799464Y-17011684D01*
X14799464Y-17011684D02*
X14770893Y-17011684D01*
X14951845Y-17011684D02*
X14932798Y-17002160D01*
X14932798Y-17002160D02*
X14923274Y-16983112D01*
X14923274Y-16983112D02*
X14923274Y-16811684D01*
X15104226Y-17002160D02*
X15085179Y-17011684D01*
X15085179Y-17011684D02*
X15047083Y-17011684D01*
X15047083Y-17011684D02*
X15028036Y-17002160D01*
X15028036Y-17002160D02*
X15018512Y-16983112D01*
X15018512Y-16983112D02*
X15018512Y-16906922D01*
X15018512Y-16906922D02*
X15028036Y-16887874D01*
X15028036Y-16887874D02*
X15047083Y-16878350D01*
X15047083Y-16878350D02*
X15085179Y-16878350D01*
X15085179Y-16878350D02*
X15104226Y-16887874D01*
X15104226Y-16887874D02*
X15113750Y-16906922D01*
X15113750Y-16906922D02*
X15113750Y-16925969D01*
X15113750Y-16925969D02*
X15018512Y-16945017D01*
X15189941Y-17002160D02*
X15208988Y-17011684D01*
X15208988Y-17011684D02*
X15247083Y-17011684D01*
X15247083Y-17011684D02*
X15266131Y-17002160D01*
X15266131Y-17002160D02*
X15275655Y-16983112D01*
X15275655Y-16983112D02*
X15275655Y-16973588D01*
X15275655Y-16973588D02*
X15266131Y-16954541D01*
X15266131Y-16954541D02*
X15247083Y-16945017D01*
X15247083Y-16945017D02*
X15218512Y-16945017D01*
X15218512Y-16945017D02*
X15199464Y-16935493D01*
X15199464Y-16935493D02*
X15189941Y-16916445D01*
X15189941Y-16916445D02*
X15189941Y-16906922D01*
X15189941Y-16906922D02*
X15199464Y-16887874D01*
X15199464Y-16887874D02*
X15218512Y-16878350D01*
X15218512Y-16878350D02*
X15247083Y-16878350D01*
X15247083Y-16878350D02*
X15266131Y-16887874D01*
X15342322Y-17087874D02*
X15351845Y-17078350D01*
X15351845Y-17078350D02*
X15370893Y-17049779D01*
X15370893Y-17049779D02*
X15380417Y-17030731D01*
X15380417Y-17030731D02*
X15389941Y-17002160D01*
X15389941Y-17002160D02*
X15399464Y-16954541D01*
X15399464Y-16954541D02*
X15399464Y-16916445D01*
X15399464Y-16916445D02*
X15389941Y-16868826D01*
X15389941Y-16868826D02*
X15380417Y-16840255D01*
X15380417Y-16840255D02*
X15370893Y-16821207D01*
X15370893Y-16821207D02*
X15351845Y-16792636D01*
X15351845Y-16792636D02*
X15342322Y-16783112D01*
D14*
X10372367Y-17225587D02*
X10372367Y-17140733D01*
X10287514Y-17140733D01*
X10287514Y-17225587D01*
X10372367Y-17225587D01*
D11*
X10742321Y-17275684D02*
X10628036Y-17275684D01*
X10685178Y-17275684D02*
X10685178Y-17075684D01*
X10685178Y-17075684D02*
X10666131Y-17104255D01*
X10666131Y-17104255D02*
X10647083Y-17123303D01*
X10647083Y-17123303D02*
X10628036Y-17132826D01*
X10828036Y-17256636D02*
X10837559Y-17266160D01*
X10837559Y-17266160D02*
X10828036Y-17275684D01*
X10828036Y-17275684D02*
X10818512Y-17266160D01*
X10818512Y-17266160D02*
X10828036Y-17256636D01*
X10828036Y-17256636D02*
X10828036Y-17275684D01*
X10913750Y-17094731D02*
X10923274Y-17085207D01*
X10923274Y-17085207D02*
X10942321Y-17075684D01*
X10942321Y-17075684D02*
X10989940Y-17075684D01*
X10989940Y-17075684D02*
X11008988Y-17085207D01*
X11008988Y-17085207D02*
X11018512Y-17094731D01*
X11018512Y-17094731D02*
X11028036Y-17113779D01*
X11028036Y-17113779D02*
X11028036Y-17132826D01*
X11028036Y-17132826D02*
X11018512Y-17161398D01*
X11018512Y-17161398D02*
X10904226Y-17275684D01*
X10904226Y-17275684D02*
X11028036Y-17275684D01*
X11151845Y-17075684D02*
X11170893Y-17075684D01*
X11170893Y-17075684D02*
X11189940Y-17085207D01*
X11189940Y-17085207D02*
X11199464Y-17094731D01*
X11199464Y-17094731D02*
X11208988Y-17113779D01*
X11208988Y-17113779D02*
X11218512Y-17151874D01*
X11218512Y-17151874D02*
X11218512Y-17199493D01*
X11218512Y-17199493D02*
X11208988Y-17237588D01*
X11208988Y-17237588D02*
X11199464Y-17256636D01*
X11199464Y-17256636D02*
X11189940Y-17266160D01*
X11189940Y-17266160D02*
X11170893Y-17275684D01*
X11170893Y-17275684D02*
X11151845Y-17275684D01*
X11151845Y-17275684D02*
X11132797Y-17266160D01*
X11132797Y-17266160D02*
X11123274Y-17256636D01*
X11123274Y-17256636D02*
X11113750Y-17237588D01*
X11113750Y-17237588D02*
X11104226Y-17199493D01*
X11104226Y-17199493D02*
X11104226Y-17151874D01*
X11104226Y-17151874D02*
X11113750Y-17113779D01*
X11113750Y-17113779D02*
X11123274Y-17094731D01*
X11123274Y-17094731D02*
X11132797Y-17085207D01*
X11132797Y-17085207D02*
X11151845Y-17075684D01*
X11342321Y-17075684D02*
X11361369Y-17075684D01*
X11361369Y-17075684D02*
X11380416Y-17085207D01*
X11380416Y-17085207D02*
X11389940Y-17094731D01*
X11389940Y-17094731D02*
X11399464Y-17113779D01*
X11399464Y-17113779D02*
X11408988Y-17151874D01*
X11408988Y-17151874D02*
X11408988Y-17199493D01*
X11408988Y-17199493D02*
X11399464Y-17237588D01*
X11399464Y-17237588D02*
X11389940Y-17256636D01*
X11389940Y-17256636D02*
X11380416Y-17266160D01*
X11380416Y-17266160D02*
X11361369Y-17275684D01*
X11361369Y-17275684D02*
X11342321Y-17275684D01*
X11342321Y-17275684D02*
X11323274Y-17266160D01*
X11323274Y-17266160D02*
X11313750Y-17256636D01*
X11313750Y-17256636D02*
X11304226Y-17237588D01*
X11304226Y-17237588D02*
X11294702Y-17199493D01*
X11294702Y-17199493D02*
X11294702Y-17151874D01*
X11294702Y-17151874D02*
X11304226Y-17113779D01*
X11304226Y-17113779D02*
X11313750Y-17094731D01*
X11313750Y-17094731D02*
X11323274Y-17085207D01*
X11323274Y-17085207D02*
X11342321Y-17075684D01*
X11494702Y-17275684D02*
X11494702Y-17142350D01*
X11494702Y-17161398D02*
X11504226Y-17151874D01*
X11504226Y-17151874D02*
X11523274Y-17142350D01*
X11523274Y-17142350D02*
X11551845Y-17142350D01*
X11551845Y-17142350D02*
X11570893Y-17151874D01*
X11570893Y-17151874D02*
X11580416Y-17170922D01*
X11580416Y-17170922D02*
X11580416Y-17275684D01*
X11580416Y-17170922D02*
X11589940Y-17151874D01*
X11589940Y-17151874D02*
X11608988Y-17142350D01*
X11608988Y-17142350D02*
X11637559Y-17142350D01*
X11637559Y-17142350D02*
X11656607Y-17151874D01*
X11656607Y-17151874D02*
X11666131Y-17170922D01*
X11666131Y-17170922D02*
X11666131Y-17275684D01*
X11761369Y-17275684D02*
X11761369Y-17142350D01*
X11761369Y-17161398D02*
X11770893Y-17151874D01*
X11770893Y-17151874D02*
X11789940Y-17142350D01*
X11789940Y-17142350D02*
X11818512Y-17142350D01*
X11818512Y-17142350D02*
X11837559Y-17151874D01*
X11837559Y-17151874D02*
X11847083Y-17170922D01*
X11847083Y-17170922D02*
X11847083Y-17275684D01*
X11847083Y-17170922D02*
X11856607Y-17151874D01*
X11856607Y-17151874D02*
X11875655Y-17142350D01*
X11875655Y-17142350D02*
X11904226Y-17142350D01*
X11904226Y-17142350D02*
X11923274Y-17151874D01*
X11923274Y-17151874D02*
X11932797Y-17170922D01*
X11932797Y-17170922D02*
X11932797Y-17275684D01*
X12323274Y-17066160D02*
X12151845Y-17323303D01*
X12580417Y-17075684D02*
X12599464Y-17075684D01*
X12599464Y-17075684D02*
X12618512Y-17085207D01*
X12618512Y-17085207D02*
X12628036Y-17094731D01*
X12628036Y-17094731D02*
X12637559Y-17113779D01*
X12637559Y-17113779D02*
X12647083Y-17151874D01*
X12647083Y-17151874D02*
X12647083Y-17199493D01*
X12647083Y-17199493D02*
X12637559Y-17237588D01*
X12637559Y-17237588D02*
X12628036Y-17256636D01*
X12628036Y-17256636D02*
X12618512Y-17266160D01*
X12618512Y-17266160D02*
X12599464Y-17275684D01*
X12599464Y-17275684D02*
X12580417Y-17275684D01*
X12580417Y-17275684D02*
X12561369Y-17266160D01*
X12561369Y-17266160D02*
X12551845Y-17256636D01*
X12551845Y-17256636D02*
X12542321Y-17237588D01*
X12542321Y-17237588D02*
X12532798Y-17199493D01*
X12532798Y-17199493D02*
X12532798Y-17151874D01*
X12532798Y-17151874D02*
X12542321Y-17113779D01*
X12542321Y-17113779D02*
X12551845Y-17094731D01*
X12551845Y-17094731D02*
X12561369Y-17085207D01*
X12561369Y-17085207D02*
X12580417Y-17075684D01*
X12732798Y-17256636D02*
X12742321Y-17266160D01*
X12742321Y-17266160D02*
X12732798Y-17275684D01*
X12732798Y-17275684D02*
X12723274Y-17266160D01*
X12723274Y-17266160D02*
X12732798Y-17256636D01*
X12732798Y-17256636D02*
X12732798Y-17275684D01*
X12866131Y-17075684D02*
X12885179Y-17075684D01*
X12885179Y-17075684D02*
X12904226Y-17085207D01*
X12904226Y-17085207D02*
X12913750Y-17094731D01*
X12913750Y-17094731D02*
X12923274Y-17113779D01*
X12923274Y-17113779D02*
X12932798Y-17151874D01*
X12932798Y-17151874D02*
X12932798Y-17199493D01*
X12932798Y-17199493D02*
X12923274Y-17237588D01*
X12923274Y-17237588D02*
X12913750Y-17256636D01*
X12913750Y-17256636D02*
X12904226Y-17266160D01*
X12904226Y-17266160D02*
X12885179Y-17275684D01*
X12885179Y-17275684D02*
X12866131Y-17275684D01*
X12866131Y-17275684D02*
X12847083Y-17266160D01*
X12847083Y-17266160D02*
X12837559Y-17256636D01*
X12837559Y-17256636D02*
X12828036Y-17237588D01*
X12828036Y-17237588D02*
X12818512Y-17199493D01*
X12818512Y-17199493D02*
X12818512Y-17151874D01*
X12818512Y-17151874D02*
X12828036Y-17113779D01*
X12828036Y-17113779D02*
X12837559Y-17094731D01*
X12837559Y-17094731D02*
X12847083Y-17085207D01*
X12847083Y-17085207D02*
X12866131Y-17075684D01*
X13104226Y-17142350D02*
X13104226Y-17275684D01*
X13056607Y-17066160D02*
X13008988Y-17209017D01*
X13008988Y-17209017D02*
X13132798Y-17209017D01*
X13189940Y-17075684D02*
X13323274Y-17075684D01*
X13323274Y-17075684D02*
X13237559Y-17275684D01*
X13389940Y-17094731D02*
X13399464Y-17085207D01*
X13399464Y-17085207D02*
X13418512Y-17075684D01*
X13418512Y-17075684D02*
X13466131Y-17075684D01*
X13466131Y-17075684D02*
X13485179Y-17085207D01*
X13485179Y-17085207D02*
X13494702Y-17094731D01*
X13494702Y-17094731D02*
X13504226Y-17113779D01*
X13504226Y-17113779D02*
X13504226Y-17132826D01*
X13504226Y-17132826D02*
X13494702Y-17161398D01*
X13494702Y-17161398D02*
X13380417Y-17275684D01*
X13380417Y-17275684D02*
X13504226Y-17275684D01*
X13580417Y-17075684D02*
X13580417Y-17113779D01*
X13656607Y-17075684D02*
X13656607Y-17113779D01*
X13951845Y-17351874D02*
X13942321Y-17342350D01*
X13942321Y-17342350D02*
X13923274Y-17313779D01*
X13923274Y-17313779D02*
X13913750Y-17294731D01*
X13913750Y-17294731D02*
X13904226Y-17266160D01*
X13904226Y-17266160D02*
X13894702Y-17218541D01*
X13894702Y-17218541D02*
X13894702Y-17180445D01*
X13894702Y-17180445D02*
X13904226Y-17132826D01*
X13904226Y-17132826D02*
X13913750Y-17104255D01*
X13913750Y-17104255D02*
X13923274Y-17085207D01*
X13923274Y-17085207D02*
X13942321Y-17056636D01*
X13942321Y-17056636D02*
X13951845Y-17047112D01*
X14113750Y-17142350D02*
X14113750Y-17275684D01*
X14066131Y-17066160D02*
X14018512Y-17209017D01*
X14018512Y-17209017D02*
X14142321Y-17209017D01*
X14370893Y-17275684D02*
X14370893Y-17075684D01*
X14456607Y-17275684D02*
X14456607Y-17170922D01*
X14456607Y-17170922D02*
X14447083Y-17151874D01*
X14447083Y-17151874D02*
X14428036Y-17142350D01*
X14428036Y-17142350D02*
X14399464Y-17142350D01*
X14399464Y-17142350D02*
X14380417Y-17151874D01*
X14380417Y-17151874D02*
X14370893Y-17161398D01*
X14580417Y-17275684D02*
X14561369Y-17266160D01*
X14561369Y-17266160D02*
X14551845Y-17256636D01*
X14551845Y-17256636D02*
X14542322Y-17237588D01*
X14542322Y-17237588D02*
X14542322Y-17180445D01*
X14542322Y-17180445D02*
X14551845Y-17161398D01*
X14551845Y-17161398D02*
X14561369Y-17151874D01*
X14561369Y-17151874D02*
X14580417Y-17142350D01*
X14580417Y-17142350D02*
X14608988Y-17142350D01*
X14608988Y-17142350D02*
X14628036Y-17151874D01*
X14628036Y-17151874D02*
X14637560Y-17161398D01*
X14637560Y-17161398D02*
X14647083Y-17180445D01*
X14647083Y-17180445D02*
X14647083Y-17237588D01*
X14647083Y-17237588D02*
X14637560Y-17256636D01*
X14637560Y-17256636D02*
X14628036Y-17266160D01*
X14628036Y-17266160D02*
X14608988Y-17275684D01*
X14608988Y-17275684D02*
X14580417Y-17275684D01*
X14761369Y-17275684D02*
X14742322Y-17266160D01*
X14742322Y-17266160D02*
X14732798Y-17247112D01*
X14732798Y-17247112D02*
X14732798Y-17075684D01*
X14913750Y-17266160D02*
X14894703Y-17275684D01*
X14894703Y-17275684D02*
X14856607Y-17275684D01*
X14856607Y-17275684D02*
X14837560Y-17266160D01*
X14837560Y-17266160D02*
X14828036Y-17247112D01*
X14828036Y-17247112D02*
X14828036Y-17170922D01*
X14828036Y-17170922D02*
X14837560Y-17151874D01*
X14837560Y-17151874D02*
X14856607Y-17142350D01*
X14856607Y-17142350D02*
X14894703Y-17142350D01*
X14894703Y-17142350D02*
X14913750Y-17151874D01*
X14913750Y-17151874D02*
X14923274Y-17170922D01*
X14923274Y-17170922D02*
X14923274Y-17189969D01*
X14923274Y-17189969D02*
X14828036Y-17209017D01*
X14999464Y-17266160D02*
X15018512Y-17275684D01*
X15018512Y-17275684D02*
X15056607Y-17275684D01*
X15056607Y-17275684D02*
X15075655Y-17266160D01*
X15075655Y-17266160D02*
X15085179Y-17247112D01*
X15085179Y-17247112D02*
X15085179Y-17237588D01*
X15085179Y-17237588D02*
X15075655Y-17218541D01*
X15075655Y-17218541D02*
X15056607Y-17209017D01*
X15056607Y-17209017D02*
X15028036Y-17209017D01*
X15028036Y-17209017D02*
X15008988Y-17199493D01*
X15008988Y-17199493D02*
X14999464Y-17180445D01*
X14999464Y-17180445D02*
X14999464Y-17170922D01*
X14999464Y-17170922D02*
X15008988Y-17151874D01*
X15008988Y-17151874D02*
X15028036Y-17142350D01*
X15028036Y-17142350D02*
X15056607Y-17142350D01*
X15056607Y-17142350D02*
X15075655Y-17151874D01*
X15151845Y-17351874D02*
X15161369Y-17342350D01*
X15161369Y-17342350D02*
X15180417Y-17313779D01*
X15180417Y-17313779D02*
X15189941Y-17294731D01*
X15189941Y-17294731D02*
X15199464Y-17266160D01*
X15199464Y-17266160D02*
X15208988Y-17218541D01*
X15208988Y-17218541D02*
X15208988Y-17180445D01*
X15208988Y-17180445D02*
X15199464Y-17132826D01*
X15199464Y-17132826D02*
X15189941Y-17104255D01*
X15189941Y-17104255D02*
X15180417Y-17085207D01*
X15180417Y-17085207D02*
X15161369Y-17056636D01*
X15161369Y-17056636D02*
X15151845Y-17047112D01*
D15*
X10324940Y-17512160D02*
X10389940Y-17447160D01*
X10324940Y-17382160D01*
X10259940Y-17447160D01*
X10324940Y-17512160D01*
D11*
X10742321Y-17539684D02*
X10628036Y-17539684D01*
X10685178Y-17539684D02*
X10685178Y-17339684D01*
X10685178Y-17339684D02*
X10666131Y-17368255D01*
X10666131Y-17368255D02*
X10647083Y-17387303D01*
X10647083Y-17387303D02*
X10628036Y-17396826D01*
X10828036Y-17520636D02*
X10837559Y-17530160D01*
X10837559Y-17530160D02*
X10828036Y-17539684D01*
X10828036Y-17539684D02*
X10818512Y-17530160D01*
X10818512Y-17530160D02*
X10828036Y-17520636D01*
X10828036Y-17520636D02*
X10828036Y-17539684D01*
X10904226Y-17339684D02*
X11028036Y-17339684D01*
X11028036Y-17339684D02*
X10961369Y-17415874D01*
X10961369Y-17415874D02*
X10989940Y-17415874D01*
X10989940Y-17415874D02*
X11008988Y-17425398D01*
X11008988Y-17425398D02*
X11018512Y-17434922D01*
X11018512Y-17434922D02*
X11028036Y-17453969D01*
X11028036Y-17453969D02*
X11028036Y-17501588D01*
X11028036Y-17501588D02*
X11018512Y-17520636D01*
X11018512Y-17520636D02*
X11008988Y-17530160D01*
X11008988Y-17530160D02*
X10989940Y-17539684D01*
X10989940Y-17539684D02*
X10932797Y-17539684D01*
X10932797Y-17539684D02*
X10913750Y-17530160D01*
X10913750Y-17530160D02*
X10904226Y-17520636D01*
X11151845Y-17339684D02*
X11170893Y-17339684D01*
X11170893Y-17339684D02*
X11189940Y-17349207D01*
X11189940Y-17349207D02*
X11199464Y-17358731D01*
X11199464Y-17358731D02*
X11208988Y-17377779D01*
X11208988Y-17377779D02*
X11218512Y-17415874D01*
X11218512Y-17415874D02*
X11218512Y-17463493D01*
X11218512Y-17463493D02*
X11208988Y-17501588D01*
X11208988Y-17501588D02*
X11199464Y-17520636D01*
X11199464Y-17520636D02*
X11189940Y-17530160D01*
X11189940Y-17530160D02*
X11170893Y-17539684D01*
X11170893Y-17539684D02*
X11151845Y-17539684D01*
X11151845Y-17539684D02*
X11132797Y-17530160D01*
X11132797Y-17530160D02*
X11123274Y-17520636D01*
X11123274Y-17520636D02*
X11113750Y-17501588D01*
X11113750Y-17501588D02*
X11104226Y-17463493D01*
X11104226Y-17463493D02*
X11104226Y-17415874D01*
X11104226Y-17415874D02*
X11113750Y-17377779D01*
X11113750Y-17377779D02*
X11123274Y-17358731D01*
X11123274Y-17358731D02*
X11132797Y-17349207D01*
X11132797Y-17349207D02*
X11151845Y-17339684D01*
X11342321Y-17339684D02*
X11361369Y-17339684D01*
X11361369Y-17339684D02*
X11380416Y-17349207D01*
X11380416Y-17349207D02*
X11389940Y-17358731D01*
X11389940Y-17358731D02*
X11399464Y-17377779D01*
X11399464Y-17377779D02*
X11408988Y-17415874D01*
X11408988Y-17415874D02*
X11408988Y-17463493D01*
X11408988Y-17463493D02*
X11399464Y-17501588D01*
X11399464Y-17501588D02*
X11389940Y-17520636D01*
X11389940Y-17520636D02*
X11380416Y-17530160D01*
X11380416Y-17530160D02*
X11361369Y-17539684D01*
X11361369Y-17539684D02*
X11342321Y-17539684D01*
X11342321Y-17539684D02*
X11323274Y-17530160D01*
X11323274Y-17530160D02*
X11313750Y-17520636D01*
X11313750Y-17520636D02*
X11304226Y-17501588D01*
X11304226Y-17501588D02*
X11294702Y-17463493D01*
X11294702Y-17463493D02*
X11294702Y-17415874D01*
X11294702Y-17415874D02*
X11304226Y-17377779D01*
X11304226Y-17377779D02*
X11313750Y-17358731D01*
X11313750Y-17358731D02*
X11323274Y-17349207D01*
X11323274Y-17349207D02*
X11342321Y-17339684D01*
X11494702Y-17539684D02*
X11494702Y-17406350D01*
X11494702Y-17425398D02*
X11504226Y-17415874D01*
X11504226Y-17415874D02*
X11523274Y-17406350D01*
X11523274Y-17406350D02*
X11551845Y-17406350D01*
X11551845Y-17406350D02*
X11570893Y-17415874D01*
X11570893Y-17415874D02*
X11580416Y-17434922D01*
X11580416Y-17434922D02*
X11580416Y-17539684D01*
X11580416Y-17434922D02*
X11589940Y-17415874D01*
X11589940Y-17415874D02*
X11608988Y-17406350D01*
X11608988Y-17406350D02*
X11637559Y-17406350D01*
X11637559Y-17406350D02*
X11656607Y-17415874D01*
X11656607Y-17415874D02*
X11666131Y-17434922D01*
X11666131Y-17434922D02*
X11666131Y-17539684D01*
X11761369Y-17539684D02*
X11761369Y-17406350D01*
X11761369Y-17425398D02*
X11770893Y-17415874D01*
X11770893Y-17415874D02*
X11789940Y-17406350D01*
X11789940Y-17406350D02*
X11818512Y-17406350D01*
X11818512Y-17406350D02*
X11837559Y-17415874D01*
X11837559Y-17415874D02*
X11847083Y-17434922D01*
X11847083Y-17434922D02*
X11847083Y-17539684D01*
X11847083Y-17434922D02*
X11856607Y-17415874D01*
X11856607Y-17415874D02*
X11875655Y-17406350D01*
X11875655Y-17406350D02*
X11904226Y-17406350D01*
X11904226Y-17406350D02*
X11923274Y-17415874D01*
X11923274Y-17415874D02*
X11932797Y-17434922D01*
X11932797Y-17434922D02*
X11932797Y-17539684D01*
X12323274Y-17330160D02*
X12151845Y-17587303D01*
X12580417Y-17339684D02*
X12599464Y-17339684D01*
X12599464Y-17339684D02*
X12618512Y-17349207D01*
X12618512Y-17349207D02*
X12628036Y-17358731D01*
X12628036Y-17358731D02*
X12637559Y-17377779D01*
X12637559Y-17377779D02*
X12647083Y-17415874D01*
X12647083Y-17415874D02*
X12647083Y-17463493D01*
X12647083Y-17463493D02*
X12637559Y-17501588D01*
X12637559Y-17501588D02*
X12628036Y-17520636D01*
X12628036Y-17520636D02*
X12618512Y-17530160D01*
X12618512Y-17530160D02*
X12599464Y-17539684D01*
X12599464Y-17539684D02*
X12580417Y-17539684D01*
X12580417Y-17539684D02*
X12561369Y-17530160D01*
X12561369Y-17530160D02*
X12551845Y-17520636D01*
X12551845Y-17520636D02*
X12542321Y-17501588D01*
X12542321Y-17501588D02*
X12532798Y-17463493D01*
X12532798Y-17463493D02*
X12532798Y-17415874D01*
X12532798Y-17415874D02*
X12542321Y-17377779D01*
X12542321Y-17377779D02*
X12551845Y-17358731D01*
X12551845Y-17358731D02*
X12561369Y-17349207D01*
X12561369Y-17349207D02*
X12580417Y-17339684D01*
X12732798Y-17520636D02*
X12742321Y-17530160D01*
X12742321Y-17530160D02*
X12732798Y-17539684D01*
X12732798Y-17539684D02*
X12723274Y-17530160D01*
X12723274Y-17530160D02*
X12732798Y-17520636D01*
X12732798Y-17520636D02*
X12732798Y-17539684D01*
X12866131Y-17339684D02*
X12885179Y-17339684D01*
X12885179Y-17339684D02*
X12904226Y-17349207D01*
X12904226Y-17349207D02*
X12913750Y-17358731D01*
X12913750Y-17358731D02*
X12923274Y-17377779D01*
X12923274Y-17377779D02*
X12932798Y-17415874D01*
X12932798Y-17415874D02*
X12932798Y-17463493D01*
X12932798Y-17463493D02*
X12923274Y-17501588D01*
X12923274Y-17501588D02*
X12913750Y-17520636D01*
X12913750Y-17520636D02*
X12904226Y-17530160D01*
X12904226Y-17530160D02*
X12885179Y-17539684D01*
X12885179Y-17539684D02*
X12866131Y-17539684D01*
X12866131Y-17539684D02*
X12847083Y-17530160D01*
X12847083Y-17530160D02*
X12837559Y-17520636D01*
X12837559Y-17520636D02*
X12828036Y-17501588D01*
X12828036Y-17501588D02*
X12818512Y-17463493D01*
X12818512Y-17463493D02*
X12818512Y-17415874D01*
X12818512Y-17415874D02*
X12828036Y-17377779D01*
X12828036Y-17377779D02*
X12837559Y-17358731D01*
X12837559Y-17358731D02*
X12847083Y-17349207D01*
X12847083Y-17349207D02*
X12866131Y-17339684D01*
X13113750Y-17339684D02*
X13018512Y-17339684D01*
X13018512Y-17339684D02*
X13008988Y-17434922D01*
X13008988Y-17434922D02*
X13018512Y-17425398D01*
X13018512Y-17425398D02*
X13037559Y-17415874D01*
X13037559Y-17415874D02*
X13085179Y-17415874D01*
X13085179Y-17415874D02*
X13104226Y-17425398D01*
X13104226Y-17425398D02*
X13113750Y-17434922D01*
X13113750Y-17434922D02*
X13123274Y-17453969D01*
X13123274Y-17453969D02*
X13123274Y-17501588D01*
X13123274Y-17501588D02*
X13113750Y-17520636D01*
X13113750Y-17520636D02*
X13104226Y-17530160D01*
X13104226Y-17530160D02*
X13085179Y-17539684D01*
X13085179Y-17539684D02*
X13037559Y-17539684D01*
X13037559Y-17539684D02*
X13018512Y-17530160D01*
X13018512Y-17530160D02*
X13008988Y-17520636D01*
X13313750Y-17539684D02*
X13199464Y-17539684D01*
X13256607Y-17539684D02*
X13256607Y-17339684D01*
X13256607Y-17339684D02*
X13237559Y-17368255D01*
X13237559Y-17368255D02*
X13218512Y-17387303D01*
X13218512Y-17387303D02*
X13199464Y-17396826D01*
X13389940Y-17358731D02*
X13399464Y-17349207D01*
X13399464Y-17349207D02*
X13418512Y-17339684D01*
X13418512Y-17339684D02*
X13466131Y-17339684D01*
X13466131Y-17339684D02*
X13485179Y-17349207D01*
X13485179Y-17349207D02*
X13494702Y-17358731D01*
X13494702Y-17358731D02*
X13504226Y-17377779D01*
X13504226Y-17377779D02*
X13504226Y-17396826D01*
X13504226Y-17396826D02*
X13494702Y-17425398D01*
X13494702Y-17425398D02*
X13380417Y-17539684D01*
X13380417Y-17539684D02*
X13504226Y-17539684D01*
X13580417Y-17339684D02*
X13580417Y-17377779D01*
X13656607Y-17339684D02*
X13656607Y-17377779D01*
X13951845Y-17615874D02*
X13942321Y-17606350D01*
X13942321Y-17606350D02*
X13923274Y-17577779D01*
X13923274Y-17577779D02*
X13913750Y-17558731D01*
X13913750Y-17558731D02*
X13904226Y-17530160D01*
X13904226Y-17530160D02*
X13894702Y-17482541D01*
X13894702Y-17482541D02*
X13894702Y-17444445D01*
X13894702Y-17444445D02*
X13904226Y-17396826D01*
X13904226Y-17396826D02*
X13913750Y-17368255D01*
X13913750Y-17368255D02*
X13923274Y-17349207D01*
X13923274Y-17349207D02*
X13942321Y-17320636D01*
X13942321Y-17320636D02*
X13951845Y-17311112D01*
X14132798Y-17539684D02*
X14018512Y-17539684D01*
X14075655Y-17539684D02*
X14075655Y-17339684D01*
X14075655Y-17339684D02*
X14056607Y-17368255D01*
X14056607Y-17368255D02*
X14037560Y-17387303D01*
X14037560Y-17387303D02*
X14018512Y-17396826D01*
X14247083Y-17425398D02*
X14228036Y-17415874D01*
X14228036Y-17415874D02*
X14218512Y-17406350D01*
X14218512Y-17406350D02*
X14208988Y-17387303D01*
X14208988Y-17387303D02*
X14208988Y-17377779D01*
X14208988Y-17377779D02*
X14218512Y-17358731D01*
X14218512Y-17358731D02*
X14228036Y-17349207D01*
X14228036Y-17349207D02*
X14247083Y-17339684D01*
X14247083Y-17339684D02*
X14285179Y-17339684D01*
X14285179Y-17339684D02*
X14304226Y-17349207D01*
X14304226Y-17349207D02*
X14313750Y-17358731D01*
X14313750Y-17358731D02*
X14323274Y-17377779D01*
X14323274Y-17377779D02*
X14323274Y-17387303D01*
X14323274Y-17387303D02*
X14313750Y-17406350D01*
X14313750Y-17406350D02*
X14304226Y-17415874D01*
X14304226Y-17415874D02*
X14285179Y-17425398D01*
X14285179Y-17425398D02*
X14247083Y-17425398D01*
X14247083Y-17425398D02*
X14228036Y-17434922D01*
X14228036Y-17434922D02*
X14218512Y-17444445D01*
X14218512Y-17444445D02*
X14208988Y-17463493D01*
X14208988Y-17463493D02*
X14208988Y-17501588D01*
X14208988Y-17501588D02*
X14218512Y-17520636D01*
X14218512Y-17520636D02*
X14228036Y-17530160D01*
X14228036Y-17530160D02*
X14247083Y-17539684D01*
X14247083Y-17539684D02*
X14285179Y-17539684D01*
X14285179Y-17539684D02*
X14304226Y-17530160D01*
X14304226Y-17530160D02*
X14313750Y-17520636D01*
X14313750Y-17520636D02*
X14323274Y-17501588D01*
X14323274Y-17501588D02*
X14323274Y-17463493D01*
X14323274Y-17463493D02*
X14313750Y-17444445D01*
X14313750Y-17444445D02*
X14304226Y-17434922D01*
X14304226Y-17434922D02*
X14285179Y-17425398D01*
X14561369Y-17539684D02*
X14561369Y-17339684D01*
X14647083Y-17539684D02*
X14647083Y-17434922D01*
X14647083Y-17434922D02*
X14637560Y-17415874D01*
X14637560Y-17415874D02*
X14618512Y-17406350D01*
X14618512Y-17406350D02*
X14589941Y-17406350D01*
X14589941Y-17406350D02*
X14570893Y-17415874D01*
X14570893Y-17415874D02*
X14561369Y-17425398D01*
X14770893Y-17539684D02*
X14751845Y-17530160D01*
X14751845Y-17530160D02*
X14742322Y-17520636D01*
X14742322Y-17520636D02*
X14732798Y-17501588D01*
X14732798Y-17501588D02*
X14732798Y-17444445D01*
X14732798Y-17444445D02*
X14742322Y-17425398D01*
X14742322Y-17425398D02*
X14751845Y-17415874D01*
X14751845Y-17415874D02*
X14770893Y-17406350D01*
X14770893Y-17406350D02*
X14799464Y-17406350D01*
X14799464Y-17406350D02*
X14818512Y-17415874D01*
X14818512Y-17415874D02*
X14828036Y-17425398D01*
X14828036Y-17425398D02*
X14837560Y-17444445D01*
X14837560Y-17444445D02*
X14837560Y-17501588D01*
X14837560Y-17501588D02*
X14828036Y-17520636D01*
X14828036Y-17520636D02*
X14818512Y-17530160D01*
X14818512Y-17530160D02*
X14799464Y-17539684D01*
X14799464Y-17539684D02*
X14770893Y-17539684D01*
X14951845Y-17539684D02*
X14932798Y-17530160D01*
X14932798Y-17530160D02*
X14923274Y-17511112D01*
X14923274Y-17511112D02*
X14923274Y-17339684D01*
X15104226Y-17530160D02*
X15085179Y-17539684D01*
X15085179Y-17539684D02*
X15047083Y-17539684D01*
X15047083Y-17539684D02*
X15028036Y-17530160D01*
X15028036Y-17530160D02*
X15018512Y-17511112D01*
X15018512Y-17511112D02*
X15018512Y-17434922D01*
X15018512Y-17434922D02*
X15028036Y-17415874D01*
X15028036Y-17415874D02*
X15047083Y-17406350D01*
X15047083Y-17406350D02*
X15085179Y-17406350D01*
X15085179Y-17406350D02*
X15104226Y-17415874D01*
X15104226Y-17415874D02*
X15113750Y-17434922D01*
X15113750Y-17434922D02*
X15113750Y-17453969D01*
X15113750Y-17453969D02*
X15018512Y-17473017D01*
X15189941Y-17530160D02*
X15208988Y-17539684D01*
X15208988Y-17539684D02*
X15247083Y-17539684D01*
X15247083Y-17539684D02*
X15266131Y-17530160D01*
X15266131Y-17530160D02*
X15275655Y-17511112D01*
X15275655Y-17511112D02*
X15275655Y-17501588D01*
X15275655Y-17501588D02*
X15266131Y-17482541D01*
X15266131Y-17482541D02*
X15247083Y-17473017D01*
X15247083Y-17473017D02*
X15218512Y-17473017D01*
X15218512Y-17473017D02*
X15199464Y-17463493D01*
X15199464Y-17463493D02*
X15189941Y-17444445D01*
X15189941Y-17444445D02*
X15189941Y-17434922D01*
X15189941Y-17434922D02*
X15199464Y-17415874D01*
X15199464Y-17415874D02*
X15218512Y-17406350D01*
X15218512Y-17406350D02*
X15247083Y-17406350D01*
X15247083Y-17406350D02*
X15266131Y-17415874D01*
X15342322Y-17615874D02*
X15351845Y-17606350D01*
X15351845Y-17606350D02*
X15370893Y-17577779D01*
X15370893Y-17577779D02*
X15380417Y-17558731D01*
X15380417Y-17558731D02*
X15389941Y-17530160D01*
X15389941Y-17530160D02*
X15399464Y-17482541D01*
X15399464Y-17482541D02*
X15399464Y-17444445D01*
X15399464Y-17444445D02*
X15389941Y-17396826D01*
X15389941Y-17396826D02*
X15380417Y-17368255D01*
X15380417Y-17368255D02*
X15370893Y-17349207D01*
X15370893Y-17349207D02*
X15351845Y-17320636D01*
X15351845Y-17320636D02*
X15342322Y-17311112D01*
M02*
